<svg height="474pt" viewBox="0 0 474 474.2218" width="474pt" xmlns="http://www.w3.org/2000/svg"><path d="m46.015625 97.886719 42.066406 24 16.214844 16.207031-11.320313 11.320312c-2.589843 2.59375-3.085937 6.621094-1.199218 9.769532l13.761718 22.933594-12.5625 12.542968c-6.25 6.25-6.25 16.382813 0 22.632813l11.320313 11.3125c6.25 6.25 16.382813 6.25 22.632813 0l33.933593-33.9375 16.96875 16.96875-39.589843 39.601562c-3.125 3.125-3.125 8.1875 0 11.3125l22.621093 22.621094c3.125 3.125 8.191407 3.125 11.3125 0l37.410157-37.40625 6.351562 12.703125c.128906.273438.398438.425781.558594.671875.261718.503906.574218.976563.9375 1.410156l45.253906 45.253907c.378906.371093.789062.707031 1.226562 1l32.167969 21.449218 10.398438 20.726563c.382812.769531.890625 1.472656 1.503906 2.074219l50.871094 50.976562c1.5 1.5 3.535156 2.34375 5.65625 2.34375 1.570312-.046875 3.089843-.5625 4.363281-1.480469l45.597656 65.910157c1.351563 1.953124 3.496094 3.203124 5.855469 3.417968h.722656c2.121094 0 4.15625-.84375 5.65625-2.34375l45.246094-45.257812c1.679687-1.675782 2.527344-4.011719 2.316406-6.375-.210937-2.363282-1.460937-4.511719-3.414062-5.863282l-65.917969-45.601562c2.152344-3.109375 1.789062-7.3125-.863281-10.007812l-50.90625-50.910157c-.605469-.613281-1.308594-1.121093-2.078125-1.503906l-20.738282-10.402344-21.421874-32.152343c-.292969-.433594-.628907-.84375-1-1.214844l-45.265626-45.257813c-.394531-.3125-.824218-.582031-1.277343-.796875-.289063-.203125-.480469-.511718-.800781-.671875l-21.464844-10.738281-12.871094-12.871094 8.480469-14.136718 15.382812 15.375c3.125 3.125 8.1875 3.125 11.3125 0l22.632813-22.621094c3.121094-3.125 3.121094-8.1875 0-11.3125l-67.882813-67.890625c-3.121093-3.121094-8.1875-3.121094-11.3125 0l-22.628906 22.632812c-3.125 3.125-3.125 8.1875 0 11.3125l21.039063 21.039063-14.144532 8.480468-39.609375-39.597656 11.320313-11.3125-11.3125-11.320312-11.316406 11.320312-16.21875-16.21875-24-42.054687c-14.253907-24.964844-39.804688-41.390625-68.429688-44l-20.707031-1.917969c-2.367188-.203125-4.707031.640625-6.398438 2.3125-1.683593 1.679688-2.5312498 4.027344-2.3125 6.398438l1.878907 20.695312c2.609374 28.628906 19.035156 54.183594 43.992187 68.449219zm69.601563 119.457031-11.320313-11.320312 33.9375-33.945313 11.320313 11.3125zm-6.910157-60.992188 6.902344-6.898437 11.3125 11.3125-.800781.800781-8.945313 8.933594zm57.820313 111.894532-11.308594-11.3125 33.933594-33.945313 5.65625 5.65625 5.664062 5.65625zm287.371094 153.855468-31.695313 31.703126-4.632813-6.6875 29.597657-29.648438zm-20.058594-13.886718-25.527344 25.527344-27.765625-40.113282 13.183594-13.183594zm-107.3125-96.296875 16.3125 8.152343 44.335937 44.34375-22.621093 22.625-44.335938-44.335937-8.203125-16.273437 7.242187-7.199219zm-69.460938-77.601563 39.039063 39.042969 18.550781 27.824219-11.40625 11.40625-1.9375 1.945312-27.832031-18.554687-39.039063-39.03125 11.289063-11.320313zm-57.800781-114.398437 11.261719-11.304688 56.570312 56.578125-11.320312 11.308594-16.960938-16.957031-16.96875-16.976563zm15.734375 38.398437 8.097656 8.113282-8.480468 14.136718-13.800782-13.792968zm13.785156 59.042969c.609375.605469 1.3125 1.113281 2.078125 1.503906l12.699219 6.34375-15.351562 15.359375-2.890626 2.878906-6.34375-12.695312c-.386718-.769531-.894531-1.472656-1.503906-2.082031l-56.566406-56.566407 11.3125-11.3125zm-113.175781-113.160156 45.253906 45.253906-11.308593 11.3125-5.65625-5.65625-1.890626-1.886719-37.710937-37.710937zm-31.480469-50.335938 21.535156 37.679688-13.992187 13.992187-37.710937-21.503906c-6.460938-3.734375-12.296876-8.457031-17.296876-13.992188l33.441407-33.449218c5.542969 4.992187 10.277343 10.820312 14.023437 17.273437zm-56-36c10.164063.972657 20.003906 4.101563 28.863282 9.183594l-29.847657 29.855469c-5.070312-8.863282-8.195312-18.707032-9.167969-28.871094l-1.046874-11.203125zm0 0"/></svg>