<?xml version="1.0"?>
<svg width="768" height="768" xmlns="http://www.w3.org/2000/svg" xmlns:svg="http://www.w3.org/2000/svg">
 <defs>
  <clipPath clipPathUnits="userSpaceOnUse" id="clipPathFlag">
   <rect fill="#000000" fill-opacity="0.67" height="511" id="rect3918" ry="57" width="511" x="-5.5" y="-91.5"/>
  </clipPath>
  <clipPath clipPathUnits="userSpaceOnUse" id="clipPath5796">
   <rect fill="none" height="512" id="rect5798" ry="57" stroke="#00fa00" stroke-width="20" width="512" x="-6" y="-92"/>
  </clipPath>
 </defs>
 <metadata>image/svg+xmlOpenclipartad2011-08-21T12:00:49country flag buttons (with ISO-3166-1 naming convention)https://openclipart.org/detail/155971/ad-by-koppikoppiISO3166-1buttoncountryflagflagssquared</metadata>
 <g class="layer">
  <title>Layer 1</title>
  <g id="svg_50"/>
  <path d="m411.72064,386.51783c-0.18301,2.5014 -1.60751,4.07354 -1.40193,6.86874c-2.52911,-2.1438 -5.25346,-4.14548 -7.7153,-6.34173c0.66521,-1.83193 7.38787,-1.17628 9.12052,-0.52736l-0.00329,0.00035zm-209.00655,5.2849c0.70002,0 1.40193,0 2.1043,0c0.29779,1.10575 -0.48174,1.39991 -0.70002,2.1151c-1.23304,-0.12617 -1.59763,-0.90976 -1.40193,-2.1151l-0.00235,0zm3.50764,17.43677c-1.22928,1.01325 -0.8261,3.25203 -3.50482,3.16981c-0.50949,-2.31959 1.50966,-2.74062 3.50482,-3.16981zm-2.8048,5.81084c1.36194,-0.21052 1.02699,2.40571 -0.70002,1.58419c0,-0.35192 0,-0.7042 0,-1.05613c0.60029,0.09711 0.66192,-0.20307 0.70002,-0.52735l0,-0.00071zm0,45.43837c1.23304,0.12759 1.59764,0.90976 1.40193,2.11297c-0.81481,-0.08541 -1.24856,0.11767 -1.40193,0.52736c-1.64044,-0.13468 -0.40364,-2.31994 0,-2.64033zm253.18935,10.56803c-0.10632,1.31343 -2.37481,0.15417 -2.80762,0c0.63275,-1.76707 1.56894,-0.46179 2.80715,0l0.00047,0zm-249.68171,5.28384c-1.05191,0.61596 -1.71477,1.52643 -3.50481,1.58526c-0.10021,-1.48638 1.71806,-1.52359 3.50481,-1.58526zm-3.50764,10.03961c2.94828,0.69534 -0.00094,1.73411 0,3.1698c-1.97634,-0.53231 0.19383,-2.24516 0,-3.1698zm321.22513,4.75506c0,-0.35192 0,-0.70562 0,-1.05613c0.46762,0 0.93665,0 1.40192,0c0,0.35193 0,0.70562 0,1.05613c-0.46762,0 -0.93477,0 -1.40192,0zm-321.22513,8.98065c1.13425,-0.14885 1.20764,0.49971 2.1043,0.52735c-0.13078,0.42741 -0.70425,0.527 -0.70002,1.05613c-0.46762,0 -0.93665,0 -1.40192,0c0,-0.52736 0,-1.05613 0,-1.58455l-0.00236,0.00106l0,0.00001zm-0.70284,8.98489c0.94183,0.34874 1.3069,1.12914 1.40193,2.1151c-2.11042,0.5309 -1.24433,-1.1784 -1.40193,-2.1151zm0,7.9231c1.20199,0.91259 2.7554,-0.77721 2.80762,1.58526c-1.11261,-0.04537 -2.67543,0.25446 -2.80762,-0.52736c0,-0.35228 0,-0.70562 0,-1.05613l0,-0.00177zm155.00085,10.56696c1.28291,-1.60262 2.14712,1.50269 2.10431,2.64068c-1.64139,-0.17259 -0.68262,-2.30364 -2.10431,-2.64068zm13.32819,7.92806c0.81763,0.79245 2.02573,1.29217 2.1043,2.64068c-2.19181,0.23958 -2.2412,-1.12914 -2.1043,-2.64068zm-163.41806,37.51245c1.02651,0.46179 2.71588,0.41926 2.1043,2.11509c-0.70003,0 -1.40193,0 -2.1043,0c0,-0.70562 0,-1.4077 0,-2.11509zm166.22332,-188.09914c2.64814,4.52966 12.93724,0.88495 17.53584,3.17051l-1.05191,0.61454l0.34907,0.96966c-1.59763,-0.14743 -2.63497,0.12617 -2.80715,1.05613c3.6069,1.00686 6.80922,0.29026 9.81866,-0.52736c3.35287,1.88083 6.12943,4.1905 6.31244,8.45471c4.28246,-0.82719 8.97844,-1.33859 14.72869,-1.05613c2.81468,-2.2962 2.72576,-6.78298 2.1043,-8.98206c13.67914,-1.20179 28.78937,-0.1889 41.3813,1.05613l-0.34907,0.96965l1.05192,0.61454c-0.68827,0.7159 -1.86955,1.05613 -2.80762,1.58526l-0.81764,-0.79245l-1.28713,0.26261c-1.11167,-0.48447 -2.67543,-0.78217 -2.8048,0c0.68309,0.01418 0.54478,0.64608 0.70002,1.05613c0.46763,0 0.93666,0 1.40193,0c0.70002,-1.05613 1.51954,-0.26297 1.51954,-0.26297l1.2862,-0.26297c0.49961,2.6382 3.2503,-0.6762 3.50528,-1.58526l1.05192,-0.61454l-0.34907,-0.96965c1.98245,-0.43769 1.81545,0.74425 3.50481,0.52736l-0.34907,0.96965l1.05192,0.61454c-2.65143,2.20263 5.48351,2.92066 6.31196,1.05613c-1.79851,-0.05564 -3.34298,-0.29912 -4.20766,-1.05613l1.05192,-0.61454l-0.34907,-0.96965c3.7725,0.50432 8.01403,0.65565 12.62345,0.52735c0.13408,-0.42741 0.70426,-0.527 0.70002,-1.05613l1.05192,0.26297l1.05191,-0.26297c0.93478,0.52949 2.11889,0.87113 2.8048,1.58455c4.00584,0.55323 4.10416,-1.83901 7.01386,-2.11297c3.71887,2.65769 12.61264,4.71325 16.83347,1.05613c0.45916,2.85368 5.73049,0.21867 9.81866,1.05613c1.05992,3.32929 6.83839,3.62168 9.81819,5.28455c1.15683,0.64431 0.87033,1.73233 2.10336,1.58419c-1.6235,3.88394 0.406,10.52089 -2.80479,13.21048c5.52114,19.71064 2.31506,39.71826 2.10289,61.82008c-3.66477,-0.11837 -7.00069,0.00921 -9.81678,0.527c-0.06727,3.04576 1.92271,4.53781 2.80432,6.86874c-9.17697,2.87459 -4.74679,12.94007 2.10431,15.3238c-0.81905,5.01874 0.5316,8.40473 3.50481,10.56838c-2.14194,2.70306 -3.41073,7.04524 -1.40193,10.03961c-2.51547,2.33093 -2.18286,6.80956 -2.10289,11.09397c-2.23696,0.69747 -4.27352,-2.82462 -4.91097,0c-0.20653,3.87011 8.46989,1.99778 10.52103,2.64068c-0.46715,33.81421 0.93666,69.04251 -0.70002,101.9739c-9.06313,-3.18079 -25.46378,-10.18137 -36.47032,-3.69893c1.74676,0.44442 3.75557,0.69038 6.31196,0.52735l-0.3486,0.79246l1.05192,0.26296c-0.971,0.32393 -0.10632,2.03571 -1.40193,2.11297c-2.15981,0.39268 -1.34923,-1.45129 -3.50528,-1.05613c-6.49168,4.69659 -20.76357,3.02769 -28.05218,0c-5.66839,1.63169 -13.70642,1.01821 -16.833,-2.11261c-2.698,0.78501 -4.97213,1.88863 -7.0148,3.16981c-6.75983,-0.5146 -10.94068,0.91543 -16.12969,1.58525c-1.20622,-0.55252 -0.86844,-3.09254 -2.80479,-1.58525l-0.81763,-0.79245l-1.2862,0.26261c-1.48237,-1.25247 -5.77095,-0.15275 -6.31243,1.05613l-1.28714,-0.26262l-0.81764,0.79246c-9.62154,1.37934 -24.06515,-0.86901 -31.56028,2.11509l-1.05192,-0.26545l-1.05191,-0.26262c-1.97634,-0.80237 -2.87536,0.17721 -5.61147,-0.52735c-0.03199,0.90338 0.52125,1.36765 1.40193,1.58455l-0.34907,0.96965l1.05191,0.61383c-3.94233,2.06796 -6.52507,-1.41018 -8.41814,-2.63855c-2.27931,0.04536 -0.49444,3.15279 -3.50529,2.63855c-3.01697,-3.27364 -12.06033,-3.93248 -18.93589,-2.63855c-2.39362,1.20285 3.20091,2.04599 0.70002,3.16981c-3.54386,-0.55607 -4.01195,1.20356 -7.0148,1.05613c-1.85215,-4.06327 -6.12567,-6.30453 -8.41815,-10.03961l-0.70002,-0.26545l-0.70002,0.26545c0.06021,-0.74922 0.11526,-1.49772 -0.70002,-1.58526c0.1289,0.44832 -0.27239,0.49865 -0.70003,0.52736c0,0.35192 0,0.70562 0,1.05612l-0.34907,0.52736l0.34907,0.52736c-2.81655,0.51991 -6.15295,0.64608 -9.81866,0.52735c-2.23791,-0.07513 -2.08219,-1.95384 -4.20766,-2.11261c-2.21015,-0.08045 -0.29732,2.94618 -3.50529,2.11261c-3.36227,-0.45931 -2.92522,-3.78399 -5.61147,-4.75542c-3.15292,-0.26119 -1.96928,2.74346 -3.50481,3.69929c-0.72213,-1.21596 -2.41339,-1.70327 -2.1043,-3.69929c-3.12141,0.11519 -3.13129,2.57299 -4.91098,3.69929c-0.67744,-1.0742 -2.69283,-1.13977 -4.91051,-1.05613l-1.05191,-0.26545l-0.34907,0.79281c-1.43062,-0.29557 -1.37558,-1.58987 -2.80762,-0.52736c-1.93541,-0.22717 -0.65909,1.96908 -2.1043,2.11262c-0.24463,-2.61481 -1.84226,0.44052 -3.50481,0c-0.41164,-1.62708 -0.17877,-3.73969 -2.80762,-3.69965c-1.29043,0.61348 -0.4855,2.80265 -3.50482,2.1151c-1.44473,-0.14389 -0.16748,-2.33873 -2.1043,-2.1151c-0.99452,1.54096 -2.95345,2.35326 -6.31243,2.1151c-1.04674,0.6195 -0.82563,2.19342 -2.80762,2.11261c-0.1082,-2.38196 0.2451,-5.11372 -2.80714,-5.28384c-3.67089,-0.82824 -0.44693,3.53875 -3.50482,3.17052c-3.1788,0.80804 0.37212,-3.45191 -2.80762,-2.64068c-2.76574,-0.14601 -0.20276,3.72055 -2.1043,4.22735c-0.26956,-1.55513 -3.30252,-1.0338 -4.20766,-2.11296l0.34907,-0.79281l-1.05191,-0.26261c0.13078,-0.42742 0.70425,-0.52736 0.70002,-1.05613c-1.74065,-0.07833 -3.40226,-0.09747 -3.50482,1.05613l-1.05191,0.26261l0.34907,0.79281c-5.56772,0.49652 -9.31294,-0.38064 -12.62299,-1.58526c-0.97899,1.51934 1.91283,2.68427 0,3.1698c-2.60909,-2.44292 -7.6612,-0.07088 -10.52056,0.52736c0.19523,-1.37899 0.2371,-2.64599 -2.1043,-2.11297l-1.05192,-0.26545l-0.34907,0.79281c-0.68262,-0.01524 -0.54477,-0.64644 -0.70002,-1.05613c-3.7311,-0.85128 -3.63419,3.92221 -5.61147,2.64032c-1.31678,-0.76764 -0.08374,-3.45723 -1.40193,-4.22735c-2.78597,-0.36681 -7.76705,0.92004 -8.41814,-1.05613c6.26868,-14.16099 -2.45196,-32.97853 3.50481,-48.60995c2.51782,-0.43805 3.39332,1.19116 4.91051,0c-0.54807,-10.10021 1.43815,-18.29231 1.40193,-28.00515c-2.75493,-0.03722 -5.27181,-0.25588 -7.01387,-1.05613c-1.21798,-9.03629 -2.93887,-22.42326 0,-31.17425c2.15699,-0.39268 1.34924,1.45129 3.50481,1.05613c0,-0.35228 0,-0.70562 0,-1.05613l0.95124,-0.64254l-0.24792,-0.94272c1.7924,-0.5674 2.45619,2.27387 3.50482,0.52736c-1.22598,-2.92208 -0.16278,-7.23449 0,-10.03961c-7.59064,-2.35645 -8.90741,-13.4054 -4.20767,-19.02025c-2.57756,-5.80942 -3.72028,-12.69588 -4.91097,-19.55045c-1.13707,0.29132 -3.88165,0.18429 -3.50482,-3.17051c1.68937,-0.21442 1.52189,0.96646 3.50482,0.52735c-2.0168,-3.8049 0.51231,-10.79307 -0.70002,-14.79573c-0.02117,-0.07549 -1.27726,0.05847 -1.40193,0l-0.34907,-0.79245l-1.05192,-0.26297c0,-0.17508 0,-0.35228 0,-0.52736l1.05192,-0.26297l0.34907,-0.79245c0.62005,3.46893 3.05601,0.36787 0,-0.52736l-0.34907,-0.79245l-1.05192,0.26297c-0.41634,-1.68591 1.31537,-1.63345 0,-2.64068c1.25797,-0.06627 1.48096,0.64644 2.80762,0.52736c0.98652,-12.46587 2.42797,-24.58974 2.1043,-38.04192c-0.28462,-1.01644 -2.7187,-0.41608 -2.1043,-2.1151c0.33966,-4.67532 1.57976,-8.67408 2.1043,-13.21048c5.97795,4.34077 18.34454,2.19236 23.14355,-1.58419c0.39706,1.28366 0.60076,2.71687 2.80762,2.63855c4.08393,-0.08328 8.23373,-0.21441 10.52103,1.05613c1.04674,-0.62021 0.82563,-2.19519 2.80433,-2.11261c1.21139,0.31932 -0.05316,2.50636 1.40192,2.64032c1.58399,-2.19802 6.6361,-2.86253 7.01387,0.52736l0.69814,1.58455c-0.2324,0 -0.46762,0 -0.70002,0c0,0.52735 0,1.05613 0,1.58419c0.70002,0 1.40193,0 2.1043,0c0.06022,-0.74921 0.11526,-1.49666 -0.70002,-1.58419l0.34907,-0.96966l-1.05192,-0.61595c3.88729,-3.88181 14.92205,0.75772 19.64015,-2.1151c3.30817,1.71355 10.02801,2.2122 11.92484,-0.52735c5.83258,7.53077 26.26872,0.91968 36.47126,5.28454c1.63762,-0.52735 0.85292,-2.87955 2.1043,-3.69929c2.55311,0.16338 4.56473,-0.08328 6.31244,-0.52735c0.70284,-0.70421 1.15635,-1.59625 2.1043,-2.11297l0.81528,0.79245l1.28714,-0.26297c2.25578,1.83512 0.2832,-3.986 2.80479,-3.69929c2.64202,0.34271 7.40716,1.16139 9.81866,0c-0.19759,-0.85447 0.66145,-0.90976 0.70002,-1.58525c0.2324,0 0.46716,0 0.70003,0c0,0.17685 0,0.35228 0,0.52735c3.88164,0.77686 7.65743,1.63133 11.92484,2.1151l-0.34907,0.96965l1.05191,0.61454c-2.45619,1.72383 3.24043,2.43796 4.20767,1.58419c0.03199,-0.90338 -0.52126,-1.36765 -1.40193,-1.58419l0.34907,-0.79245l-0.34907,-0.79245c2.14711,-1.02494 5.7145,-0.98029 7.01434,-2.64068c0.2451,0.00071 0.47373,0.00071 0.70802,0.00071l-0.01318,0.01488zm-29.45739,5.81155c0.70002,0 1.40192,0 2.1043,0c0.03763,-0.9087 -0.54054,-1.35561 -1.40193,-1.5842c0.03199,0.72831 -0.32743,1.15962 -0.70002,1.5842l-0.00235,0zm11.222,-0.52807c0.70425,-0.00071 0.83551,0.42741 1.40192,0.52736c-0.06492,-0.82931 0.09409,-1.83299 -1.40192,-1.58455c0,0.35299 0,0.70562 0,1.05613l0,0.00106zm25.25067,1.05719c1.68607,-1.27019 -2.29954,-1.368 -2.1043,-0.52735c-0.00377,-0.03721 2.3748,0.32712 2.1043,0.52735zm48.39046,0.52984c0.46762,0 0.93665,0 1.40192,0c0,-0.35192 0,-0.70562 0,-1.05613c-0.46762,0 -0.93665,0 -1.40192,0c0,0.35299 0,0.70562 0,1.05613zm-192.17214,3.17016c0.02164,-1.60262 -2.46231,-1.31626 -4.20766,-1.58526c-0.40694,1.89182 2.07842,1.60369 4.20766,1.58526zm251.79024,0c0.70002,0 1.40193,0 2.1043,0c0,-0.52735 0,-1.05613 0,-1.58526c-0.70002,0 -1.40193,0 -2.1043,0c0,0.52736 0,1.05613 0,1.58526zm-264.41511,0.52665c0.70003,0 1.40193,0 2.1043,0c0,-0.52736 0,-1.05613 0,-1.5842c-0.70002,0 -1.40192,0 -2.1043,0c0,0.52736 0,1.05613 0,1.5842zm44.18515,1.0579c0.70002,0 1.40193,0 2.1043,0c0,-0.52736 0,-1.05613 0,-1.58455c-0.70002,0 -1.40192,0 -2.1043,0c0,0.52736 0,1.05613 0,1.58455zm64.52485,1.58632c0.1002,-0.62411 1.24856,-1.1986 0,-1.58455c-0.09974,0.62411 -1.24903,1.19683 0,1.58455zm-30.85744,50.7215c-2.04126,-0.45683 -0.78658,-0.78926 -0.70002,-2.11261c-4.18932,-2.52018 -10.09623,-5.45289 -16.12968,-8.45506c-8.36828,-4.16356 -13.91718,-9.28969 -25.95117,-7.92558c-7.12913,0.80805 -11.5546,3.74572 -19.64014,4.75542c5.63075,6.38817 13.25714,11.57348 20.3411,16.90799c20.6549,15.55984 40.46675,32.78396 61.01862,49.13767c2.08125,0.51991 3.46106,0.7485 4.20766,1.05613l-0.34907,0.79245l1.05192,-0.26297c-0.48503,2.99083 3.3825,4.03775 6.31243,6.34174c2.2906,1.79967 3.8059,4.39747 5.61147,5.81225c1.49837,1.17592 6.71748,2.37381 6.31243,5.28455c4.72233,0.92996 6.47991,4.84225 9.81866,7.39539c1.93118,1.47539 5.17302,2.29903 7.01387,3.69928c0.51796,0.39729 0.39988,1.83902 0.70002,2.11262c0.80634,0.73291 2.0168,0.80344 2.80715,1.58525c2.47125,2.45604 5.92996,4.81071 9.11769,7.39681c2.19792,0.87538 1.97776,-2.63572 2.8048,-1.05613c2.13911,0.7159 0.22205,1.46795 0.70002,3.69929c2.26519,1.46582 3.60784,3.62167 6.31243,4.75542c-0.11337,-0.61383 0.15619,-0.9406 0.70003,-1.05613c1.13894,1.95738 2.48583,3.76379 4.91097,4.75506c-0.19523,-1.54131 0.16936,-1.81633 1.40193,-1.05613c1.46026,2.04599 -1.0458,0.86263 -0.70002,3.16981c9.10029,8.15346 21.70587,16.15417 31.56028,24.83251c3.37027,2.96744 7.71859,8.91862 12.62487,11.09538c9.24236,4.10083 30.42227,2.83241 42.78181,2.64033c-0.11808,-1.11567 1.14459,-0.61029 2.10289,-1.58526c4.28669,-4.36345 7.57793,-13.56028 11.22341,-22.19077c3.46247,-8.20024 7.86819,-14.52284 7.01386,-22.19112c-0.07244,-0.65317 -0.97711,-2.70979 -1.40192,-3.16981c-0.22911,-0.24596 -5.90127,-2.75834 -7.7153,-3.69929c-8.85378,-4.59416 -18.15495,-9.15536 -28.05218,-13.21047l0.34907,-0.79246l-1.05191,0.26262c-0.16748,-0.1726 0.21829,-0.94095 0,-1.05613c-44.92751,-23.61548 -91.74386,-45.52343 -136.76593,-69.21617c-1.40193,0 -2.8048,0 -4.20766,0c-1.8051,-4.04306 -6.86145,-4.16604 -9.81867,-4.227c3.44837,-1.9021 -3.35568,-3.30342 -5.61147,-4.22842l-0.34907,-0.79245l-0.35236,0.79245l-0.00282,0.00355l0,-0.00001zm154.99756,25.3627c0.24746,0.69464 1.23304,0.83073 1.40193,1.5842c3.58714,-0.90799 3.20561,1.40026 7.01387,2.64068c1.59857,-11.77549 7.32436,-25.66147 7.0148,-35.40125c0.21547,1.07385 -2.0262,-0.10809 -2.1043,-0.52736c1.40663,0.17898 2.19698,-0.10526 2.1043,-1.05613c-6.51801,-4.21707 -12.86573,-9.80392 -22.44399,-10.0396c-7.30037,-0.17898 -16.65423,3.14783 -25.24738,4.75506c-6.62152,1.23829 -13.0558,2.49572 -18.93589,3.69964c-1.93306,0.39729 -5.02012,-0.36504 -5.61147,1.58455c18.77688,10.98198 37.64784,22.475 56.11093,32.22896l-0.34907,0.79245l1.05192,-0.26297l-0.00565,0.00178l0,-0.00001zm-180.24635,123.10713c17.73202,1.01927 36.46467,-7.58606 55.40621,-10.56838c-0.74613,-1.10327 -1.78252,-2.89231 -2.80762,-3.69894c0.3486,0.27609 -0.47327,0.66097 -0.70002,0.52736c-5.23982,-3.08475 -9.85254,-8.11093 -15.43249,-12.15116c-15.06883,-10.92208 -32.19209,-23.11647 -47.69373,-33.81422c-5.32167,9.55868 -10.90397,19.87579 -16.83299,30.64513c-1.83756,3.33885 -5.59077,7.69415 -4.91098,10.56661c0.81904,3.46254 17.40506,10.73141 22.444,14.26696c2.80197,1.96589 5.70791,3.45191 9.81866,4.22735l0.34907,0.79245l0.35236,-0.7928l0.00753,-0.00036zm150.90986,35.66563l1.28714,-0.26296c0.48832,1.95454 -1.11166,2.33199 -3.50529,2.11509c-0.10585,-1.31307 0.36225,-2.19271 1.40193,-2.64068l0.81764,0.79245l-0.00142,-0.00389l0,-0.00001zm-7.94864,1.05684l0.81764,-0.79245c1.74111,0.68613 2.91017,-1.55017 3.50481,0c0.00377,2.47234 -2.30424,3.19781 -4.9105,3.69964l0.25074,-0.94236l-0.95171,-0.64254c0,-0.52735 0,-1.05613 0,-1.58526l1.28714,0.26262l0.00188,0.00035zm-142.61027,-38.04192l-0.34907,0.26545c0.06727,-1.00545 2.73564,0.32747 2.80762,1.05613c-1.03592,-0.27573 -1.76841,-0.7804 -2.80762,-1.05613l0.34907,-0.26545zm-73.99491,-154.54718c-0.79599,-0.09853 -0.39046,-0.52948 0,-0.52736c0.12891,-0.4469 -0.27238,-0.49829 -0.70002,-0.52735c0.68591,-1.75289 1.38829,0.59044 2.1043,0.52735c-0.24745,0.82825 -1.23444,-0.46179 -1.40192,0.52736l-0.00236,0zm0.34813,-37.7786c0.19524,-2.48651 -0.25121,-4.92766 -0.34907,-7.39681l0.34907,7.39681zm0.00283,0.7439c-0.01882,0 -0.03811,-0.00036 -0.05975,-0.00071c-0.54478,-0.02552 -0.96112,-0.37638 -0.92631,-0.78678c0.12185,-1.56116 -0.02023,-3.15386 -0.15901,-4.69234c-0.07762,-0.85979 -0.15713,-1.75324 -0.19335,-2.63784c-0.01647,-0.41147 0.41164,-0.75276 0.955,-0.76481c0.55372,-0.01949 0.9997,0.31046 1.01523,0.72157c0.03434,0.8566 0.11337,1.73446 0.19006,2.58114c0.14301,1.58526 0.29026,3.22722 0.15948,4.88194c-0.03199,0.39729 -0.46716,0.70172 -0.98512,0.70172l0.00377,-0.00389zm-0.35096,53.67831c0.13784,-0.1127 0.32414,-0.22966 0.51326,-0.34909c0.55795,-1.10575 -0.27944,-2.22425 -0.1656,-3.34949l-0.34766,3.69858zm0,0.66167c-0.21546,0 -0.42763,-0.05847 -0.59511,-0.1772c-0.35754,-0.24667 -0.37871,-0.66876 -0.0494,-0.9374c0.12185,-0.09853 0.26251,-0.1967 0.40129,-0.2853c0.15525,-0.44442 0.03764,-0.92783 -0.09691,-1.47645c-0.11808,-0.48731 -0.24463,-0.99411 -0.183,-1.53671c0.03575,-0.36539 0.46339,-0.63226 0.94371,-0.6117c0.48456,0.02693 0.84821,0.3459 0.81199,0.71093c-0.03764,0.37249 0.06022,0.77438 0.16089,1.19861c0.1703,0.70633 0.36601,1.5087 -0.05316,2.33659l-0.08185,0.16268l-0.17783,0.11092c-0.15666,0.09782 -0.31661,0.1967 -0.42999,0.29026c-0.17736,0.14247 -0.4107,0.21335 -0.64639,0.21335l-0.00424,0.00142zm1.40334,12.54632c-0.01646,-0.57768 -0.33966,-0.6762 -0.70002,-0.79245l0.70002,0.79245zm-0.00047,0.56705c-0.40693,0 -0.74424,-0.24595 -0.7513,-0.55429c-0.00141,-0.16621 -0.04093,-0.21441 -0.04093,-0.21441c-0.0174,-0.01028 -0.11808,-0.04005 -0.19053,-0.06309l0.5763,-1.04691c0.40129,0.12829 1.13659,0.36078 1.15964,1.30315c0.00377,0.314 -0.32178,0.57378 -0.73624,0.57768c-0.00188,-0.00071 -0.01224,-0.00071 -0.01647,-0.00071l-0.00047,-0.00142zm-0.70049,10.53046c-0.12561,-0.52735 -0.27239,-1.05612 -0.34907,-1.58525l0.34907,1.58525zm-0.00047,0.72902c-0.45963,0 -0.8675,-0.24667 -0.95124,-0.60001l-0.09362,-0.38028c-0.09926,-0.4065 -0.20511,-0.82612 -0.26721,-1.25389c-0.05693,-0.40048 0.32413,-0.75807 0.85433,-0.80343c0.53254,-0.04785 1.01004,0.24418 1.06697,0.64395c0.05598,0.37248 0.14677,0.74709 0.24557,1.14438l0.09503,0.39126c0.09409,0.39729 -0.25498,0.77473 -0.78376,0.8442c-0.05975,0.00921 -0.11809,0.0124 -0.17172,0.0124l0.00565,0.00142zm154.65084,153.55201c0.70003,0 1.40193,0 2.10431,0l-2.10431,0zm2.10289,0.81761l-2.1043,0c-0.60029,0 -1.08531,-0.36575 -1.08531,-0.8162s0.48549,-0.81761 1.08531,-0.81761l2.1043,0c0.60076,0 1.08532,0.36646 1.08532,0.81761s-0.4855,0.8162 -1.08532,0.8162zm29.45599,-248.7961c0.46762,0.09711 0.93665,0.13715 1.40192,0.17507l-1.40192,-0.17507zm1.40663,0.99056c-0.04093,0 -0.07857,-0.00071 -0.12044,-0.00177c-0.54712,-0.04536 -1.04439,-0.09144 -1.57081,-0.19988c-0.57489,-0.11802 -0.91173,-0.5667 -0.75742,-1.0012c0.15666,-0.43415 0.75083,-0.69038 1.32995,-0.57059c0.37588,0.07832 0.764,0.1127 1.23256,0.15239c0.59324,0.04785 1.02181,0.45222 0.95548,0.89736c-0.06022,0.41678 -0.53066,0.72688 -1.07356,0.72688l0.00424,-0.00319zm70.13349,0.94804c0.93524,-0.18642 1.86955,-0.12121 2.80714,0l-2.80714,0zm-0.00094,0.81584c-0.48174,0 -0.92207,-0.24241 -1.05145,-0.61029c-0.15524,-0.43769 0.19336,-0.88424 0.772,-1.00226c1.17894,-0.23532 2.31506,-0.13786 3.26913,-0.01523c0.5904,0.07832 0.98793,0.50006 0.88349,0.94555c-0.10161,0.44443 -0.66286,0.74425 -1.25421,0.66557c-0.75741,-0.09852 -1.56611,-0.16728 -2.3414,-0.01523c-0.09362,0.01949 -0.18489,0.0287 -0.27944,0.0287l0.00188,0.00319zm23.84874,-1.52182c-0.04986,-0.88105 -0.34342,-1.76352 -0.34907,-2.64068l0.34907,2.64068zm-0.00094,0.69039c-0.48597,0 -0.89196,-0.29026 -0.91078,-0.65814c-0.02023,-0.37283 -0.08891,-0.75134 -0.16277,-1.15217c-0.08939,-0.48873 -0.18254,-0.99411 -0.19006,-1.51544c-0.00094,-0.38028 0.40317,-0.68932 0.90701,-0.6918c0.00095,0 0.00142,0 0.00236,0c0.50008,0 0.90937,0.30408 0.91078,0.6833c0.00141,0.42812 0.08233,0.87006 0.1703,1.33575c0.07668,0.41466 0.15619,0.84207 0.18112,1.28224c0.02023,0.38028 -0.37071,0.70173 -0.87315,0.71696c-0.01505,0 -0.02587,0.00036 -0.0381,0.00036l0.00329,-0.00106zm23.14402,239.45183c-1.59104,-0.2658 -3.30017,-0.85518 -4.91003,-0.26297l4.91003,0.26297zm0.00094,0.48554c-0.0461,0 -0.09409,-0.00107 -0.13972,-0.0117c-0.33543,-0.05564 -0.67509,-0.12617 -1.01757,-0.1974c-1.2368,-0.25588 -2.40633,-0.4944 -3.46671,-0.10526c-0.32179,0.11837 -0.7052,0.01524 -0.86421,-0.22434s-0.02023,-0.53125 0.29779,-0.65104c1.49649,-0.54898 3.02638,-0.23533 4.37279,0.04217c0.32367,0.06627 0.6431,0.13361 0.95547,0.185c0.34672,0.05848 0.56736,0.31755 0.48833,0.58016c-0.06351,0.22718 -0.33073,0.38063 -0.62852,0.38063l0.00235,0.00178zm-80.88975,2.42024c0.14961,-0.52736 0.28509,-1.05613 0.46716,-1.58455l-0.46716,1.58455zm0.00141,0.82293c-0.07668,0 -0.15289,-0.00178 -0.23004,-0.01595c-0.58994,-0.09463 -0.96489,-0.53126 -0.83787,-0.97462l0.10632,-0.38028c0.11385,-0.41288 0.23005,-0.82718 0.37166,-1.23971c0.14913,-0.43911 0.74612,-0.70208 1.33041,-0.58937c0.58242,0.1127 0.93196,0.56244 0.78377,1.00226c-0.13408,0.38701 -0.24463,0.77473 -0.3486,1.16174l-0.10679,0.38701c-0.10679,0.38488 -0.56266,0.64927 -1.06509,0.64927l-0.00377,-0.00035zm-15.19867,2.61197c2.30236,0.41713 4.76938,0.41713 6.91555,-0.41466l-6.91555,0.41466zm2.90688,1.04514c-1.00675,0 -2.06196,-0.09782 -3.1468,-0.29593c-0.54713,-0.10136 -0.88303,-0.51672 -0.75225,-0.92819c0.13079,-0.41288 0.68356,-0.66947 1.2321,-0.56669c1.64797,0.30124 4.05994,0.48447 6.2047,-0.34909c0.49867,-0.1967 1.11543,-0.04785 1.37558,0.3303c0.2611,0.37638 0.06069,0.84101 -0.43845,1.03629c-1.32807,0.51495 -2.84149,0.77473 -4.4777,0.77473l0.00282,-0.00142zm4.34174,-3.42321c-0.14913,-0.52735 -0.28462,-1.05613 -0.46715,-1.58277l0.46715,1.58277zm-0.00094,0.82081c-0.50243,0 -0.95265,-0.26297 -1.0665,-0.6514l-0.10679,-0.38701c-0.10632,-0.38666 -0.21546,-0.77473 -0.34672,-1.16139c-0.1496,-0.43911 0.19759,-0.88672 0.78377,-1.00261c0.58476,-0.11696 1.17705,0.14885 1.33041,0.58937c0.13973,0.41289 0.26063,0.82719 0.37213,1.23972l0.10632,0.3785c0.1289,0.44443 -0.24793,0.88105 -0.83787,0.97462c-0.07715,0.0124 -0.15571,0.01736 -0.23004,0.01736l-0.00471,0.00284zm-126.12728,-5.57622c-0.04093,-0.35193 -0.19383,-0.70563 -0.34907,-1.05613l0.34907,1.05613zm0,0.56882c-0.38624,0 -0.71837,-0.22399 -0.75225,-0.51885c-0.03387,-0.27928 -0.15665,-0.57379 -0.31661,-0.92713c-0.13078,-0.29912 0.08139,-0.62234 0.47798,-0.72405c0.39752,-0.09853 0.82798,0.05919 0.96112,0.36008c0.18253,0.41146 0.33966,0.785 0.38623,1.18726c0.03764,0.31364 -0.26862,0.5915 -0.68591,0.62056c-0.02305,0.00071 -0.04657,0.00071 -0.06915,0.00071l-0.00141,0.00142zm-72.59251,0.48801c0.4107,-0.39268 0.36036,-1.2709 0,-2.11509l0,2.11509zm0,0.53835c-0.15619,0 -0.30956,-0.03722 -0.4394,-0.11519c-0.30955,-0.18464 -0.36224,-0.52133 -0.12043,-0.75417c0.16277,-0.1563 0.23757,-0.77863 -0.11808,-1.61751c-0.12044,-0.28034 0.08797,-0.58512 0.46291,-0.67373c0.37824,-0.08895 0.77671,0.06592 0.89526,0.34874c0.17783,0.41536 0.69061,1.83299 -0.11808,2.61055c-0.13972,0.13645 -0.35284,0.2052 -0.56548,0.2052l0.0033,-0.00389zm-9.21838,-115.0444c-0.41164,-0.14601 -0.85526,-0.41005 -1.30172,-0.6801l1.30172,0.6801zm-0.00141,0.80805c-0.15289,0 -0.30579,-0.02552 -0.45492,-0.07656c-0.50667,-0.17897 -0.98793,-0.45824 -1.51906,-0.77898c-0.46292,-0.28033 -0.53255,-0.78784 -0.1656,-1.13693c0.37071,-0.34874 1.04439,-0.40155 1.50589,-0.12263c0.34343,0.20981 0.77012,0.46605 1.08532,0.57768c0.53255,0.18926 0.76683,0.67196 0.5142,1.07315c-0.18206,0.29132 -0.56736,0.4632 -0.96959,0.4632l0.00377,0.00107l-0.00001,0zm-8.66466,-67.0022c0.0414,-0.35228 0.19383,-0.70562 0.34907,-1.05613l-0.34907,1.05613zm0,0.62056c-0.02305,0 -0.04986,-0.00071 -0.07386,-0.00106c-0.45162,-0.03083 -0.78517,-0.33102 -0.74612,-0.67266c0.0494,-0.40721 0.20511,-0.78501 0.39047,-1.1986c0.14584,-0.32428 0.60828,-0.50007 1.04203,-0.3902c0.42999,0.11022 0.66192,0.45966 0.51749,0.785c-0.15665,0.35158 -0.27944,0.64254 -0.31002,0.91402c-0.03764,0.32109 -0.39706,0.56492 -0.81575,0.56492l-0.00424,-0.00142zm0.34813,-2.73424c-0.37212,-0.70562 -0.2451,-1.4077 0,-2.11297l0,2.11297zm0,0.60037c-0.31708,0 -0.61487,-0.14354 -0.74377,-0.38028c-0.47327,-0.89629 -0.28274,-1.75785 -0.03199,-2.48545c0.11055,-0.32109 0.54619,-0.51424 0.971,-0.42989c0.42622,0.08328 0.68308,0.41217 0.5683,0.73291c-0.19383,0.56279 -0.33308,1.1667 -0.03199,1.74013c0.16089,0.30904 -0.03764,0.65778 -0.44693,0.77863c-0.09503,0.03083 -0.19523,0.04501 -0.29685,0.04501l0.01223,-0.00106zm131.62773,-57.66432c0.20794,-0.70562 0.20277,-1.4077 0.2324,-2.11509l-0.2324,2.11509zm0,0.81797c-0.07856,0 -0.15901,-0.00319 -0.23757,-0.01949c-0.58476,-0.09853 -0.95124,-0.53834 -0.81905,-0.97639c0.15619,-0.51672 0.17736,-1.05436 0.19383,-1.62247l0.01505,-0.33881c0.02023,-0.45258 0.52831,-0.79493 1.12201,-0.78785c0.60029,0.01524 1.06697,0.39269 1.0458,0.84455l-0.01364,0.3296c-0.02023,0.62198 -0.0461,1.26842 -0.24604,1.93789c-0.11385,0.37851 -0.56313,0.639 -1.05945,0.639l-0.00094,-0.00603zm26.88312,-2.75444c1.36853,-0.28494 2.80809,-0.13361 4.20766,-0.1772l-4.20766,0.1772zm-0.00047,0.8123c-0.47327,0 -0.90702,-0.23816 -1.04203,-0.59895c-0.15901,-0.43308 0.17876,-0.88212 0.75224,-1.00261c1.09472,-0.2286 2.16593,-0.21442 3.20232,-0.20131c0.41681,0.00178 0.83551,0.01134 1.24903,-0.00106c0.60076,-0.01524 1.09896,0.33031 1.12436,0.77863c0.02447,0.44832 -0.43845,0.82931 -1.03356,0.84703c-0.45587,0.01382 -0.91502,0.01028 -1.3737,0.00142c-0.92443,-0.01134 -1.79946,-0.02091 -2.59216,0.14353c-0.09691,0.02091 -0.19523,0.03084 -0.28744,0.03084l0.00094,0.00248zm97.0232,2.71085c-0.15619,0.35192 -0.31003,0.7042 -0.46715,1.05613l0.46715,-1.05613zm-0.46762,1.89111c-0.11526,0 -0.2324,-0.01383 -0.34907,-0.04289c-0.581,-0.14601 -0.89432,-0.61702 -0.70285,-1.05613l0.46762,-1.05612c0.19336,-0.43805 0.81764,-0.67373 1.40193,-0.52949c0.581,0.14602 0.89337,0.61702 0.70284,1.05613l-0.46762,1.05613c-0.15289,0.35193 -0.58805,0.57414 -1.05191,0.57414l-0.00094,-0.00177zm12.85444,-2.77252c-1.36476,-0.23852 -2.84384,-0.26758 -4.20766,0l4.20766,0zm-4.20719,0.81478c-0.48174,0 -0.92207,-0.24419 -1.04674,-0.61171c-0.1496,-0.43769 0.19758,-0.88247 0.7767,-0.99517c1.46026,-0.2853 3.09412,-0.28955 4.72327,-0.00177c0.58476,0.10313 0.94842,0.53976 0.81246,0.98029c-0.1369,0.43875 -0.7099,0.71661 -1.30125,0.61206c-1.28808,-0.2247 -2.56393,-0.22718 -3.69299,-0.00178c-0.08939,0.0195 -0.18207,0.02658 -0.26957,0.02658l-0.00188,-0.0085zm-210.40801,2.00168c-0.46762,0.09711 -0.93665,0.13645 -1.40192,0.17508l1.40192,-0.17508zm-1.40428,0.99836c-0.54806,0 -1.0218,-0.3101 -1.08249,-0.73078c-0.06492,-0.45222 0.36648,-0.85625 0.96488,-0.90551c0.46857,-0.03934 0.85998,-0.07513 1.23304,-0.15239c0.581,-0.11838 1.18176,0.13715 1.33983,0.57555c0.15713,0.43769 -0.18253,0.88814 -0.764,1.00758c-0.5683,0.11766 -1.12437,0.16267 -1.57082,0.19988c-0.04093,0.00107 -0.07856,0.00177 -0.12043,0.00177l0,0.0039l-0.00001,0zm69.4363,108.02078c0.2324,-0.1212 0.46762,-0.24383 0.70002,-0.36504c0.70002,0.08045 1.40193,0.28317 2.1043,0.36504l-2.80432,0zm2.80573,0.31223c-0.01929,0 -0.04093,-0.0007 -0.06351,-0.00141c-0.37212,-0.04289 -0.74377,-0.11802 -1.09802,-0.18926c-0.29026,-0.05847 -0.57065,-0.11695 -0.84962,-0.15416l-0.56595,0.29415c-0.18488,0.09711 -0.43939,0.06132 -0.5683,-0.07832c-0.1289,-0.14247 -0.08185,-0.33314 0.10397,-0.42812l0.83551,-0.43415l0.1609,0.01737c0.37212,0.04288 0.73812,0.11801 1.09613,0.18889c0.3486,0.07089 0.68262,0.13751 1.01005,0.17685c0.22205,0.02588 0.37824,0.18465 0.34295,0.35193c-0.02822,0.15275 -0.20323,0.26261 -0.40129,0.26261l-0.00282,-0.00638zm132.55686,23.99328c-0.39753,0.3094 -0.70426,0.64396 -0.94183,1.00049c0.60499,1.48425 2.95722,2.73318 5.15279,2.69915l-4.21096,-3.69964zm4.12298,4.09941c-2.36963,0 -4.90674,-1.35347 -5.57195,-2.98551l-0.06351,-0.15452l0.09691,-0.14566c0.27851,-0.41218 0.6144,-0.7719 1.03357,-1.09689c0.20276,-0.15629 0.54336,-0.16303 0.75224,-0.00921c0.20794,0.15452 0.21688,0.40933 0.01223,0.56669c-0.29026,0.22717 -0.5363,0.47668 -0.74565,0.75311c0.63275,1.25176 2.714,2.29088 4.55814,2.26288c0.00141,0 0.00376,0 0.01364,0c0.28698,0 0.52831,0.17366 0.53208,0.39268c0.00235,0.22364 -0.22911,0.40403 -0.52126,0.41005c-0.03387,0.00036 -0.06351,0.00071 -0.09973,0.00071l0.00329,0.00567zm-160.52529,-81.2401c-0.48644,-0.15912 -0.82563,-0.42812 -1.23962,-0.64643c-0.10021,-0.60745 -0.11526,-1.00049 -0.1609,-1.46653l1.40052,2.11296zm-0.00094,0.28495c-0.04987,0 -0.10021,-0.00922 -0.1496,-0.0241c-0.37589,-0.12263 -0.66145,-0.29593 -0.93995,-0.4618c-0.12091,-0.073 -0.23946,-0.14566 -0.36789,-0.21299l-0.13784,-0.07301l-0.02023,-0.12582c-0.07668,-0.45257 -0.10397,-0.78784 -0.13078,-1.12204l-0.03199,-0.35973c-0.01647,-0.15629 0.13972,-0.29415 0.34907,-0.30585c0.21075,-0.01028 0.39094,0.10526 0.40599,0.26262l0.03387,0.36503c0.02305,0.29133 0.0494,0.58548 0.10679,0.96399c0.08939,0.05103 0.17877,0.10419 0.26722,0.15629c0.24792,0.15204 0.48549,0.29132 0.76682,0.38595c0.19053,0.06167 0.27992,0.2293 0.19524,0.37567c-0.06022,0.10774 -0.20229,0.1726 -0.34672,0.1726l0,0.00319zm152.19371,24.01985c0.38435,-0.35192 0.54807,-0.70562 0.70002,-1.05613l-0.70002,1.05613zm0,0.33952c-0.10021,0 -0.20276,-0.02551 -0.28509,-0.07832c-0.19336,-0.11837 -0.22064,-0.33491 -0.06351,-0.48235c0.32178,-0.29593 0.46715,-0.59044 0.62146,-0.94484c0.07715,-0.17898 0.33542,-0.27715 0.56829,-0.21619c0.23758,0.05848 0.36789,0.25092 0.28698,0.42989c-0.13784,0.31578 -0.32508,0.74851 -0.78377,1.16671c-0.08797,0.08045 -0.21781,0.1251 -0.3486,0.1251l0.00424,0zm-179.54633,123.29674c-0.10397,-0.5348 0.11808,-1.34745 0.70002,-2.1151l-0.70002,2.1151zm0,0.29593c-0.19053,0 -0.35989,-0.10526 -0.38624,-0.25234c-0.12561,-0.64927 0.16089,-1.53068 0.74707,-2.30009c0.10679,-0.14248 0.34483,-0.18926 0.53207,-0.11022s0.25122,0.26048 0.14631,0.40118c-0.60499,0.79245 -0.72919,1.53068 -0.65392,1.92336c0.03199,0.16197 -0.11808,0.31011 -0.32743,0.33456c-0.01835,0.00036 -0.03764,0.00071 -0.05598,0.00071l-0.00188,0.00284zm-29.4574,29.29164c1.55153,0.36504 3.36322,0.41714 4.91051,0l-4.91051,0zm2.5357,0.85908c-0.91172,0 -1.85449,-0.10526 -2.75587,-0.31896c-0.39282,-0.0918 -0.61299,-0.40722 -0.4902,-0.70563s0.54478,-0.46179 0.93666,-0.36929c1.51906,0.35512 3.13316,0.36043 4.43441,0.00319c0.39047,-0.10384 0.81481,0.04785 0.95359,0.34023c0.13832,0.29097 -0.06115,0.61383 -0.44974,0.71838c-0.80399,0.21619 -1.70207,0.32712 -2.62697,0.32712l-0.00188,0.00496zm83.03075,0.99163c0.764,-0.37851 2.13911,0.02835 2.45337,-0.79245l-2.45337,0.79245zm0,0.40083c-0.1703,0 -0.34013,-0.06167 -0.44222,-0.17897c-0.16089,-0.18465 -0.09409,-0.43096 0.1496,-0.55323c0.406,-0.2013 0.88867,-0.23852 1.31207,-0.26935c0.69203,-0.04891 0.84963,-0.10313 0.92631,-0.30231c0.08139,-0.21335 0.37589,-0.33491 0.65627,-0.27183c0.28274,0.05919 0.44457,0.28034 0.36224,0.4944c-0.29026,0.76339 -1.22692,0.82931 -1.84414,0.87538c-0.32743,0.0241 -0.64263,0.04785 -0.82845,0.13928c-0.08939,0.04537 -0.19053,0.06628 -0.29027,0.06628l-0.00141,0.00035zm47.69514,6.9095c1.88695,-0.45825 5.50374,0.51034 5.61147,-1.76353l-5.61147,1.76353zm0,0.80237c-0.44975,0 -0.86844,-0.21548 -1.01381,-0.55606c-0.18112,-0.42387 0.1289,-0.87538 0.68685,-1.00935c0.73201,-0.17862 1.57082,-0.18535 2.38563,-0.19244c2.21015,-0.01843 2.4576,-0.18642 2.48912,-0.8325c0.02023,-0.43308 0.49444,-0.77473 1.06509,-0.77473c0.01505,0 0.02634,0 0.03811,0.00035c0.58946,0.01524 1.04768,0.38737 1.02792,0.83073c-0.11056,2.33943 -2.91817,2.36601 -4.59437,2.38125c-0.65392,0.00284 -1.33089,0.01241 -1.75429,0.11696c-0.11055,0.02658 -0.22017,0.03934 -0.32743,0.03934l-0.00282,-0.00355zm-177.44862,-218.13751c0,-0.35228 0,-0.70562 0,-1.05613l0,1.05613zm0,0.33491c-0.2451,0 -0.4441,-0.14885 -0.4441,-0.33455l0,-1.05613c0,-0.185 0.20182,-0.33456 0.4441,-0.33456s0.4441,0.14885 0.4441,0.33456l0,1.05613c0,0.185 -0.19759,0.33455 -0.4441,0.33455zm0.35236,12.34573c0.03529,-3.35197 0.00189,-6.68622 0,-10.03961l0,10.03961zm0,0.5628c-0.00094,0 -0.00141,0 -0.00235,0c-0.4107,-0.00071 -0.74424,-0.25588 -0.74048,-0.56563c0.02399,-2.43477 0.01647,-4.90108 0.00377,-7.29049l-0.00377,-2.74487c0,-0.3101 0.33308,-0.56244 0.74613,-0.5628l0.00047,0c0.4107,0 0.74612,0.2527 0.74612,0.56209l0.00377,2.74169c0.00376,2.39046 0.0174,4.86174 -0.00377,7.30076c-0.00094,0.30939 -0.33778,0.56031 -0.74612,0.56031l-0.00377,-0.00106zm-0.35236,81.8635c0.25075,-0.52736 0.54713,-1.05613 0.70002,-1.58526l-0.70002,1.58526zm0,0.29309c-0.04375,0 -0.08797,-0.00283 -0.13078,-0.01595c-0.20276,-0.05457 -0.30626,-0.22398 -0.23523,-0.37567c0.06022,-0.12935 0.12844,-0.25977 0.19053,-0.38984c0.20183,-0.40048 0.38624,-0.77863 0.49868,-1.15891c0.0461,-0.15629 0.25121,-0.25623 0.46668,-0.22434c0.20794,0.03473 0.34342,0.19067 0.29779,0.35157c-0.12184,0.41927 -0.32743,0.83463 -0.52831,1.2383c-0.06351,0.12652 -0.12843,0.25446 -0.18488,0.38169c-0.05693,0.11837 -0.20747,0.1967 -0.36789,0.1967l-0.00659,-0.00355zm251.79165,15.02823c0.53161,0.30408 1.25139,0.46321 2.1043,0.52735l-2.1043,-0.52735zm2.10336,0.84419c-0.01599,0 -0.02587,0 -0.0414,-0.00071c-0.99358,-0.07513 -1.75334,-0.26899 -2.31741,-0.59079c-0.183,-0.10526 -0.22017,-0.30408 -0.07856,-0.44443c0.13831,-0.13786 0.40364,-0.16586 0.58899,-0.05918c0.43799,0.24915 1.05521,0.40119 1.89261,0.46604c0.23051,0.01631 0.39752,0.17331 0.37588,0.34626c-0.02023,0.16267 -0.20464,0.28317 -0.41681,0.28317l-0.0033,-0.00036z" fill="black" id="svg_1"/>
  <path d="m70.38678,259.749691c0,1 -0.107996,1.815113 0.072001,2.708c0.16481,0.817554 0.646328,1.662724 0.927999,2.375332c0.309027,0.781811 0.680344,2.08083 0.757,2.538334c0.15678,0.935719 0.206964,1.919804 0.221666,2.424999c0.030258,1.03973 0.021334,2.119999 0.021334,3.241333c0,0.578167 0,1.169334 0,2.394669c0,0.636166 0,1.289333 0,2.650665c0,0.709167 0,1.433334 0,2.1675c0,1.478333 0,2.212502 0,2.936668c0,0.709167 0,2.0625 0,2.698334c0,1.201664 0,1.7775 0,2.904163c0,0.560837 0.003134,1.126671 -0.000334,2.903c-0.001225,0.62767 -0.002491,1.271477 -0.021,1.929001c-0.037996,1.349754 -0.080917,2.038086 -0.149332,2.730667c-0.13829,1.399956 -0.26602,2.098267 -0.397333,2.795998c-0.131361,0.69799 -0.433298,2.080223 -0.581333,2.765335c-0.14662,0.678558 -0.306911,1.346588 -0.517334,2.669334c-0.102324,0.643227 -0.227146,1.904724 -0.271999,2.519997c-0.044086,0.604752 -0.102846,1.785439 -0.144001,2.360001c-0.119379,1.666664 -0.196062,2.202065 -0.342667,3.250671c-0.072077,0.515533 -0.228975,1.530602 -0.290667,2.034668c-0.183447,1.498932 -0.203989,2.001099 -0.258667,3.001328c-0.054655,0.999786 -0.052958,1.502113 -0.191999,3c-0.046476,0.500687 -0.181488,1.497047 -0.354166,2.479172c-0.085384,0.485634 -0.271027,1.437614 -0.579334,2.798828c-0.098154,0.433365 -0.24029,1.278824 -0.657,2.346001c-0.351725,0.900749 -0.891001,1.504501 -1.533001,2.0625l-0.637833,0.713501l-0.072001,0.8955" fill="none" id="svg_66" stroke="#000000" stroke-width="5"/>
  <path d="m93.38678,294.749687c-0.833332,-2.166664 -0.846588,-3.048187 -1.171501,-3.814331c-0.343361,-0.809647 -1.117142,-1.445221 -1.588497,-1.971001c-0.475334,-0.530212 -1.279911,-1.521088 -1.698334,-2.172997c-0.55587,-0.866051 -0.96381,-1.417862 -1.427002,-2.011002c-0.615479,-0.788151 -1.126701,-1.557972 -1.519165,-2.0825c-0.778111,-1.039948 -1.218456,-1.473396 -1.759502,-2.1735c-0.706291,-0.913929 -1.081322,-1.728268 -1.335999,-2.274666c-0.380997,-0.81741 -0.986626,-1.811726 -1.479168,-2.479168c-0.455173,-0.616806 -0.803284,-1.431919 -1.068996,-2.363667c-0.262131,-0.919178 -0.805897,-1.509899 -1.247334,-2.314335c-0.396461,-0.722473 -0.509071,-1.765785 -0.729836,-2.470833c-0.270123,-0.862675 -0.95892,-1.482742 -0.974667,-2.371998c-0.016129,-0.910774 -0.307873,-1.687912 -0.861332,-2.325333c-0.469624,-0.540863 -1.252001,-1.289333 -1.852001,-1.973335l-0.339333,-0.844166l-0.663334,-0.441166l-0.282667,-0.80267" fill="none" id="svg_65" stroke="#000000" stroke-width="5"/>
  <path d="m110.38678,257.749691c0,2.625332 0.000107,3.486664 0,4.246666c-0.000168,1.174999 0.027176,1.718323 -0.071999,2.599998c-0.072388,0.643501 -0.485168,2.046234 -0.810669,2.800003c-0.172058,0.398445 -0.571838,1.221321 -1.283997,2.519997c-0.250755,0.457264 -0.790413,1.395054 -1.069336,1.880001c-0.284737,0.495052 -0.870716,1.513752 -1.165333,2.040001c-0.603214,1.077465 -1.200878,2.199539 -1.503166,2.774998c-0.307056,0.584538 -0.615685,1.180336 -0.931499,1.785004c-0.648006,1.240692 -1.328724,2.521053 -1.685669,3.174831c-0.363026,0.664913 -0.737537,1.337067 -1.125,2.0145c-0.392513,0.686264 -0.797012,1.376465 -1.215,2.068501c-0.421989,0.698662 -1.302444,2.09716 -1.758999,2.79467c-0.455456,0.695831 -0.914219,1.378181 -1.362,2.047493c-0.434212,0.649033 -0.85144,1.271103 -1.236,1.8675c-0.359226,0.557106 -1.199989,1.967216 -1.508999,2.704506c-0.357086,0.852005 -0.772335,1.848 -1.124336,2.362663l-0.424,0.522667l-0.666,0.729004" fill="none" id="svg_64" stroke="#000000" stroke-width="5"/>
  <path d="m109.38678,327.749687c0,-1.799995 -0.001495,-2.64682 -0.283997,-3.486664c-0.259422,-0.771233 -0.582314,-1.676132 -0.658836,-2.470497c-0.081963,-0.85083 -0.057167,-2.042839 -0.057167,-2.644173c0,-0.919495 0,-1.555832 0,-2.919998c0,-0.731331 0,-1.478668 0,-2.225998c0,-1.085999 0,-2.1045 0,-2.773499c0,-0.689003 0.001465,-2.222176 -0.001335,-2.649834c-0.005898,-0.901367 -0.027374,-1.851044 -0.055832,-2.338333c-0.087166,-1.492477 -0.225082,-2.493904 -0.295502,-3c-0.143761,-1.033173 -0.237038,-1.561172 -0.363327,-2.661667c-0.133224,-1.16095 -0.170074,-1.771622 -0.197334,-2.397339c-0.055855,-1.282066 -0.050049,-1.93206 -0.040001,-2.581329c0.009987,-0.645432 0.112823,-2.518044 0.174667,-3.10733c0.117699,-1.121521 0.201424,-1.650391 0.353333,-2.650002c0.071457,-0.470184 0.276115,-1.758347 0.339996,-2.525337c0.088806,-1.06625 0.082184,-1.773327 0.085335,-2.901333c0.002335,-0.83733 0.006935,-1.738762 0.020836,-2.208332c0.028648,-0.967594 0.140411,-2.458954 0.2005,-2.958332c0.120491,-1.001366 0.207916,-1.499424 0.353333,-2.5c0.145256,-0.999439 0.268456,-1.999237 0.341331,-2.998669c0.036201,-0.496502 0.078354,-1.480824 0.136665,-2.444164c0.028572,-0.472012 0.158485,-1.837276 0.300003,-2.700001c0.137459,-0.838013 0.323669,-1.648544 0.480667,-2.857166c0.103111,-0.793751 0.10984,-1.573677 0.227997,-2.292c0.200981,-1.221825 0.644005,-1.836502 1.233337,-2.394501l0.633331,-0.724167" fill="none" id="svg_63" stroke="#000000" stroke-width="5"/>
  <path d="m124.38678,270.749691c0,0.267998 0,1.166664 0,1.957165c0,0.8535 0,2.042835 0,2.6455c0,0.938999 0,1.611668 0,2.730667c0,0.835999 0,1.728001 0,2.652c0,0.466499 0,1.848 0,2.729332c0,0.849335 0,1.674667 0,2.484001c0,1.2015 0,2.005836 0,2.822166c0,0.836334 0,1.264503 0,2.600502c0,0.931328 0,1.878662 0,2.353333c0,0.94133 0,2.304169 0,3.177162c0,0.433502 0,1.309502 0,2.217506c0,1.474167 0,2.005333 0,2.558495c0,1.176338 0,1.801506 0,2.452667c0,0.678169 0.000481,2.119499 -0.000168,2.883499c-0.000671,0.788002 -0.002365,1.594017 -0.010498,2.412003c-0.008186,0.82402 -0.021629,1.648109 -0.046501,2.466003c-0.024513,0.806122 -0.095314,2.359222 -0.22683,3.799332c-0.061989,0.678802 -0.139549,1.329544 -0.216003,1.954498c-0.143967,1.17675 -0.238022,1.727325 -0.378502,3.260666c-0.0429,0.468269 -0.098373,1.339211 -0.116997,2.462997c-0.014587,0.880394 -0.004501,1.838837 -0.004501,2.702171c0,0.924995 0,1.845001 0,2.626495c0,0.790504 0,1.908836 0,2.742836l0,0.829834l0,0.96183l0,0.807503" fill="none" id="svg_62" stroke="#000000" stroke-width="5"/>
  <path d="m120.38678,301.749687c-0.036003,-1.671997 -0.203957,-2.54837 -0.520836,-3.520828c-0.17408,-0.534225 -0.564346,-1.5644 -0.979164,-2.458336c-0.289734,-0.624367 -0.830681,-1.6063 -1.064003,-2.220833c-0.372185,-0.98027 -0.404068,-1.834869 -0.605331,-2.485336c-0.317474,-1.026062 -0.861084,-1.777145 -1.262665,-2.545334c-0.491699,-0.940575 -0.566666,-1.652 -0.568001,-2.615997c-0.00116,-0.84 0,-1.835999 0,-2.6325c0,-0.751499 0,-1.870167 0,-2.854168c0,-0.676498 0,-1.452 0,-2.5c0,-0.919998 0,-1.68 0,-2.6875c0,-1.021832 -0.002815,-1.729836 0,-2.473831c0.004501,-1.191029 0.361954,-1.970646 1,-2.526169c0.700035,-0.609497 0.906876,-1.321838 1.082664,-2.080498c0.232811,-1.004749 0.600266,-1.75573 1.117332,-2.515999c0.480347,-0.706276 0.995056,-1.654701 1.320839,-2.403503c0.231873,-0.532959 0.781242,-1.572247 1.304497,-2.243164c0.503868,-0.646061 1.147255,-1.43996 1.549332,-2.025333c0.501808,-0.730564 1.268623,-1.47673 1.836006,-1.799999c0.967491,-0.551228 1.803886,-0.92498 2.474663,-1.210667c0.9925,-0.42271 1.56572,-0.599293 2.476334,-0.957169c1.010025,-0.396946 1.726044,-0.723118 2.474335,-1.078833c0.777168,-0.369442 1.564934,-0.766134 2.363998,-1.164001c0.799606,-0.398134 1.59127,-0.79937 2.400002,-1.127998c0.791977,-0.321821 1.995926,-0.656067 2.795502,-0.757668c0.780746,-0.099209 1.547302,-0.109833 2.637833,-0.114334c0.68132,-0.002811 1.645828,0 2.262161,0c1.20417,0 2.083168,0 2.890167,0c1.043671,0 1.811668,0 2.7715,0c0.8955,0 1.812538,-0.27817 2.722,0.041668c0.843475,0.296629 1.12709,1.176483 1.520836,1.958332c0.417328,0.82868 0.764923,1.568117 1.166664,2.500002c0.323608,0.75066 0.65995,1.586151 0.833336,2.020832c0.34993,0.877304 0.842705,2.142464 1.113335,2.909832c0.248642,0.705013 0.500893,1.37281 0.720001,2.736c0.114799,0.714241 0.137947,1.469563 0.192001,2.244003c0.055206,0.790913 0.18824,1.990643 0.327332,2.789333c0.139557,0.801392 0.325996,1.595558 0.480667,2.799999c0.102081,0.794941 0.140343,1.578403 0.155998,2.327999c0.027954,1.338417 0.010666,1.902668 0.010666,2.886665c0,0.952 0.026421,1.744205 -0.036003,2.596001c-0.087456,1.193291 -0.245636,1.789902 -0.463997,2.689335c-0.14576,0.600384 -0.384132,1.799088 -0.474663,2.678665c-0.083015,0.806499 -0.289024,1.658024 -0.672668,2.512333c-0.374062,0.832962 -0.319511,1.853455 -0.374001,2.559669c-0.057678,0.747566 -0.50946,1.825211 -1.164001,2.327995c-0.752869,0.578308 -1.469414,1.058159 -1.914497,1.964172c-0.341553,0.695267 -0.572372,1.502678 -0.779167,2.535667c-0.136505,0.681877 -0.288475,1.593674 -0.974335,2.318832c-0.599152,0.633484 -1.130814,0.917679 -2.174667,1.433334c-0.839264,0.414597 -1.261154,1.080704 -1.944,1.253326c-1.035126,0.261673 -1.76915,0.521698 -2.694664,0.749336c-0.905022,0.222595 -1.653877,0.748909 -2.433502,1.045166c-0.742508,0.28215 -1.73584,0.118019 -2.501167,0.121498c-0.989693,0.004501 -1.935799,0.101944 -2.337334,0.85067c-0.490906,0.915375 -1.227997,1.14933 -2.061333,1.14933c-0.833336,0 -1.695503,0.057167 -2.5,0.5c-0.804497,0.442833 -1.666664,0.499931 -2.5,0.5c-0.978333,0.000084 -2.265465,0.395966 -1.713333,0.914673c0.644371,0.605362 1.832825,-0.028091 2.546669,0.585327c0.529716,0.455193 0.678589,1.338173 1.333328,2.166672c0.588135,0.744217 1.286728,1.044319 2.254501,1.433334c0.787109,0.316391 1.604149,0.531273 2.436165,1.00016c0.834015,0.470016 1.472542,1.071335 2.148003,1.552505c0.740242,0.527313 1.258942,0.82283 2.180336,1.590164c0.635094,0.5289 1.250626,1.284004 1.761665,2.052666c0.461967,0.694855 1.422134,0.49054 2.19133,0.776505c0.799492,0.297226 0.82,1.362869 1.146667,2.325333c0.257065,0.757385 1.12236,1.208069 1.630669,1.889328c0.547188,0.733368 0.351494,1.719856 1.250664,2.380005c0.56649,0.415901 1.58744,0.555641 1.833504,1.433167c0.218597,0.779556 0.901459,1.275703 1.166496,2.066833c0.285103,0.851036 0.666672,1.666664 0.858673,2.422661l0.399994,0.810669" fill="none" id="svg_61" stroke="#000000" stroke-width="5"/>
  <path d="m177.38678,264.749691c0,1.672001 0,2.769333 0,3.520832c0,0.796501 0,1.796501 0,2.5c0,1.3125 0,1.951168 0,2.661835c0,0.774666 -0.003006,1.605335 0.000168,2.938831c0.002228,0.935677 0.002274,1.414749 0.035828,2.389168c0.017014,0.493992 0.120834,1.990536 0.248001,2.989334c0.063736,0.500652 0.217957,1.499714 0.290665,2c0.145248,0.999439 0.309311,2.49913 0.340012,2.995998c0.060028,0.971397 0.077087,1.895973 0.080826,2.332504c0.012894,1.507286 0.004501,2.108994 0.004501,2.911499c0,1.09333 0,2.069832 0,2.78083c0,0.731003 -0.010178,1.812599 0.004501,2.831001c0.009644,0.669128 0.028824,1.36058 0.16217,2.481499c0.099564,0.836967 0.261307,1.716896 0.40799,2.615997c0.143936,0.882248 0.316269,2.106674 0.368179,2.836334c0.047806,0.671951 0.061615,1.611679 0.056992,2.514503c-0.004669,0.910545 -0.029602,1.860352 -0.166504,2.866501c-0.097824,0.718918 -0.262665,1.447189 -0.40799,2.171997c-0.265976,1.326553 -0.38768,2.155052 -0.414673,2.912003c-0.038589,1.082031 -0.010666,1.720001 -0.010666,2.791c0,0.767334 0,1.958328 0,2.755661c0,0.781334 0.000381,1.53067 0,2.232002c-0.000671,1.201332 0.044327,1.959663 -0.166672,3.137337c-0.142441,0.795044 -0.364731,1.325653 -0.549332,2.14933c-0.273804,1.221741 -0.278656,1.909286 -0.283997,2.85067c-0.005936,1.047981 0,1.823494 0,2.690331c0,0.940331 0,1.815002 0,2.685669c0,0.957329 0,1.689331 0,2.642998l0,1.013" fill="none" id="svg_60" stroke="#000000" stroke-width="5"/>
  <path d="m224.38678,256.749691c-0.898666,0 -1.483994,0 -2.871338,0c-0.605988,0 -1.26799,0 -1.973999,0c-0.737991,0 -1.496002,0 -2.261993,0c-2.225998,0 -2.906174,0 -3.547333,0c-0.603165,0 -1.699509,0 -2.655838,0c-1.189499,0 -1.838303,-0.021099 -2.689499,0.020832c-0.853409,0.042038 -1.864624,0.197727 -2.662506,0.331833c-0.858826,0.144352 -1.735855,0.300014 -2.170822,0.363335c-1.221909,0.177879 -2.317734,0.254803 -3.017334,0.345333c-0.719421,0.093094 -1.894119,0.375988 -2.768173,0.644001c-0.464722,0.142498 -1.435028,0.456726 -1.947327,0.589333c-1.590744,0.411762 -2.152267,0.483463 -3.268509,0.591c-0.547089,0.052708 -1.595901,0.097767 -2.084,0.105331c-1.573822,0.024384 -2.311996,0.009003 -3.248001,0.009003c-0.833328,0 -1.811996,-0.001923 -2.585999,0c-0.90451,0.002251 -1.651825,0.057167 -2.645996,0.284l-0.765335,0.290665l-0.949326,0.34" fill="none" id="svg_59" stroke="#000000" stroke-width="5"/>
  <path d="m174.38678,337.749687c0.886673,0 1.825333,0 2.833328,0c0.708344,0 1.666672,0 2.524673,0c0.641998,0 1.589996,0 2.774994,0c0.748337,0 1.711716,0.051888 2.468338,-0.085327c1.017242,-0.184479 1.784607,-0.61779 2.598999,-0.793335c0.830963,-0.179115 1.574417,-0.182243 2.76767,-0.405334c0.685272,-0.12812 1.374054,-0.33094 2.698669,-0.549332c0.815277,-0.134415 1.511948,-0.161339 2.533325,-0.166672c0.799988,-0.004181 1.800003,0 2.58934,0c1.043991,0 1.871994,0 2.75383,0c0.739502,0 1.623001,0 2.623505,0c0.714661,0 1.791656,0 2.466324,0c1.102509,0 1.934998,0 2.867004,0c0.932007,0 2,0 2.552002,0c0.947998,0 1.589996,0 2.893326,0c0.79834,0 1.707336,0 2.402008,0c1.016663,0 1.952667,0 2.854004,0c0.965332,0 2.03421,0.377304 2.627991,-0.286667c0.597549,-0.668182 0.17067,-1.713333 0.17067,-2.692497c0,-0.754166 0,-1.6875 0,-2.35817c0,-0.774666 0,-1.597328 0,-2.411995c0,-1.398666 0,-2.250671 0,-2.80867c0,-1.306335 0,-2.109001 0,-2.983665c0,-0.45433 0,-1.376999 0,-2.736832c0,-0.864334 0,-1.700668 0,-2.516998c0,-1.204506 0,-2.001839 0,-2.783173c0,-0.749329 -0.014236,-1.45076 0.001328,-2.654663c0.010193,-0.787674 0.069199,-1.622101 0.220001,-2.630836c0.119614,-0.800171 0.282776,-1.655983 0.42601,-2.534996c0.070694,-0.433838 0.254837,-1.655838 0.316666,-2.707504c0.051086,-0.869064 0.035995,-1.750328 0.035995,-2.690666c0,-0.838661 0,-1.855331 0,-2.549995c0,-1.01667 0.200226,-1.975563 -0.001328,-2.851334c-0.18544,-0.805756 -1.165344,-0.801338 -1.998672,-0.801338c-0.9785,0 -1.79866,0 -2.699997,0c-0.841675,0 -1.842667,0 -2.550674,0c-0.981323,0 -1.944,0 -2.717331,0c-1.037323,0 -1.781326,0 -2.888992,0c-0.721664,0 -1.643005,0 -2.553665,0c-0.910675,0 -1.764008,0 -2.70401,0c-0.88533,0 -1.685333,0 -2.642502,0l-0.895493,0l-0.694672,0" fill="none" id="svg_58" stroke="#000000" stroke-width="5"/>
  <path d="m174.38678,259.749691c0.914673,0.285332 1,1.099998 1,2c0,0.885334 -0.023926,1.825748 0,2.515999c0.036026,1.039207 1.031326,1.103798 1.666672,1.650665c0.680252,0.58551 0.333328,1.5905 0.333328,2.486c0,0.863335 0,1.86467 0,1.459335c0,-0.937332 0,-1.945335 0,-2.807499c0,-0.904503 0,-1.715168 0,-2.625835l0,-0.853333l0,-0.938667l0,-0.939335" fill="none" id="svg_57" stroke="#000000" stroke-width="5"/>
  <path d="m275.38678,256.749691c-0.010666,1.868 -0.029465,2.579838 -0.221664,3.864834c-0.122421,0.818489 -0.218323,1.265896 -0.425003,2.239166c-0.111404,0.524609 -0.517441,2.229988 -0.675171,2.8395c-0.163513,0.631859 -0.34111,1.285252 -0.535492,1.960499c-0.201828,0.701134 -0.421616,1.426514 -0.661499,2.176498c-0.249298,0.779415 -0.810776,2.420845 -1.124176,3.283836c-0.323837,0.891735 -0.668488,1.803761 -1.028992,2.732998c-0.366791,0.945454 -0.747116,1.899563 -1.137009,2.859001c-0.391434,0.963238 -1.189682,2.877556 -1.590668,3.821667c-0.396362,0.93322 -0.791443,1.851284 -1.178986,2.753998c-0.379776,0.884617 -0.751007,1.748623 -1.10701,2.591999c-0.345276,0.817993 -0.983688,2.374947 -1.2715,3.111336c-0.276077,0.706337 -0.532852,1.388725 -0.781494,2.045998c-0.240356,0.635391 -0.472794,1.251938 -0.709503,1.848c-0.231369,0.582588 -0.71405,1.7061 -0.97316,2.249672c-0.258255,0.541794 -0.531738,1.077126 -0.804001,1.616997c-0.275085,0.545464 -0.554367,1.098953 -0.822006,1.670998c-0.273819,0.585281 -0.793228,1.830376 -1.031326,2.497002c-0.244797,0.685387 -0.470444,1.393448 -0.696014,2.112c-0.227112,0.723442 -0.447067,1.449142 -0.677994,2.166c-0.227798,0.707153 -0.691238,2.067711 -1.231339,3.302002c-0.257874,0.58934 -0.534836,1.151337 -1.090668,2.223999c-0.269531,0.520134 -0.561111,1.018127 -1.303833,2.53167c-0.242676,0.494522 -0.68541,1.479027 -0.900665,1.958664c-0.416183,0.927391 -0.593781,1.383926 -1.220657,2.598663c-0.380249,0.736832 -0.799911,1.389908 -1.314835,2.34034c-0.483368,0.892189 -0.851364,1.791214 -1.074677,2.366661c-0.414413,1.067886 -0.715683,1.781136 -1.010666,2.461334c-0.406937,0.938354 -0.671356,1.741486 -1.035995,2.549332c-0.487198,1.079369 -0.836685,1.548935 -1.363998,2.204506c-0.505325,0.628242 -1.279816,1.595253 -1.553329,2.18483c-0.428528,0.923714 -0.397614,2.005989 -0.468002,2.682671c-0.088272,0.848587 -0.542877,1.839325 -0.82933,2.378662c-0.438232,0.825089 -0.906342,1.853172 -1.077332,2.538666l-0.069336,0.834671" fill="none" id="svg_56" stroke="#000000" stroke-dasharray="null" stroke-linecap="null" stroke-linejoin="null" stroke-width="5"/>
  <path d="m300.38678,335.749687c0,-0.886665 0.20285,-1.889534 -0.221344,-2.7575c-0.422485,-0.864494 -0.703217,-1.322746 -0.839996,-2.110497c-0.22699,-1.307281 -0.498611,-2.023003 -0.810654,-2.778671c-0.164078,-0.397354 -0.544373,-1.211685 -1.128006,-2.519997c-0.202393,-0.453697 -0.604233,-1.38707 -0.979172,-2.354164c-0.189255,-0.488144 -0.552994,-1.475082 -0.854156,-2.479172c-0.298813,-0.996254 -0.418564,-1.502426 -0.645844,-2.520828c-0.114746,-0.514168 -0.322006,-1.564034 -0.520828,-2.645836c-0.205261,-1.116859 -0.302979,-1.68721 -0.421326,-2.258667c-0.238556,-1.151909 -0.375183,-1.727203 -0.549347,-2.290665c-0.519348,-1.680183 -0.79335,-2.20446 -1.279999,-3.279999c-0.247314,-0.546585 -0.514481,-1.094772 -0.743988,-1.671005c-0.722382,-1.813744 -0.872223,-2.494934 -1.034668,-3.18766c-0.166504,-0.71003 -0.304321,-1.441704 -0.429001,-2.187004c-0.126038,-0.753403 -0.234787,-1.514366 -0.339005,-2.277c-0.206894,-1.514091 -0.301895,-2.259941 -0.402664,-2.996002c-0.198456,-1.449547 -0.299728,-2.164536 -0.400009,-2.874664c-0.099716,-0.706207 -0.199692,-1.409378 -0.399994,-2.810669c-0.100006,-0.699684 -0.194229,-1.39843 -0.41066,-2.778664c-0.106659,-0.680225 -0.220627,-1.35022 -0.346512,-2.007c-0.123535,-0.644569 -0.558594,-2.472622 -0.726822,-3.041c-0.163269,-0.551624 -0.510513,-1.592007 -0.863342,-2.549999c-0.166092,-0.450958 -0.638489,-1.677898 -0.895493,-2.413502c-0.35672,-1.020992 -0.567398,-1.689213 -0.85701,-2.731331c-0.203827,-0.733448 -0.398132,-1.495644 -0.542999,-2.283001c-0.219055,-1.190598 -0.276077,-1.992619 -0.331833,-2.774166c-0.053452,-0.749138 -0.161179,-2.095577 -0.377991,-2.911503c-0.194611,-0.732334 -0.487427,-1.67551 -0.599167,-2.462498c-0.116577,-0.821026 -0.346466,-1.900043 -0.75351,-2.594666c-0.409744,-0.699234 -0.961334,-1.619335 -1.180328,-2.400833l-0.093002,-0.790501" fill="none" id="svg_55" stroke="#000000" stroke-dasharray="null" stroke-linecap="null" stroke-linejoin="null" stroke-width="5"/>
  <path d="m253.38678,312.749687c1.757172,0 2.657166,0 3.404495,0c0.996841,0 1.831512,0.002617 2.762177,0c0.799515,-0.002251 1.717255,-0.020767 2.405334,-0.085327c1.173218,-0.110085 2.029099,-0.265671 2.907166,-0.414673c0.858597,-0.145706 1.261887,-0.260643 2.667496,-0.414665c0.830032,-0.090958 1.619995,-0.084663 2.821335,-0.085335c0.682663,-0.000381 1.381332,0 2.698669,0c0.563995,0 1.547989,0.002739 2.5,0c0.781509,-0.002251 1.610687,0.124222 2.690323,-0.221329c0.765289,-0.244942 1.563812,-0.760666 2.476334,-0.778671c0.671875,-0.01326 1.661346,0 2.695999,0c0.768005,0 1.727844,0 2.623337,0c0.694672,0 1.711334,0 2.647339,0l0.898666,-0.001328" fill="none" id="svg_54" stroke="#000000" stroke-dasharray="null" stroke-linecap="null" stroke-linejoin="null" stroke-width="5"/>
  <path d="m322.38678,256.749691c0,0.818832 0,1.773331 0,2.583332c0,0.639999 0,2.159832 0,2.588669c0,0.910664 0,1.88533 0,2.394165c0,1.600498 0,2.155666 0,3.299999c0,0.591167 0,1.196335 0,1.816502c0,1.289333 0.000977,2.650665 -0.000336,3.360001c-0.001343,0.725334 -0.00473,1.462742 -0.020996,2.208c-0.016357,0.749428 -0.034363,1.499771 -0.092987,2.243999c-0.171448,2.17627 -0.320953,2.863747 -0.453674,3.534664c-0.130127,0.657803 -0.283508,1.29847 -0.581329,2.549335c-0.145752,0.612236 -0.31778,1.212345 -0.517334,2.421333c-0.197632,1.197414 -0.227753,1.80846 -0.261353,2.421329c-0.068481,1.249825 -0.065521,1.892982 -0.069336,2.549339c-0.007904,1.36264 -0.001862,2.072662 -0.003998,2.802666c-0.002197,0.75 -0.007019,1.520027 -0.019501,2.309998c-0.012787,0.810036 -0.030762,1.640198 -0.064484,2.489998c-0.069855,1.760498 -0.132568,2.669418 -0.200012,3.593338c-0.068207,0.934441 -0.147949,1.873581 -0.235504,2.8125c-0.087128,0.934418 -0.180603,1.858658 -0.280487,2.767494c-0.19278,1.75399 -0.297302,2.589172 -0.398682,3.398674c-0.098663,0.787834 -0.19931,1.557411 -0.299988,2.312996c-0.099365,0.74575 -0.200317,1.485291 -0.299988,2.223c-0.200653,1.485252 -0.300964,2.239525 -0.398682,3c-0.097961,0.762192 -0.192566,1.522446 -0.280487,2.277c-0.0867,0.744118 -0.168335,1.474213 -0.235504,2.187004c-0.127563,1.353851 -0.168518,1.989235 -0.200012,2.59333c-0.057892,1.110252 -0.077026,2.085304 -0.080841,2.519165c-0.011932,1.356125 -0.004486,2.2995 -0.004486,3.142166c0,0.909004 0.023865,1.934082 -0.009003,2.605331c-0.03653,0.745773 -0.39267,1.892433 -0.990997,2.453003c-0.626831,0.587288 -0.990997,1.298836 -1,2.198837l0,0.74733l0,0.994164l0,0.944168" fill="none" id="svg_53" stroke="#000000" stroke-dasharray="null" stroke-linecap="null" stroke-linejoin="null" stroke-width="5"/>
  <path d="m299.38678,277.749691c0,-1.700001 -0.002411,-2.562504 0,-3.5c0.002258,-0.876007 0.005829,-1.584171 0.057159,-2.370667c0.084717,-1.297855 0.224762,-2.213642 0.295502,-2.682003c0.143158,-0.947971 0.300873,-1.893799 0.363342,-2.363331c0.181,-1.360394 0.220642,-2.233532 0.325653,-3.084c0.105591,-0.855335 0.444855,-2.171772 0.622681,-2.621502c0.374573,-0.947258 0.627014,-1.417572 1.131653,-2.389164c0.257324,-0.495422 1.040405,-1.987846 1.282684,-2.48917c0.240387,-0.497375 0.694031,-1.490402 0.921326,-1.979332c0.448822,-0.965464 0.647308,-1.455971 1.421173,-2.799166c0.50351,-0.873962 0.795654,-1.27359 1.317505,-2.075001c0.494019,-0.758669 1.126129,-1.821417 1.455994,-2.4895c0.312469,-0.63286 0.542969,-1.296831 1.347992,-2.456833c0.42807,-0.61684 0.950287,-1.165361 1.451996,-1.686001c0.850739,-0.882845 1.453369,-1.514702 2.171997,-2.014334c0.664276,-0.46184 1.360382,-0.801676 2.166687,-1.333332c0.644043,-0.424662 1.330322,-0.930077 2.087982,-1.416c0.773071,-0.495811 1.974518,-1.11762 2.378662,-1.28c0.792389,-0.318376 1.5979,-0.55716 2.400024,-0.768001c1.196625,-0.31454 1.995392,-0.492101 2.758331,-0.723499c0.731842,-0.221969 1.720306,-0.625772 2.536316,-1.127334c0.767761,-0.471906 1.24234,-0.892404 2.476013,-1.181167c0.689606,-0.161411 1.4505,-0.157796 2.231995,-0.168c1.197083,-0.015631 1.992828,-0.002666 2.776489,-0.002666c0.763672,0 2.199524,0 2.868164,0c0.652679,0 1.636688,0 2.673676,0c0.722656,0 1.781677,0 2.424347,0c1.187653,0 2.221313,0 2.880005,0c1.007996,0 1.80246,-0.063281 2.836334,0.009c0.804932,0.056275 1.769531,0.414884 2.286499,0.700833c0.80722,0.4465 1.785156,1.050886 2.369141,1.654167c0.644104,0.665415 0.811066,1.478239 1.346832,2.179c0.582245,0.76155 1.118317,1.260757 1.569183,1.859667c0.657318,0.873137 1.112396,1.801176 1.345337,2.433332c0.236877,0.642906 0.52475,1.684582 0.721313,2.421167c0.203552,0.762732 0.401489,1.546967 0.700012,2.742832c0.199646,0.799757 0.400879,1.597569 0.563995,2.400002c0.16217,0.797747 0.328735,1.999155 0.378845,2.804499c0.050751,0.815565 0.054901,1.652662 0.057159,2.962166c0.001587,0.918667 0,1.390503 0,2.354168c0,0.489834 0,1.480499 0,2.979168c0,0.5 0,1.5 0,2c0,1 0,2.5 0,3.000164c0,1.004333 0,1.510502 0,2.535835c0,1.049332 0.000977,2.130665 -0.000153,2.685165c-0.002319,1.12701 -0.001648,1.693737 -0.035858,2.817501c-0.016785,0.551647 -0.123138,2.128895 -0.185333,2.618c-0.117218,0.921902 -0.283508,1.759071 -0.425995,2.52c-0.239502,1.278996 -0.305298,2.06477 -0.405334,2.7715c-0.138458,0.978111 -0.375122,1.790413 -0.651825,2.656334c-0.287018,0.898254 -0.591034,1.805252 -0.837158,2.416332c-0.258636,0.642166 -0.779236,1.653534 -1.227692,2.364502c-0.478821,0.759117 -1.019135,1.523224 -1.282471,1.919167c-0.790985,1.189255 -1.26532,1.991409 -1.712189,2.774162c-0.216339,0.378983 -0.582306,1.139496 -1.435822,2.378334c-0.374634,0.54377 -0.998138,1.195114 -1.633514,2.042999c-0.43338,0.578346 -0.785736,1.398689 -1.366669,2.113335c-0.535217,0.658409 -1.478363,0.885605 -2.34314,1.10817c-0.745697,0.191917 -1.621094,0.48954 -2.623505,0.778496c-0.714661,0.206009 -1.457397,0.382454 -2.171997,0.636002c-1.347778,0.478195 -1.91684,0.812149 -2.598846,1.363998c-0.600311,0.485741 -1.24469,1.365715 -2.03183,1.713333c-0.753448,0.332741 -1.779938,0.281334 -2.697327,0.286667c-0.911987,0.005302 -1.744232,-0.019028 -2.654663,0.000168c-0.853882,0.017998 -1.797028,0.281631 -2.431335,0.704338c-0.735413,0.490074 -1.433807,0.949287 -2.446686,1.173996c-0.843292,0.187088 -0.579285,-0.038559 0.313995,0.124168c0.929779,0.169373 1.376038,1.067238 1.856018,1.514664c0.730896,0.68132 1.574432,0.975075 2.138336,1.235336c1.198853,0.553299 1.811401,0.901016 2.432648,1.330666c0.68576,0.474266 1.79425,1.413803 2.201172,1.780998c0.42923,0.387337 1.319794,1.231689 1.778015,1.677338c0.46579,0.452995 0.932129,0.913536 2.3125,2.291664c0.445526,0.444801 0.881317,0.881325 1.730652,1.730667c0.415161,0.415169 0.825348,0.825333 1.634674,1.634666c0.801331,0.801331 1.600952,1.600433 1.99234,2.005836c0.389984,0.403954 1.150024,1.220772 1.494659,1.652664c1.020538,1.278923 1.28186,1.757973 1.80899,2.686501c0.259735,0.457504 0.738434,1.369896 1.010681,1.78933c0.779053,1.200233 1.451843,1.829926 2.156006,2.390999c0.712036,0.567345 1.136871,0.783272 2.171997,1.776001c0.362061,0.347221 1.012848,1.156792 1.319977,1.58667c0.615967,0.862152 1.158081,1.747871 1.680023,2.580002c0.47821,0.762436 0.923615,1.448364 1.319977,2.075996c0.68631,1.086723 1.07489,1.811737 1.472015,2.446671c0.516907,0.826454 1.027344,1.406166 1.549316,1.974663l0.80368,0.814499l0.575012,0.610832" fill="none" id="svg_52" stroke="#000000" stroke-dasharray="null" stroke-linecap="null" stroke-linejoin="null" stroke-width="5"/>
  <path d="m398.38678,256.749691c0.283997,2.346664 0.42984,3.185986 0.5,3.666664c0.157471,1.078571 0.233459,1.678566 0.333344,3c0.054321,0.718845 0.085327,1.475845 0.100494,2.266502c0.015747,0.821396 0.0112,1.671204 -0.01651,2.545498c-0.028442,0.896778 -0.062347,1.814514 -0.250671,3.688c-0.0961,0.955982 -0.230469,1.917282 -0.385498,2.8815c-0.155609,0.967857 -0.336121,1.93256 -0.538483,2.890503c-0.201355,0.953114 -0.409027,1.897778 -0.909332,3.727997c-0.244141,0.893112 -0.513,1.762707 -0.786011,2.614502c-0.268433,0.83754 -0.546051,1.656769 -0.821991,2.461498c-0.271423,0.791595 -0.548889,1.566795 -1.058685,3.090668c-0.24884,0.743782 -0.483124,1.479446 -0.709503,2.205002c-0.222931,0.714447 -0.436768,1.419861 -0.646484,2.114998c-0.206635,0.68486 -0.405823,1.361069 -0.810669,2.68c-0.198303,0.646027 -0.399872,1.284035 -0.600006,1.918503c-0.19986,0.633537 -0.401123,1.268646 -0.600006,1.9095c-0.201141,0.64814 -0.407135,1.305923 -0.799988,2.671997c-0.203888,0.708939 -0.402435,1.439705 -0.604492,2.190002c-0.207306,0.769699 -0.416046,1.560081 -0.6315,2.369995c-0.220825,0.830086 -0.444061,1.681458 -0.930664,3.440002c-0.25177,0.909927 -0.516235,1.833275 -0.781525,2.767502c-0.266693,0.939102 -0.533447,1.877655 -0.790497,2.8125c-0.253937,0.9235 -0.509308,1.829109 -0.927979,3.586662c-0.198578,0.83358 -0.367554,1.643051 -0.519012,2.428505c-0.147064,0.762596 -0.275665,1.508507 -0.393005,2.239494c-0.115265,0.71804 -0.219238,1.427917 -0.421326,2.832001c-0.100616,0.699135 -0.198517,1.39399 -0.30899,2.077499c-0.108276,0.669838 -0.223541,1.320313 -0.363007,1.942505c-0.133636,0.596184 -0.246399,1.174019 -0.661346,2.146667c-0.186218,0.436508 -0.433319,0.807999 -1.145813,1.75l-0.458344,0.517998" fill="none" id="svg_51" stroke="#000000" stroke-dasharray="null" stroke-linecap="null" stroke-linejoin="null" stroke-width="5"/>
  <path d="m434.38678,334.749687c-1,-1 -1.412231,-1.827934 -1.985321,-2.435997c-0.659576,-0.699814 -1.250916,-1.091202 -1.993164,-1.664337c-0.662201,-0.511307 -1.107117,-1.449265 -1.442841,-2.160995c-0.376617,-0.798439 -0.895538,-1.587662 -1.584015,-2.294998c-0.483337,-0.496597 -1.072968,-0.955788 -1.661316,-1.943672c-0.428131,-0.718842 -0.675415,-1.585571 -0.8125,-2.020828c-0.27594,-0.876183 -0.664612,-2.155769 -1.006165,-2.911171c-0.328949,-0.727554 -0.735229,-1.413368 -1.115997,-2.136002c-0.614746,-1.166672 -0.80719,-1.59893 -1.198669,-2.503998c-0.408966,-0.945518 -0.601776,-1.436287 -1.200012,-2.928001c-0.200409,-0.499763 -0.598328,-1.498909 -0.789337,-2c-0.380341,-0.997856 -0.578186,-1.492157 -1.044006,-3c-0.153656,-0.497375 -0.415558,-1.4963 -0.552002,-1.989334c-0.270203,-0.976288 -0.356964,-1.480835 -0.947998,-2.843994c-0.389709,-0.898857 -0.661285,-1.304222 -1.145813,-2.104172c-0.452576,-0.747192 -1.091309,-1.70433 -1.353851,-2.561661c-0.235962,-0.770538 -0.32312,-2.002609 -0.454987,-2.755501c-0.072418,-0.413391 -0.253265,-1.293221 -0.530853,-2.201668c-0.142334,-0.465775 -0.704468,-1.83239 -1.181976,-2.677498c-0.460083,-0.814262 -0.7435,-1.165504 -1.145844,-1.894173c-0.649963,-1.177101 -0.808044,-1.972584 -0.934662,-2.739998c-0.198334,-1.202282 -0.348114,-1.894943 -0.529327,-2.617332c-0.184052,-0.733696 -0.491791,-1.792221 -0.778687,-2.768002c-0.17627,-0.599525 -0.463135,-1.677357 -0.585327,-2.632c-0.092529,-0.72279 -0.232025,-1.860676 -0.386993,-2.52c-0.164185,-0.698566 -0.315887,-1.430077 -0.959656,-2.651997c-0.29425,-0.558514 -0.885223,-1.273655 -1.194672,-1.810669c-0.668671,-1.160385 -0.856628,-1.86657 -1.037354,-2.545334c-0.313721,-1.1782 -0.354767,-2.007786 -0.667999,-3.008331c-0.230652,-0.736786 -0.543518,-1.356449 -0.694641,-2.363667c-0.124603,-0.830421 -0.127594,-1.723125 -0.305695,-2.614834c-0.183685,-0.91972 -0.395844,-1.547592 -0.944977,-2.866501c-0.301483,-0.72414 -0.658905,-1.458565 -0.833344,-1.833332c-0.347748,-0.747131 -0.989685,-2.173973 -1.238342,-2.838335c-0.230591,-0.616135 -0.474976,-1.474998 -0.676331,-2.474998l-0.074646,-0.84l-0.010681,-1.0895" fill="none" id="svg_49" stroke="#000000" stroke-dasharray="null" stroke-linecap="null" stroke-linejoin="null" stroke-width="5"/>
  <path d="m387.38678,315.749687c0,-0.886665 -0.376495,-1.998878 0.22168,-2.757164c0.458557,-0.581276 1.598602,-0.713486 2.379669,-0.958832c0.784241,-0.246353 1.784668,-0.229424 2.641479,-0.636665c0.810028,-0.384995 1.571594,-0.633362 2.52652,-0.648666c0.751648,-0.012047 1.560333,-0.02964 2.546661,-0.282669c0.694794,-0.178246 1.84967,-0.556091 2.636658,-0.667831c0.821014,-0.11657 1.908386,-0.333176 2.585663,-0.753502c0.644501,-0.399971 1.415649,-1.15255 2.123016,-1.273331c0.869171,-0.148407 1.859497,-0.021339 2.655975,-0.021339c0.997345,0 1.872009,0 2.882507,0l0.779327,0l0.854187,0l0.919312,0" fill="none" id="svg_48" stroke="#000000" stroke-dasharray="null" stroke-linecap="null" stroke-linejoin="null" stroke-width="5"/>
  <path d="m445.38678,257.749691c1.885681,3.547333 1.989319,4.225193 2,5.421665c0.004822,0.539978 -0.001221,1.424999 0,2.744999c0.000671,0.717335 -0.001556,1.459179 0.036011,2.208c0.037201,0.742039 0.244995,2.143311 0.389313,2.810669c0.146332,0.676659 0.328674,1.379364 0.453186,2.557999c0.092712,0.877464 0.103516,1.839951 0.110809,2.350002c0.015442,1.079929 0.010681,2.239998 0.010681,2.849499c0,1.266998 0,1.918499 0,2.577999c0,0.664501 0,1.331001 0,3.3125c0,0.645 0,1.279999 0,1.904999c0,1.220001 0,1.815002 0,2.400002c0,1.695 0,2.239998 0,3.300003c0,0.514999 0,1.514999 0,2.474998c0,1.364998 0,1.799995 0,2.639999c0,0.799995 0,2.279999 0,2.963997c0,0.667999 0,1.692505 0,2.816002c0,0.835999 0,1.276497 0,2.1875c0,0.931 0,2.3125 0,2.757668c0,0.864334 0,1.700668 0,2.516998c0,1.204498 0.010376,2.00206 -0.010681,2.783165c-0.029877,1.107574 -0.125153,2.095581 -0.34198,2.911499c-0.194611,0.732338 -0.512207,1.672737 -0.590179,2.458c-0.078247,0.787994 -0.057159,1.908836 -0.057159,2.742836c0,0.945 0,1.792999 0,2.656334c0,1.01667 0,1.852669 0,2.752831c0,0.785172 0,1.725166 0,2.73317c0,0.755997 0,1.666664 0,2.577332l0.000153,0.910667l0.035858,0.853333" fill="none" id="svg_47" stroke="#000000" stroke-dasharray="null" stroke-linecap="null" stroke-linejoin="null" stroke-width="5"/>
  <path d="m434.38678,287.749687c-0.610657,-1.599998 -1.202667,-2.202663 -1.814331,-2.814331c-0.728333,-0.728333 -1.19101,-1.190998 -1.934998,-1.934998c-0.482666,-0.48267 -1.282684,-1.282677 -1.901337,-1.901337c-0.682678,-0.682674 -1.11734,-1.117332 -1.849335,-1.849331c-0.494659,-0.494667 -1.379791,-1.33588 -1.828003,-1.838669c-0.709595,-0.796005 -1.079132,-1.493645 -1.471985,-2.262665c-0.406097,-0.794926 -0.856537,-1.574154 -1.078522,-2.598835c-0.175079,-0.808071 -0.097748,-1.485504 -0.124146,-2.482498c-0.021118,-0.797176 -0.281525,-2.022686 -0.702667,-2.5075c-0.532257,-0.612705 -1.229126,-1.466583 -1.285675,-2.2715c-0.067261,-0.957352 -0.009003,-1.763668 -0.009003,-2.585667c0,-1.03117 0,-1.931835 0,-2.551334c0,-1.001335 0,-1.801334 0,-2.802666c0,-0.834667 -0.026123,-2.021126 0.021332,-2.824001c0.032562,-0.550703 0.26767,-1.633196 0.688507,-2.322001c0.431732,-0.706669 1.152344,-1.604973 1.53299,-2.405333c0.256073,-0.538385 0.541534,-1.3692 0.955841,-2.360666c0.35318,-0.845177 0.543335,-1.895088 1.022675,-2.5655c0.504028,-0.704966 0.81192,-1.421463 1.445313,-2.121168c0.415314,-0.458813 1.38678,-0.997154 2.094177,-1.342833c1.059601,-0.517782 1.757141,-0.766659 2.403168,-1.0425c0.628632,-0.268412 1.845337,-0.935366 2.436005,-1.381334c0.609924,-0.460495 1.166504,-0.997287 1.799988,-1.379999c1.148376,-0.693763 1.807465,-0.786174 2.757172,-0.839833c1.007965,-0.056952 1.730835,-0.0135 2.500183,-0.0135c0.825317,0 1.714661,0 3.185822,0c0.528839,0 1.639496,0 2.21933,0c0.594849,0 1.8255,0 3.104156,0c0.654175,0 1.313354,0 1.972504,0c1.29834,0 1.927521,0 2.536682,0c1.657501,0 2.584167,0 3,0c1.117493,0 1.804169,0 2.845337,0c0.72699,0 1.817474,0 2.509491,0c1.197327,0 1.90744,-0.035566 2.948151,0.000167c0.832489,0.028584 1.78891,0.289497 2.542023,0.499833c0.79483,0.221991 1.802002,0.379369 2.479156,0.520833c1.182251,0.246984 1.700378,0.522526 2.5,1.020834c0.559448,0.348625 1.59024,1.145372 2.042847,1.562834c0.664307,0.612734 1.467133,1.554632 1.855835,2.079498c0.595978,0.804743 0.961578,1.352798 1.579834,2.394335c0.39679,0.668427 0.815643,1.438084 1.321472,2.1735c0.495605,0.720547 0.925049,1.508179 1.179169,2.268999c0.263123,0.787806 0.381989,1.805859 0.582184,2.7045c0.213043,0.956402 0.651672,1.732494 0.93866,2.316334c0.302826,0.616056 0.779663,1.975931 0.890167,2.711c0.111877,0.744251 0.118591,1.499695 0.276489,2.580666c0.149017,1.020092 0.351257,1.66288 0.480682,2.319332c0.268524,1.362 0.305695,2.104084 0.331818,2.868168c0.026794,0.783382 0.020844,1.979168 0.020844,2.779167c0,0.799999 0,1.599998 0,2.400002c0,1.199665 0,1.990997 0,2.758331c0,0.727333 0,1.998833 0,2.780334c0,0.709499 0,1.944 0,2.740498c0,0.751503 0.000092,1.706501 0,2.720837c-0.000092,0.900333 -0.010223,1.626862 -0.286652,2.567997c-0.218445,0.743729 -0.51181,1.538261 -1.196014,2.261333c-0.588104,0.621502 -1.329987,1.322075 -1.850677,2.137337c-0.335815,0.525772 -0.902588,1.069336 -1.833313,1.833328c-0.506073,0.415428 -1.346954,1.00428 -1.880676,1.457169c-0.807373,0.685104 -1.255219,1.241402 -1.994324,2.042831c-0.514313,0.557693 -1.450043,1.34613 -1.82251,1.578339c-0.781891,0.487457 -1.651978,0.891083 -2.535004,1.259995c-0.431946,0.18045 -1.660278,0.633331 -2.381989,0.909004c-0.965149,0.36866 -1.567627,0.579063 -2.532166,1.235329c-0.672974,0.457886 -2.428101,0.709114 -2.267853,1.508339c0.134003,0.668282 1.403961,0.033279 2.350525,0.294334c0.759186,0.209373 1.569458,0.466301 2.543976,0.917328c0.661285,0.306061 1.532898,1.122772 1.938507,1.798172c0.423096,0.704514 1.051208,1.567825 1.75351,1.836662c0.720093,0.27565 1.721527,0.426941 2.322662,1.013168c0.756805,0.738037 1.365845,1.173607 1.993317,1.813499c0.560791,0.571892 0.992279,1.360863 1.657349,2.192833c0.496918,0.621651 1.353485,1.226852 1.85733,1.564331c0.782715,0.524284 1.578583,1.333542 1.942657,1.829338c0.532898,0.725677 0.9758,1.607391 1.269501,2.497498c0.301727,0.914421 0.606079,1.480736 0.830505,2.673164c0.14978,0.795738 0.069855,1.366455 0.287994,2.412003c0.199982,0.958466 0.558197,1.611275 0.933167,2.587997c0.306274,0.797768 0.59613,1.61528 0.778687,2.657333c0.121002,0.690712 0.120819,1.605339 0.12149,2.604004c0.000549,0.796501 0,1.547997 0,2.666664c0,0.984001 0,1.6605 0,2.436005c0,1.047997 0.000061,1.989326 0,2.667328c-0.000092,0.968506 0.091766,1.774773 -0.085327,2.778c-0.17334,0.982086 -0.768524,1.620903 -1.210175,2.426506c-0.396179,0.722626 -0.604889,1.745117 -0.729828,2.542831c-0.125702,0.802597 -0.398041,1.622536 -0.736328,2.257164c-0.524445,0.983871 -1.067078,1.773186 -1.449005,2.317497c-0.383423,0.546471 -1.190613,1.535271 -1.747681,2.18367c-0.474335,0.552109 -0.998657,1.641983 -1.896332,1.960327c-0.657776,0.233261 -1.531158,0.236084 -2.462646,0.934677c-0.510254,0.38269 -0.86496,1.009369 -2.016022,1.813324c-0.601166,0.419891 -1.332642,0.680115 -2.087982,0.912003c-0.775635,0.238113 -1.9776,0.524124 -2.769684,0.716843c-0.766632,0.186523 -1.489716,0.375626 -2.765839,0.583328c-0.757935,0.123367 -1.622162,0.208939 -2.290497,0.826492c-0.57016,0.526855 -1.227783,1.200348 -2.157166,1.285675c-0.995331,0.091385 -1.65799,0.009003 -2.451477,0.009003c-1.008179,0 -1.806519,0 -2.664856,0c-0.878326,0 -2.145813,0 -2.907166,0c-0.689331,0 -1.606476,0.036469 -2.65033,-0.000504c-0.881622,-0.031235 -1.781158,-0.480804 -2.173492,-1.057495c-0.439758,-0.646423 -1.058685,-1.494507 -2.009491,-1.876678c-0.513306,-0.206314 -1.606049,-0.699631 -2.053345,-1.203995c-0.488922,-0.5513 -0.837494,-1.256012 -1.685333,-2.528c-0.383484,-0.575333 -0.804932,-1.067841 -1.399994,-1.781494c-0.806915,-0.967743 -1.202881,-1.510193 -1.62085,-2.07267c-0.434631,-0.584915 -1.145477,-1.479454 -1.660492,-2.080505c-0.522339,-0.609612 -1.085724,-1.195168 -1.463989,-1.883995c-0.732849,-1.33448 -0.767365,-2.140106 -0.894684,-2.889336c-0.126007,-0.74144 -0.375153,-1.815201 -0.665314,-2.459167c-0.406219,-0.901497 -0.961334,-1.832832 -1.253021,-2.624496l-0.052338,-0.931l-0.489319,-0.610672" fill="none" id="svg_46" stroke="#000000" stroke-dasharray="null" stroke-linecap="null" stroke-linejoin="null" stroke-width="5"/>
  <path d="m518.38678,249.749689c0,1.700001 0,2.5625 0,3.5c0,0.8715 0,1.562502 0,2.313501c0,1.186501 0,1.987831 0,2.797165c0,0.825336 0,1.674667 0,3.010334c0,0.922668 0,1.382999 0,2.281666c0,0.842667 -0.019287,1.933777 0.010681,2.821335c0.028198,0.834816 0.20929,2.140556 0.273315,2.530666c0.138367,0.843159 0.305939,1.739124 0.432007,2.664001c0.184967,1.35696 0.210266,1.795403 0.247986,2.645332c0.036591,0.824909 0.035339,1.634666 0.036011,2.835999c0.000458,0.800003 0,1.600002 0,2.400002c0,1.200001 0.006409,2.001457 -0.010681,2.810665c-0.017426,0.825542 -0.052948,1.677055 -0.210663,3.011002c-0.055084,0.465958 -0.208038,1.424404 -0.353333,2.424999c-0.074738,0.514702 -0.262878,2.119675 -0.303986,2.6745c-0.041595,0.561203 -0.095306,1.693535 -0.121338,2.258003c-0.05127,1.111069 -0.045807,1.655418 -0.221344,3.178001c-0.10791,0.935997 -0.207245,1.380943 -0.353333,2.2575c-0.144562,0.867462 -0.309601,2.20591 -0.339996,2.666664c-0.060852,0.921982 -0.078674,1.821297 -0.083984,2.664001c-0.006866,1.090309 0.050568,1.970253 -0.115662,2.698334c-0.229614,1.005661 -0.75119,1.789993 -1.071014,2.366997c-0.656616,1.184601 -0.952271,1.781891 -1.293823,2.710167c-0.232086,0.630768 -0.525757,1.644485 -0.720856,2.365837c-0.20517,0.758614 -0.405365,1.558739 -0.599976,2.399994c-0.30835,1.332901 -0.408508,1.796753 -0.589355,2.749336c-0.184692,0.972809 -0.280853,1.465263 -0.444,2.963997c-0.054291,0.498764 -0.117188,1.490746 -0.145813,2.458336c-0.013885,0.469566 -0.002167,1.371147 -0.021332,2.598503c-0.016541,1.060829 0.058868,1.760895 -0.499512,2.776497c-0.438293,0.797195 -1.079834,1.125229 -1.64801,1.935997c-0.574158,0.819313 -0.711487,1.541031 -0.78949,2.272339c-0.081573,0.764557 -0.058441,1.958344 -0.063843,2.756996c-0.005341,0.790703 0.025604,1.571945 -0.165314,3.034668c-0.089294,0.68425 -0.258667,1.32 -0.480682,2.205002l-0.231659,1.040001l-0.162659,0.879997" fill="none" id="svg_45" stroke="#000000" stroke-dasharray="null" stroke-linecap="null" stroke-linejoin="null" stroke-width="5"/>
  <path d="m547.38678,339.749687c-0.071991,-2.625328 -0.45282,-3.314377 -1.041656,-4.083328c-0.373627,-0.487915 -0.982056,-1.404678 -1.356995,-2.175339c-0.41748,-0.858131 -0.599457,-1.338966 -0.944183,-2.369164c-0.181885,-0.543571 -0.500336,-1.70327 -0.775818,-2.942833c-0.142792,-0.642555 -0.273682,-1.302139 -0.423004,-1.971001c-0.151947,-0.680511 -0.303986,-1.373474 -0.513,-2.060997c-0.644104,-2.118614 -0.993439,-2.801704 -1.303345,-3.506332c-0.314056,-0.714081 -0.646698,-1.430611 -0.966003,-2.163002c-0.322754,-0.74028 -0.667969,-1.483818 -1.175995,-3.061333c-0.258423,-0.802414 -0.454651,-1.632889 -0.637512,-2.472c-0.183868,-0.84362 -0.341278,-1.69474 -0.502502,-2.543999c-0.160492,-0.845406 -0.295319,-1.690018 -0.693329,-3.317337c-0.194275,-0.794373 -0.429352,-1.566139 -0.676483,-2.323502c-0.244934,-0.750671 -0.509827,-1.489433 -0.775513,-2.224495c-0.265289,-0.73394 -0.547272,-1.462776 -1.048004,-2.952003c-0.252899,-0.752113 -0.485077,-1.516228 -0.709503,-2.286003c-0.224945,-0.771576 -0.437927,-1.546898 -0.646484,-2.321999c-0.207794,-0.772232 -0.406647,-1.542038 -0.810669,-3.058662c-0.198517,-0.745186 -0.398376,-1.478737 -0.59549,-2.2005c-0.193604,-0.7089 -0.38446,-1.403458 -0.568512,-2.083504c-0.179596,-0.663628 -0.359619,-1.308399 -0.669342,-2.549332c-0.289673,-1.16061 -0.411804,-1.718483 -0.53067,-2.261333c-0.229828,-1.04969 -0.332397,-1.562817 -0.635986,-3.071999c-0.200623,-0.997215 -0.295868,-1.491863 -0.5,-2.458336c-0.196045,-0.928177 -0.27243,-1.378063 -0.600159,-2.598499c-0.28656,-1.067215 -0.467407,-1.721867 -1.066498,-2.776501c-0.285858,-0.503235 -0.877899,-1.158672 -1.349335,-1.935997c-0.512512,-0.845039 -0.747955,-1.533081 -0.942352,-2.251503c-0.294067,-1.086666 -0.426453,-2.156887 -0.488983,-2.817497c-0.086517,-0.914234 -0.186066,-2.004627 -0.405334,-2.700001c-0.256378,-0.813084 -0.590179,-1.709 -0.647339,-2.628334l0,-0.833332l0,-0.978333" fill="none" id="svg_44" stroke="#000000" stroke-dasharray="null" stroke-linecap="null" stroke-linejoin="null" stroke-width="5"/>
  <path d="m509.38678,316.749687c1.825348,0 2.833405,0.010605 3.695496,0c0.846344,-0.010414 1.847046,-0.222359 2.565826,-0.425331c0.790192,-0.223137 1.813385,-0.492897 2.697021,-0.553833c0.873169,-0.060219 1.666992,-0.020836 2.694336,-0.020836c0.694641,0 1.715057,0.007813 2.347321,-0.5c0.576111,-0.462715 1.545227,-0.457436 2.250671,-0.521332c0.988586,-0.089546 1.804535,-0.523682 2.291992,-1.127998c0.662354,-0.821159 1.498993,-0.85067 2.312012,-0.85067c0.686981,0 1.978668,0 2.683655,0c0.800018,0 1.781219,-0.062065 2.503326,-0.5c0.779327,-0.472641 1.479187,-0.479164 2.625,-0.5l0.791687,0l0.846161,0" fill="none" id="svg_43" stroke="#000000" stroke-dasharray="null" stroke-linecap="null" stroke-linejoin="null" stroke-width="5"/>
  <path d="m534.38678,245.745436c1.84668,0 2.686737,-0.000095 3.687988,0.000012c0.874664,0.000094 1.533356,0.000298 2.645355,0.001497c0.839569,0.000906 1.738403,0.002356 2.208313,0.003019c0.966858,0.001363 2.457794,0.003078 2.958679,0.003428c1.007721,0.000703 1.520844,0.000835 2.571655,0.001004c0.542267,0.000087 2.261353,0.000097 2.871185,0.000097c0.628815,0 1.275665,0 2.619324,0c0.694824,0 1.403656,0 2.125488,0c1.478699,0 2.233337,0 2.996033,0c0.768616,0 1.541321,0 2.315979,0c0.774658,0 1.547363,0 2.315979,0c1.517334,0 2.996033,0 3.717834,0c0.708862,0 1.403687,0 2.083496,0c0.663879,0 2.549377,0 3.140015,0c0.574646,0 1.692017,0 2.242676,0c1.105347,0 1.66803,0 2.833313,0c1.233337,0 1.867493,0 2.506714,0c1.273315,0 1.897461,0 2.506653,0c1.688477,0 2.194641,0 3.123962,0c0.825378,0 1.554688,0 2.76001,0c0.748535,0 1.936035,0 2.717529,0c0.790466,0 1.90918,0 2.702515,0c0.892151,0 1.610657,0 2.401123,0c1.026489,0 1.907104,-0.000316 2.927002,0.000002c0.832458,0.000259 1.78894,0.002622 2.541992,0.004527c0.794861,0.00201 1.791687,0.004051 2.668518,0.004432c1.009583,0.000438 1.810669,0.000097 2.810669,0.000097c0.789307,0 1.514648,0 2.5,0l0.982666,0l0.807495,0" fill="none" id="svg_42" stroke="#000000" stroke-dasharray="null" stroke-linecap="null" stroke-linejoin="null" stroke-width="5"/>
  <path d="m570.38678,317.749687c0,-1.799995 0,-2.635994 0,-3.486664c0,-0.760002 0,-1.935165 0,-2.770668c0,-0.625336 0.002808,-1.314674 -0.000183,-2.485664c-0.002258,-0.871346 -0.016174,-1.798828 -0.035828,-2.278336c-0.040222,-0.981743 -0.181824,-2.479439 -0.247986,-2.981331c-0.134338,-1.019615 -0.223328,-1.538017 -0.363342,-2.611671c-0.072449,-0.555847 -0.199341,-1.718185 -0.267334,-2.953667c-0.035034,-0.636986 -0.052856,-1.282585 -0.064514,-1.931999c-0.023315,-1.294556 -0.020142,-1.931999 -0.020813,-3.166664c-0.00061,-1.162666 0,-1.719002 0,-2.791664c0,-0.520332 0,-1.539001 0,-2.541672c0,-0.99733 0,-1.978664 0,-2.458332c0,-0.92733 0,-2.208332 0,-2.970997c0,-0.698669 0,-1.661667 0,-2.870502c0,-0.595665 0,-1.464165 0,-2.533501c0,-0.94133 -0.006226,-1.619354 0.000183,-2.587997c0.00531,-0.80405 -0.012634,-1.639526 0.22113,-2.657333c0.215454,-0.938129 0.553589,-1.595413 0.693359,-2.605335c0.112183,-0.810818 0.084656,-1.632 0.085327,-2.632c0.00061,-0.909332 0,-1.850666 0,-2.636665c0,-0.821999 -0.053406,-1.8834 0.021362,-2.821999c0.054321,-0.682182 0.404297,-1.655506 0.829285,-2.440002c0.287292,-0.530331 1.007507,-1.618752 1.127991,-2.363998c0.150452,-0.930328 0.021362,-1.905334 0.021362,-2.596001l0,-1.068167" fill="none" id="svg_41" stroke="#000000" stroke-dasharray="null" stroke-linecap="null" stroke-linejoin="null" stroke-width="5"/>
  <path d="m619.38678,251.749689c0.352661,2.027834 0.533569,2.597841 0.716003,3.658667c0.143982,0.837189 0.204285,1.799728 0.226807,2.321835c0.048462,1.123207 0.048889,1.72348 0.052673,2.347332c0.012146,2.00547 0.004517,2.715168 0.004517,3.442833c0,0.743668 0,1.501335 0,2.271c0,0.779667 0,1.567333 0,2.361c0,1.597336 0.000793,2.397671 -0.001343,3.200001c-0.002197,0.806339 -0.006897,1.618702 -0.01947,2.438999c-0.012756,0.830376 -0.030701,1.672874 -0.064514,2.529003c-0.069641,1.763165 -0.133362,2.672012 -0.198669,3.595997c-0.06604,0.934361 -0.141174,1.873352 -0.216003,2.8125c-0.074463,0.934185 -0.151245,1.858047 -0.216003,2.767502c-0.124817,1.752811 -0.166016,2.588512 -0.198669,3.396c-0.031555,0.781204 -0.051697,1.53862 -0.064514,2.274002c-0.012451,0.715294 -0.017517,1.412659 -0.01947,2.093994c-0.003723,1.322662 -0.000488,1.967667 -0.002686,2.602669c-0.002136,0.625008 -0.005066,1.240082 -0.01947,1.845001c-0.028076,1.180229 -0.044617,1.756622 -0.145874,2.875c-0.098083,1.083252 -0.183899,1.609795 -0.333313,2.645836c-0.073608,0.510315 -0.242371,1.516884 -0.378479,3.020332c-0.044922,0.495789 -0.093079,1.468323 -0.11084,2.392502c-0.016357,0.851891 0.011047,1.944206 -0.021362,2.810661c-0.027771,0.741943 -0.19989,1.721344 -0.414673,2.512001c-0.211426,0.778435 -0.530701,1.811264 -0.573303,2.582664c-0.052917,0.958382 -0.001343,1.855339 -0.001343,2.718674c0,0.963165 0.146667,1.796455 -0.002686,2.685333c-0.169067,1.006271 -0.702637,1.451332 -1.291992,2.145996l-0.591003,0.8955l-0.114319,0.85717" fill="none" id="svg_40" stroke="#000000" stroke-dasharray="null" stroke-linecap="null" stroke-linejoin="null" stroke-width="5"/>
  <path d="m665.38678,242.749689c-1.857361,0 -2.51886,-0.00691 -3.643677,0.000334c-0.688721,0.004436 -1.482544,0.027039 -2.393982,0.114c-0.507141,0.048391 -2.248901,0.32473 -2.902344,0.455c-0.684937,0.136553 -1.393494,0.291191 -2.122498,0.4515c-0.744324,0.163675 -1.49762,0.334337 -2.257507,0.4965c-1.511902,0.322649 -2.257019,0.466476 -2.990662,0.596001c-1.419495,0.250608 -2.10553,0.348478 -2.770691,0.440001c-0.642212,0.08836 -2.418213,0.285206 -2.954163,0.325165c-0.99231,0.073984 -1.456299,0.093227 -2.332458,0.110834c-0.827881,0.016636 -2.031494,0.010666 -2.818542,0.010666c-1.105469,0 -1.757446,0 -2.946472,0c-0.748352,0 -1.713684,0 -2.55365,0c-0.996033,0 -1.792542,-0.003653 -2.544006,0c-1.097412,0.005335 -1.970703,0.284 -2.654663,0.716002l-0.929321,0.247999l-0.852051,0.035999l-0.854126,0" fill="none" id="svg_39" stroke="#000000" stroke-dasharray="null" stroke-linecap="null" stroke-linejoin="null" stroke-width="5"/>
  <path d="m615.38678,316.749687c2.589355,0.036003 3.402039,0.501053 4.05603,0.716003c0.966553,0.317688 1.638489,0.216537 2.643127,0.393829c0.977905,0.172585 1.788757,0.607269 2.551514,1.039505c0.512878,0.290642 1.716858,0.705391 2.421326,0.778664c0.747009,0.077698 1.53064,0.070663 2.727661,0.071999c0.791321,0.000877 1.558655,0 2.6297,0c0.928162,0 1.730652,-0.000053 2.533142,0c1.301819,0.000084 2.104553,0.001518 2.534851,0.010666c0.898804,0.019104 1.824524,0.045685 3.181335,0.21067c0.438538,0.053322 1.295166,0.208527 2.146667,0.353333c0.857849,0.145897 2.195557,0.309776 2.65863,0.340004c0.940613,0.061409 1.890625,0.078651 2.832031,0.084c0.917297,0.005211 1.798645,0.001328 2.64801,0.001328c0.825317,0 1.634644,0 2.835632,0c0.791321,0 1.558655,0 2.286011,0c1.271667,0 2.06366,0 2.819641,0c1.137695,0 1.809021,0 2.536377,0c0.767334,0 1.958374,0.006035 2.755676,-0.001328c1.161072,-0.010719 1.896057,-0.000443 2.869324,-0.165337c0.823669,-0.139557 2.248901,0.115997 2.567139,-0.776169c0.022766,-0.063881 -0.933838,-0.057167 -1.754639,-0.057167c-0.963196,0 -1.826538,0 -2.722046,0l-0.957153,0" fill="none" id="svg_38" stroke="#000000" stroke-dasharray="null" stroke-linecap="null" stroke-linejoin="null" stroke-width="5"/>
  <path d="m664.38678,314.749687c0,-2.6045 0.006226,-3.457184 -0.000183,-4.421333c-0.00531,-0.804054 0.009583,-1.638824 -0.22113,-2.657494c-0.21698,-0.958099 -0.538208,-1.683517 -0.657166,-2.563835c-0.135437,-1.002518 -0.115112,-1.706619 -0.120178,-2.389336c-0.00885,-1.199966 -0.001343,-1.968002 -0.001343,-2.736c0,-1.202667 0,-1.903999 0,-2.653336c0,-0.781334 0.006042,-1.978394 -0.004517,-2.769661c-0.010254,-0.767441 -0.03009,-1.847198 -0.216797,-2.766167c-0.160828,-0.791527 -0.552612,-1.715714 -0.693359,-2.725502c-0.110291,-0.791458 -0.084656,-1.548004 -0.085327,-2.677334c-0.000427,-0.693333 0,-1.693333 0,-2.326668c0,-1.012501 0,-1.98 0,-2.807999c0,-0.756001 0.017578,-1.838985 -0.008972,-2.819668c-0.019714,-0.727802 -0.044006,-1.507591 -0.324341,-2.685665c-0.192993,-0.811069 -0.520874,-1.598686 -0.81604,-2.400002c-0.147095,-0.399349 -0.552917,-1.593548 -0.679993,-2.396c-0.179688,-1.134624 -0.166138,-1.832474 -0.170654,-2.939499c-0.003357,-0.832493 0.024292,-1.784515 -0.352661,-2.573502c-0.325439,-0.681114 -0.609436,-1.699917 -0.636658,-2.476334c-0.036743,-1.047413 -0.010681,-1.761997 -0.010681,-2.667332c0,-0.968666 0,-1.772667 0,-2.594666c0,-1.031334 0,-1.727333 0,-2.636669c0,-1 0,-1.816 0,-2.632c0,-0.998665 0,-1.873333 0,-2.883999c0,-0.800001 0,-1.800001 0,-2.610666c0,-0.646502 0,-1.872 0,-2.668501c0,-0.751499 0,-1.711 0,-2.6875c0,-0.854166 0,-1.833334 0,-2.622667l0,-1.043999l0,-0.756001l0,-0.910666" fill="none" id="svg_37" stroke="#000000" stroke-dasharray="null" stroke-linecap="null" stroke-linejoin="null" stroke-width="5"/>
  <path d="m618.38678,241.749689c0.914673,0.286667 1,1.166668 1,2.020834c0,0.979166 0,1.789833 0,2.436333c0,1.226833 0,1.768167 0,2.590168c0,1.265999 0,1.910999 0,2.931499c0,0.830999 0,1.789167 0,2.521166c0,1.166666 0,1.958334 0,2.804502c0,1.01683 0,1.695499 0,2.674c0,0.820164 0,1.7215 0,2.657497l0,0.848l0,0.863335" fill="none" id="svg_36" stroke="#000000" stroke-dasharray="null" stroke-linecap="null" stroke-linejoin="null" stroke-width="5"/>
  <path d="m615.38678,245.749689c2.589355,0 3.5,0 4.410645,0c0.910706,0 1.764038,0 2.704041,0l0.885315,0l0.799988,0l0.835999,0" fill="none" id="svg_35" stroke="#000000" stroke-dasharray="null" stroke-linecap="null" stroke-linejoin="null" stroke-width="5"/>
 </g>
</svg>