<?xml version="1.0"?>
<svg width="768" height="768" xmlns="http://www.w3.org/2000/svg" xmlns:svg="http://www.w3.org/2000/svg">
 <defs>
  <clipPath clipPathUnits="userSpaceOnUse" id="clipPathFlag">
   <rect fill="#000000" fill-opacity="0.67" height="511" id="rect3918" ry="57" width="511" x="-5.5" y="-91.5"/>
  </clipPath>
  <clipPath clipPathUnits="userSpaceOnUse" id="clipPath5796">
   <rect fill="none" height="512" id="rect5798" ry="57" stroke="#00fa00" stroke-width="20" width="512" x="-6" y="-92"/>
  </clipPath>
 </defs>
 <metadata>image/svg+xmlOpenclipartad2011-08-21T12:00:49country flag buttons (with ISO-3166-1 naming convention)https://openclipart.org/detail/155971/ad-by-koppikoppiISO3166-1buttoncountryflagflagssquared</metadata>
 <g class="layer">
  <title>Layer 1</title>
  <g id="svg_50"/>
  <path d="m411.720636,174.517834c-0.183003,2.501397 -1.607511,4.073541 -1.401927,6.86874c-2.529113,-2.143801 -5.253461,-4.145485 -7.7153,-6.341738c0.665209,-1.831924 7.387871,-1.176273 9.12052,-0.527356l-0.003293,0.000354zm-209.006548,5.2849c0.700022,0 1.401927,0 2.104301,0c0.297792,1.105746 -0.481736,1.399903 -0.700022,2.115094c-1.233037,-0.126168 -1.597632,-0.90976 -1.401927,-2.115094l-0.002352,0zm3.507639,17.436768c-1.229273,1.013246 -0.826102,3.252028 -3.504816,3.169806c-0.509492,-2.319586 1.509658,-2.74062 3.504816,-3.169806zm-2.804794,5.810838c1.361939,-0.210517 1.026982,2.405707 -0.700022,1.584194c0,-0.351925 0,-0.704204 0,-1.056129c0.600288,0.097107 0.661916,-0.203075 0.700022,-0.527356l0,-0.000709zm0,45.438375c1.233037,0.127586 1.597632,0.90976 1.401927,2.112968c-0.814811,-0.085412 -1.248561,0.117663 -1.401927,0.527356c-1.640442,-0.134674 -0.403642,-2.319941 0,-2.640324zm253.189344,10.568028c-0.106321,1.313428 -2.374807,0.154167 -2.807617,0c0.632749,-1.767068 1.568935,-0.461791 2.807146,0l0.00047,0zm-249.681705,5.283837c-1.051915,0.615957 -1.714773,1.526426 -3.504816,1.585257c-0.100205,-1.486378 1.718066,-1.523591 3.504816,-1.585257zm-3.507639,10.039609c2.94828,0.695344 -0.000941,1.734108 0,3.169806c-1.97634,-0.532318 0.193823,-2.245161 0,-3.169806zm321.225122,4.755063c0,-0.351925 0,-0.705622 0,-1.056129c0.467622,0 0.936656,0 1.401927,0c0,0.351925 0,0.705622 0,1.056129c-0.467622,0 -0.934775,0 -1.401927,0zm-321.225122,8.980644c1.134243,-0.14885 1.207633,0.499712 2.104301,0.527356c-0.130784,0.427413 -0.704256,0.527002 -0.700022,1.056129c-0.467622,0 -0.936656,0 -1.401927,0c0,-0.527356 0,-1.056129 0,-1.584549l-0.002352,0.001063zm-0.702845,8.984897c0.941831,0.348735 1.306897,1.129137 1.401927,2.115094c-2.110417,0.5309 -1.244327,-1.178399 -1.401927,-2.115094zm0,7.923097c1.201987,0.912595 2.755397,-0.777212 2.807617,1.585257c-1.112603,-0.045364 -2.675422,0.254463 -2.807617,-0.527356c0,-0.352279 0,-0.705622 0,-1.056129l0,-0.001772zm155.000856,10.566965c1.282904,-1.602623 2.147112,1.502681 2.104301,2.640678c-1.641383,-0.172596 -0.682616,-2.303638 -2.104301,-2.640678zm13.328181,7.928059c0.817634,0.792451 2.025737,1.292164 2.104301,2.640678c-2.191804,0.239578 -2.241201,-1.129137 -2.104301,-2.640678zm-163.41806,37.512442c1.026511,0.461791 2.71588,0.419262 2.104301,2.115094c-0.700022,0 -1.401927,0 -2.104301,0c0,-0.705622 0,-1.4077 0,-2.115094zm166.223325,-188.099136c2.648136,4.529661 12.937242,0.884951 17.535843,3.170515l-1.051915,0.61454l0.34907,0.969654c-1.597632,-0.147433 -2.634963,0.126168 -2.807146,1.056129c3.606903,1.006867 6.809223,0.290258 9.818661,-0.527356c3.352863,1.880832 6.12943,4.190495 6.312433,8.454706c4.282462,-0.827183 8.978446,-1.338591 14.728697,-1.056129c2.814673,-2.296196 2.725759,-6.782974 2.104301,-8.982062c13.679134,-1.20179 28.789361,-0.188898 41.381296,1.056129l-0.34907,0.969654l1.051915,0.61454c-0.688261,0.7159 -1.869549,1.056129 -2.807617,1.585257l-0.817634,-0.792451l-1.287138,0.262615c-1.111662,-0.484473 -2.675422,-0.782174 -2.804794,0c0.683086,0.014176 0.544775,0.646082 0.700022,1.056129c0.467622,0 0.936656,0 1.401927,0c0.700022,-1.056129 1.519538,-0.262969 1.519538,-0.262969l1.286197,-0.262969c0.499613,2.638197 3.250306,-0.676206 3.505287,-1.585257l1.051915,-0.61454l-0.34907,-0.969654c1.982456,-0.437691 1.815448,0.744252 3.504816,0.527356l-0.34907,0.969654l1.051915,0.61454c-2.651429,2.202632 5.483509,2.920659 6.311963,1.056129c-1.798512,-0.055642 -3.342983,-0.299119 -4.207661,-1.056129l1.051915,-0.61454l-0.34907,-0.969654c3.7725,0.50432 8.014033,0.655651 12.623455,0.527356c0.134077,-0.427413 0.704256,-0.527002 0.700022,-1.056129l1.051915,0.262969l1.051915,-0.262969c0.934775,0.529482 2.118885,0.87113 2.804794,1.584549c4.00584,0.553228 4.104163,-1.839012 7.013867,-2.112968c3.718869,2.65769 12.612634,4.713243 16.833468,1.056129c0.459154,2.853676 5.730492,0.218668 9.818661,1.056129c1.059913,3.329289 6.838391,3.621673 9.81819,5.284546c1.156825,0.64431 0.870324,1.732336 2.10336,1.584194c-1.623506,3.883934 0.405994,10.520892 -2.804794,13.210478c5.521144,19.710636 2.315061,39.718264 2.10289,61.820077c-3.664768,-0.118372 -7.000694,0.009215 -9.816779,0.527002c-0.067274,3.045764 1.922709,4.537813 2.804324,6.86874c-9.176973,2.874586 -4.746792,12.940067 2.104301,15.3238c-0.819045,5.018741 0.531603,8.404735 3.504816,10.568383c-2.141937,2.703053 -3.410727,7.045234 -1.401927,10.039609c-2.51547,2.330927 -2.182865,6.809554 -2.10289,11.093967c-2.236967,0.697471 -4.273524,-2.824615 -4.910977,0c-0.206525,3.870112 8.469894,1.997786 10.521035,2.640678c-0.467152,33.814217 0.936656,69.042514 -0.700022,101.973906c-9.063126,-3.180793 -25.463785,-10.181371 -36.470319,-3.698934c1.746763,0.444425 3.755564,0.690383 6.311963,0.527356l-0.3486,0.792451l1.051915,0.262969c-0.970999,0.323927 -0.106321,2.035707 -1.401927,2.112968c-2.159814,0.392682 -1.349237,-1.451292 -3.505287,-1.056129c-6.491673,4.696586 -20.763567,3.027689 -28.052174,0c-5.668394,1.631685 -13.706419,1.018208 -16.832998,-2.112613c-2.698003,0.785009 -4.972135,1.888629 -7.014808,3.169806c-6.759826,-0.514597 -10.940672,0.91543 -16.129682,1.585257c-1.206221,-0.552519 -0.868442,-3.092546 -2.804794,-1.585257l-0.817634,-0.792451l-1.286197,0.262615c-1.482373,-1.25247 -5.770951,-0.152749 -6.312433,1.056129l-1.287138,-0.262615l-0.817634,0.792451c-9.621544,1.379348 -24.065151,-0.869003 -31.560283,2.115094l-1.051915,-0.26545l-1.051915,-0.262615c-1.97634,-0.802375 -2.875361,0.177203 -5.61147,-0.527356c-0.03199,0.903381 0.521253,1.367652 1.401927,1.584549l-0.34907,0.969654l1.051915,0.613831c-3.94233,2.067958 -6.525074,-1.410181 -8.418145,-2.638552c-2.279307,0.045364 -0.494438,3.152794 -3.505287,2.638552c-3.016965,-3.273647 -12.060332,-3.932487 -18.935888,-2.638552c-2.393625,1.202853 3.200909,2.045985 0.700022,3.169806c-3.543863,-0.556063 -4.011956,1.203562 -7.014808,1.056129c-1.852143,-4.063263 -6.125666,-6.304526 -8.418145,-10.039609l-0.700022,-0.26545l-0.700022,0.26545c0.060217,-0.749214 0.115259,-1.497719 -0.700022,-1.585257c0.128902,0.448323 -0.272388,0.498649 -0.700022,0.527356c0,0.351925 0,0.705622 0,1.056129l-0.34907,0.527356l0.34907,0.527356c-2.816555,0.519913 -6.152952,0.646082 -9.818661,0.527356c-2.237908,-0.075134 -2.08219,-1.953839 -4.207661,-2.112613c-2.210151,-0.08045 -0.297321,2.946176 -3.505287,2.112613c-3.362271,-0.45931 -2.925228,-3.783991 -5.61147,-4.755418c-3.152923,-0.261197 -1.969283,2.743456 -3.504816,3.699288c-0.722133,-1.215966 -2.413384,-1.703275 -2.104301,-3.699288c-3.121404,0.115182 -3.131283,2.572987 -4.910977,3.699288c-0.677441,-1.074204 -2.692828,-1.139769 -4.910506,-1.056129l-1.051915,-0.26545l-0.34907,0.792806c-1.430624,-0.295574 -1.375582,-1.589865 -2.807617,-0.527356c-1.935411,-0.227174 -0.659094,1.969079 -2.104301,2.112613c-0.244631,-2.614806 -1.842263,0.440526 -3.504816,0c-0.41164,-1.627077 -0.178769,-3.739691 -2.807617,-3.699643c-1.290431,0.613477 -0.485499,2.802642 -3.504816,2.115094c-1.444737,-0.143889 -0.167478,-2.338724 -2.104301,-2.115094c-0.994521,1.540957 -2.953455,2.353255 -6.312433,2.115094c-1.04674,0.619501 -0.825631,2.193418 -2.807617,2.112613c-0.108202,-2.381962 0.245102,-5.113722 -2.807146,-5.283837c-3.670883,-0.828246 -0.446923,3.538742 -3.504816,3.170515c-3.178798,0.808045 0.372122,-3.451913 -2.807617,-2.640678c-2.765747,-0.146015 -0.202762,3.720553 -2.104301,4.227353c-0.269565,-1.555133 -3.302525,-1.033802 -4.207661,-2.112968l0.34907,-0.792806l-1.051915,-0.262615c0.130784,-0.427413 0.704256,-0.527356 0.700022,-1.056129c-1.740647,-0.078324 -3.402259,-0.097462 -3.504816,1.056129l-1.051915,0.262615l0.34907,0.792806c-5.567718,0.496523 -9.312932,-0.380632 -12.622984,-1.585257c-0.978996,1.519338 1.91283,2.68427 0,3.169806c-2.609089,-2.44292 -7.661199,-0.070881 -10.520565,0.527356c0.195235,-1.378993 0.237104,-2.645994 -2.104301,-2.112968l-1.051915,-0.26545l-0.34907,0.792806c-0.682616,-0.015239 -0.544775,-0.646436 -0.700022,-1.056129c-3.7311,-0.851283 -3.634189,3.92221 -5.61147,2.640324c-1.316776,-0.767643 -0.083739,-3.457229 -1.401927,-4.227353c-2.785976,-0.36681 -7.767049,0.920038 -8.418145,-1.056129c6.268682,-14.160995 -2.45196,-32.978528 3.504816,-48.609953c2.517822,-0.438046 3.393321,1.191158 4.910506,0c-0.548069,-10.100212 1.438151,-18.292304 1.401927,-28.005151c-2.754927,-0.037213 -5.271808,-0.255881 -7.013867,-1.056129c-1.217982,-9.036286 -2.938871,-22.423259 0,-31.174248c2.156991,-0.392682 1.349237,1.451292 3.504816,1.056129c0,-0.352279 0,-0.705622 0,-1.056129l0.95124,-0.642538l-0.247925,-0.94272c1.792396,-0.567404 2.456194,2.273868 3.504816,0.527356c-1.22598,-2.922076 -0.162774,-7.234487 0,-10.039609c-7.590632,-2.356445 -8.907408,-13.405402 -4.207661,-19.020253c-2.577569,-5.809421 -3.72028,-12.695881 -4.910977,-19.550445c-1.137066,0.291322 -3.881643,0.184291 -3.504816,-3.170515c1.689369,-0.214416 1.52189,0.966465 3.504816,0.527356c-2.016798,-3.804901 0.512315,-10.793076 -0.700022,-14.795736c-0.02117,-0.075488 -1.277259,0.058477 -1.401927,0l-0.34907,-0.792451l-1.051915,-0.262969c0,-0.175076 0,-0.352279 0,-0.527356l1.051915,-0.262969l0.34907,-0.792451c0.620047,3.468925 3.056012,0.367873 0,-0.527356l-0.34907,-0.792451l-1.051915,0.262969c-0.416344,-1.685909 1.315365,-1.633457 0,-2.640678c1.25797,-0.066274 1.480961,0.646436 2.807617,0.527356c0.986523,-12.465872 2.427967,-24.589742 2.104301,-38.041925c-0.284619,-1.016436 -2.718703,-0.416072 -2.104301,-2.115094c0.339661,-4.675322 1.579755,-8.674083 2.104301,-13.210478c5.977946,4.340763 18.344538,2.192355 23.143549,-1.584194c0.397056,1.283658 0.600758,2.716875 2.807617,2.638552c4.083934,-0.083285 8.233731,-0.214416 10.521035,1.056129c1.04674,-0.62021 0.825631,-2.19519 2.804324,-2.112613c1.211396,0.31932 -0.05316,2.506358 1.401927,2.640324c1.583989,-2.198025 6.636099,-2.862536 7.013867,0.527356l0.698141,1.584549c-0.2324,0 -0.467622,0 -0.700022,0c0,0.527356 0,1.056129 0,1.584194c0.700022,0 1.401927,0 2.104301,0c0.060217,-0.749214 0.115259,-1.496656 -0.700022,-1.584194l0.34907,-0.969654l-1.051915,-0.615957c3.887288,-3.881807 14.92205,0.75772 19.640144,-2.115094c3.30817,1.713552 10.028009,2.212201 11.924844,-0.527356c5.832579,7.53077 26.268716,0.919683 36.47126,5.284546c1.63762,-0.527356 0.852917,-2.879548 2.104301,-3.699288c2.553106,0.163381 4.564729,-0.083285 6.312433,-0.527356c0.702845,-0.704204 1.156354,-1.596244 2.104301,-2.112968l0.815281,0.792451l1.287138,-0.262969c2.255784,1.835114 0.283208,-3.986003 2.804794,-3.699288c2.64202,0.34271 7.407159,1.161388 9.818661,0c-0.197587,-0.854473 0.661446,-0.90976 0.700022,-1.585257c0.2324,0 0.467152,0 0.700022,0c0,0.176849 0,0.352279 0,0.527356c3.881643,0.776858 7.657436,1.63133 11.924844,2.115094l-0.34907,0.969654l1.051915,0.61454c-2.456194,1.72383 3.240426,2.437958 4.207661,1.584194c0.03199,-0.903381 -0.521253,-1.367652 -1.401927,-1.584194l0.34907,-0.792451l-0.34907,-0.792451c2.147112,-1.024942 5.714497,-0.980287 7.014337,-2.640678c0.245102,0.000709 0.473738,0.000709 0.70802,0.000709l-0.013172,0.014885zm-29.457393,5.811547c0.700022,0 1.401927,0 2.104301,0c0.037636,-0.908697 -0.540541,-1.355602 -1.401927,-1.584194c0.03199,0.728304 -0.32743,1.159616 -0.700022,1.584194l-0.002352,0zm11.221999,-0.528065c0.704256,-0.000709 0.835511,0.427413 1.401927,0.527356c-0.064921,-0.82931 0.094089,-1.832987 -1.401927,-1.584549c0,0.352988 0,0.705622 0,1.056129l0,0.001063zm25.250673,1.057193c1.686075,-1.270191 -2.299536,-1.368007 -2.104301,-0.527356c-0.003764,-0.037213 2.374807,0.327117 2.104301,0.527356zm48.390458,0.529837c0.467622,0 0.936656,0 1.401927,0c0,-0.351925 0,-0.705622 0,-1.056129c-0.467622,0 -0.936656,0 -1.401927,0c0,0.352988 0,0.705622 0,1.056129zm-192.172138,3.17016c0.02164,-1.602623 -2.46231,-1.316263 -4.207661,-1.585257c-0.406935,1.891818 2.078427,1.603686 4.207661,1.585257zm251.790241,0c0.700022,0 1.401927,0 2.104301,0c0,-0.527356 0,-1.056129 0,-1.585257c-0.700022,0 -1.401927,0 -2.104301,0c0,0.527356 0,1.056129 0,1.585257zm-264.415107,0.526647c0.700022,0 1.401927,0 2.104301,0c0,-0.527356 0,-1.056129 0,-1.584194c-0.700022,0 -1.401927,0 -2.104301,0c0,0.527356 0,1.056129 0,1.584194zm44.185149,1.057901c0.700022,0 1.401927,0 2.104301,0c0,-0.527356 0,-1.056129 0,-1.584549c-0.700022,0 -1.401927,0 -2.104301,0c0,0.527356 0,1.056129 0,1.584549zm64.524845,1.586321c0.100205,-0.624109 1.248561,-1.198601 0,-1.584549c-0.099734,0.624109 -1.249032,1.196829 0,1.584549zm-30.857438,50.721503c-2.041261,-0.456829 -0.786584,-0.789262 -0.700022,-2.112613c-4.189314,-2.52018 -10.096223,-5.452889 -16.129682,-8.455061c-8.368278,-4.16356 -13.917179,-9.289686 -25.951166,-7.925578c-7.129126,0.808045 -11.554603,3.745715 -19.640144,4.755418c5.630758,6.388166 13.257144,11.573478 20.341107,16.907995c20.654894,15.559835 40.466751,32.783959 61.018617,49.137663c2.081249,0.519913 3.461065,0.748505 4.207661,1.056129l-0.34907,0.792451l1.051915,-0.262969c-0.485029,2.990831 3.382501,4.037746 6.312433,6.341738c2.290597,1.799673 3.805901,4.397468 5.61147,5.812256c1.498368,1.175919 6.717486,2.37381 6.312433,5.284546c4.722328,0.929961 6.479911,4.842247 9.818661,7.395387c1.931177,1.475392 5.173015,2.299031 7.013867,3.699288c0.51796,0.397289 0.399878,1.839012 0.700022,2.112613c0.806343,0.732911 2.016798,0.803438 2.807146,1.585257c2.471248,2.456033 5.929961,4.810705 9.117697,7.396805c2.19792,0.875382 1.977751,-2.635716 2.804794,-1.056129c2.139114,0.7159 0.22205,1.467949 0.700022,3.699288c2.265193,1.465823 3.607844,3.621673 6.312433,4.755418c-0.113377,-0.613831 0.156188,-0.940593 0.700022,-1.056129c1.138948,1.957384 2.485832,3.76379 4.910977,4.755063c-0.195235,-1.541311 0.16936,-1.81633 1.401927,-1.056129c1.460262,2.045985 -1.0458,0.862624 -0.700022,3.169806c9.100291,8.153461 21.705869,16.154173 31.560283,24.83251c3.370269,2.96744 7.718594,8.918623 12.624866,11.095384c9.242365,4.10083 30.422276,2.832412 42.781811,2.640324c-0.118082,-1.11567 1.144593,-0.610287 2.10289,-1.585257c4.286696,-4.363445 7.57793,-13.560277 11.22341,-22.190768c3.462476,-8.200243 7.868195,-14.522843 7.013867,-22.191123c-0.072449,-0.65317 -0.977115,-2.709787 -1.401927,-3.169806c-0.229107,-0.245958 -5.901264,-2.758341 -7.7153,-3.699288c-8.853778,-4.594163 -18.154949,-9.155366 -28.052174,-13.210478l0.34907,-0.792451l-1.051915,0.262615c-0.167478,-0.172596 0.218287,-0.940948 0,-1.056129c-44.927512,-23.61548 -91.74386,-45.523432 -136.765932,-69.216173c-1.401927,0 -2.804794,0 -4.207661,0c-1.805098,-4.043062 -6.861442,-4.166041 -9.818661,-4.226999c3.448363,-1.902096 -3.355685,-3.303417 -5.61147,-4.228416l-0.34907,-0.792451l-0.352363,0.792451l-0.002823,0.003544zm154.997563,25.362701c0.247454,0.694635 1.233037,0.830727 1.401927,1.584194c3.587144,-0.907988 3.205613,1.400258 7.013867,2.640678c1.598573,-11.775489 7.324361,-25.661465 7.014808,-35.401247c0.215464,1.07385 -2.026207,-0.108094 -2.104301,-0.527356c1.406631,0.178975 2.196979,-0.105259 2.104301,-1.056129c-6.518018,-4.217075 -12.865734,-9.803929 -22.443997,-10.039609c-7.300368,-0.178975 -16.654229,3.147833 -25.24738,4.755063c-6.621515,1.238294 -13.055794,2.495726 -18.935888,3.699643c-1.933059,0.397289 -5.02012,-0.365038 -5.61147,1.584549c18.776877,10.981974 37.647843,22.475002 56.110934,32.22896l-0.34907,0.792451l1.051915,-0.262969l-0.005645,0.001772zm-180.246354,123.107127c17.732019,1.019271 36.464674,-7.586057 55.406207,-10.568383c-0.746126,-1.103265 -1.782517,-2.892306 -2.807617,-3.698934c0.3486,0.276082 -0.473268,0.660967 -0.700022,0.527356c-5.239818,-3.084749 -9.852533,-8.110932 -15.432483,-12.151159c-15.068829,-10.92208 -32.192091,-23.116476 -47.693729,-33.814217c-5.321676,9.55868 -10.903978,19.875789 -16.832998,30.64512c-1.837559,3.338858 -5.59077,7.694151 -4.910977,10.566611c0.819045,3.462545 17.405059,10.731409 22.443997,14.266962c2.801971,1.965889 5.707911,3.451913 9.818661,4.227353l0.34907,0.792451l0.352363,-0.792806l0.007527,-0.000354zm150.909865,35.665633l1.287138,-0.262969c0.488322,1.954548 -1.111662,2.331991 -3.505287,2.115094c-0.10585,-1.313074 0.362243,-2.192709 1.401927,-2.640678l0.817634,0.792451l-0.001411,-0.003898zm-7.948641,1.056838l0.817634,-0.792451c1.741117,0.68613 2.910174,-1.550171 3.504816,0c0.003764,2.472335 -2.30424,3.197804 -4.910506,3.699643l0.250747,-0.942365l-0.951711,-0.642538c0,-0.527356 0,-1.056129 0,-1.585257l1.287138,0.262615l0.001882,0.000354zm-142.610272,-38.041925l-0.34907,0.26545c0.067274,-1.005449 2.735639,0.327471 2.807617,1.056129c-1.03592,-0.275728 -1.768403,-0.780402 -2.807617,-1.056129l0.34907,-0.26545zm-73.994906,-154.547179c-0.795993,-0.098525 -0.390469,-0.529482 0,-0.527356c0.128902,-0.446906 -0.272388,-0.498295 -0.700022,-0.527356c0.685909,-1.752891 1.388284,0.59044 2.104301,0.527356c-0.247454,0.828246 -1.234448,-0.461791 -1.401927,0.527356l-0.002352,0zm0.348129,-37.778601c0.195235,-2.486511 -0.251218,-4.927659 -0.34907,-7.396805l0.34907,7.396805zm0.002823,0.743898c-0.018818,0 -0.038106,-0.000354 -0.059747,-0.000709c-0.544775,-0.025517 -0.961119,-0.376379 -0.926306,-0.786781c0.121845,-1.561158 -0.020229,-3.153858 -0.15901,-4.692334c-0.077623,-0.859789 -0.157129,-1.753246 -0.193353,-2.637843c-0.016466,-0.411465 0.41164,-0.752758 0.955004,-0.764808c0.553714,-0.019492 0.999696,0.31046 1.015221,0.72157c0.034342,0.856599 0.113377,1.734462 0.19006,2.581138c0.143015,1.585257 0.290265,3.22722 0.159481,4.881941c-0.03199,0.397289 -0.467152,0.701724 -0.985112,0.701724l0.003764,-0.003898zm-0.350952,53.678311c0.13784,-0.112701 0.324137,-0.229655 0.513256,-0.34909c0.557948,-1.105746 -0.279444,-2.224251 -0.165597,-3.34949l-0.347659,3.69858zm0,0.661676c-0.215464,0 -0.427635,-0.058477 -0.595113,-0.177203c-0.357538,-0.246666 -0.378708,-0.668764 -0.049397,-0.937403c0.121845,-0.098525 0.262508,-0.196695 0.40129,-0.285297c0.155247,-0.444425 0.037636,-0.927835 -0.096912,-1.476455c-0.118082,-0.487308 -0.244631,-0.994108 -0.183003,-1.536704c0.035754,-0.365392 0.463388,-0.63226 0.943713,-0.611705c0.484559,0.026935 0.848213,0.3459 0.811988,0.710938c-0.037636,0.372481 0.060217,0.774377 0.160892,1.198601c0.170301,0.706331 0.366006,1.508706 -0.05316,2.336598l-0.081857,0.162672l-0.177828,0.110929c-0.156658,0.097816 -0.31661,0.196695 -0.429987,0.290258c-0.177358,0.142471 -0.410699,0.213352 -0.646392,0.213352l-0.004234,0.001418zm1.403338,12.546322c-0.016466,-0.577682 -0.339661,-0.676206 -0.700022,-0.792451l0.700022,0.792451zm-0.00047,0.567049c-0.406935,0 -0.744244,-0.245958 -0.751301,-0.554291c-0.001411,-0.166216 -0.040929,-0.214416 -0.040929,-0.214416c-0.017406,-0.010278 -0.118082,-0.040048 -0.19053,-0.063084l0.576295,-1.046915c0.40129,0.128295 1.136595,0.360785 1.159647,1.30315c0.003764,0.314004 -0.321784,0.573783 -0.736247,0.577682c-0.001882,-0.000709 -0.012232,-0.000709 -0.016466,-0.000709l-0.00047,-0.001418zm-0.700493,10.530461c-0.125609,-0.527356 -0.272388,-1.056129 -0.34907,-1.585257l0.34907,1.585257zm-0.00047,0.729013c-0.459625,0 -0.867501,-0.246666 -0.95124,-0.600009l-0.093619,-0.380277c-0.099264,-0.406504 -0.205114,-0.82612 -0.267213,-1.253888c-0.056924,-0.400479 0.324137,-0.758074 0.854328,-0.803438c0.532544,-0.047845 1.010046,0.244186 1.06697,0.643955c0.055983,0.372481 0.146779,0.747088 0.245572,1.144377l0.09503,0.391264c0.094089,0.397289 -0.254981,0.774731 -0.783762,0.844195c-0.059747,0.009215 -0.118082,0.012404 -0.171712,0.012404l0.005645,0.001418zm154.650845,153.552008c0.700022,0 1.401927,0 2.104301,0l-2.104301,0zm2.10289,0.817614l-2.104301,0c-0.600288,0 -1.085317,-0.365747 -1.085317,-0.816197s0.485499,-0.817614 1.085317,-0.817614l2.104301,0c0.600758,0 1.085317,0.366456 1.085317,0.817614s-0.485499,0.816197 -1.085317,0.816197zm29.455982,-248.796101c0.467622,0.097107 0.936656,0.137155 1.401927,0.175076l-1.401927,-0.175076zm1.406631,0.990564c-0.040929,0 -0.078564,-0.000709 -0.120434,-0.001772c-0.547128,-0.045364 -1.044388,-0.091437 -1.570816,-0.199885c-0.574884,-0.118017 -0.911723,-0.566695 -0.757417,-1.001197c0.156658,-0.434147 0.75083,-0.690383 1.329948,-0.570593c0.375886,0.078324 0.764003,0.112701 1.232566,0.152395c0.593231,0.047845 1.021807,0.452222 0.955474,0.897356c-0.060217,0.416781 -0.530662,0.726886 -1.073556,0.726886l0.004234,-0.00319zm70.133492,0.948036c0.935245,-0.186417 1.869549,-0.121207 2.807146,0l-2.807146,0zm-0.000941,0.815842c-0.481736,0 -0.922072,-0.242414 -1.051445,-0.610287c-0.155247,-0.437691 0.193353,-0.884243 0.772,-1.00226c1.178936,-0.235325 2.315061,-0.137864 3.269123,-0.015239c0.590409,0.078324 0.987935,0.500067 0.883496,0.945555c-0.101616,0.444425 -0.662857,0.744252 -1.254207,0.665574c-0.757417,-0.098525 -1.566112,-0.16728 -2.341405,-0.015239c-0.093619,0.019492 -0.184885,0.028707 -0.279444,0.028707l0.001882,0.00319zm23.848746,-1.521819c-0.049867,-0.881053 -0.343425,-1.763524 -0.34907,-2.640678l0.34907,2.640678zm-0.000941,0.690383c-0.48597,0 -0.891964,-0.290258 -0.910782,-0.658132c-0.020229,-0.372835 -0.088914,-0.75134 -0.162774,-1.152173c-0.089385,-0.488726 -0.182533,-0.994108 -0.19006,-1.515439c-0.000941,-0.380277 0.403171,-0.689319 0.907018,-0.6918c0.000941,0 0.001411,0 0.002352,0c0.500083,0 0.90937,0.30408 0.910782,0.683294c0.001411,0.428122 0.082328,0.870066 0.170301,1.335756c0.076683,0.414655 0.156188,0.842068 0.181121,1.28224c0.020229,0.380277 -0.370711,0.701724 -0.873146,0.716963c-0.015054,0 -0.025874,0.000354 -0.038106,0.000354l0.003293,-0.001063zm23.144019,239.451836c-1.591045,-0.265804 -3.300173,-0.855181 -4.910036,-0.262969l4.910036,0.262969zm0.000941,0.485536c-0.046104,0 -0.094089,-0.001063 -0.139722,-0.011695c-0.335427,-0.055642 -0.675089,-0.126168 -1.017573,-0.197404c-1.2368,-0.255881 -2.406327,-0.494396 -3.46671,-0.105259c-0.321784,0.118372 -0.705197,0.015239 -0.864208,-0.224339s-0.020229,-0.531254 0.297792,-0.651044c1.496486,-0.548975 3.026374,-0.235325 4.372788,0.042174c0.323666,0.066274 0.643099,0.133611 0.955474,0.185c0.346718,0.058477 0.567357,0.317548 0.488322,0.580162c-0.06351,0.227174 -0.330723,0.380632 -0.628515,0.380632l0.002352,0.001772zm-80.88975,2.420238c0.149602,-0.527356 0.28509,-1.056129 0.467152,-1.584549l-0.467152,1.584549zm0.001411,0.82293c-0.076683,0 -0.152895,-0.001772 -0.230048,-0.015948c-0.589938,-0.094626 -0.964883,-0.531254 -0.837863,-0.974616l0.106321,-0.380277c0.113848,-0.412883 0.230048,-0.827183 0.371652,-1.239712c0.149131,-0.439109 0.746126,-0.702078 1.330419,-0.589377c0.582411,0.112701 0.931952,0.562442 0.783762,1.00226c-0.134077,0.387011 -0.244631,0.774731 -0.3486,1.161742l-0.106791,0.387011c-0.106791,0.384885 -0.562652,0.649272 -1.065088,0.649272l-0.003764,-0.000354zm-15.198671,2.611971c2.302359,0.417136 4.769373,0.417136 6.915544,-0.414655l-6.915544,0.414655zm2.906881,1.045143c-1.006753,0 -2.061961,-0.097816 -3.146808,-0.295929c-0.547128,-0.10136 -0.883026,-0.516724 -0.752242,-0.928189c0.130784,-0.412883 0.683557,-0.669473 1.232096,-0.566695c1.647969,0.301245 4.059942,0.484473 6.204701,-0.34909c0.498672,-0.196695 1.115425,-0.047845 1.375582,0.330306c0.261097,0.376379 0.060687,0.841005 -0.438455,1.036283c-1.328067,0.514952 -2.841489,0.774731 -4.477697,0.774731l0.002823,-0.001418zm4.341738,-3.423206c-0.149131,-0.527356 -0.284619,-1.056129 -0.467152,-1.582777l0.467152,1.582777zm-0.000941,0.820804c-0.502435,0 -0.952651,-0.262969 -1.066499,-0.651398l-0.106791,-0.387011c-0.106321,-0.386657 -0.215464,-0.774731 -0.346718,-1.161388c-0.149602,-0.439109 0.197587,-0.886723 0.783762,-1.002614c0.584763,-0.116954 1.177054,0.14885 1.330419,0.589377c0.139722,0.412883 0.260627,0.827183 0.372122,1.239712l0.106321,0.378505c0.128902,0.444425 -0.247925,0.881053 -0.837863,0.974616c-0.077153,0.012404 -0.155717,0.017366 -0.230048,0.017366l-0.004704,0.002835zm-126.127285,-5.576222c-0.040929,-0.351925 -0.193823,-0.705622 -0.34907,-1.056129l0.34907,1.056129zm0,0.568821c-0.386235,0 -0.71837,-0.223985 -0.752242,-0.51885c-0.033872,-0.279272 -0.156658,-0.573783 -0.31661,-0.927126c-0.130784,-0.299119 0.081387,-0.622337 0.477972,-0.724051c0.397526,-0.098525 0.827983,0.059186 0.961119,0.360076c0.182533,0.411465 0.339661,0.785009 0.386235,1.18726c0.037636,0.313649 -0.268624,0.591503 -0.685909,0.620565c-0.023052,0.000709 -0.046574,0.000709 -0.069155,0.000709l-0.001411,0.001418zm-72.592509,0.488017c0.410699,-0.392682 0.360361,-1.270899 0,-2.115094l0,2.115094zm0,0.538342c-0.156188,0 -0.309553,-0.037213 -0.439396,-0.115182c-0.309553,-0.184645 -0.362243,-0.521331 -0.120434,-0.754176c0.162774,-0.156293 0.237575,-0.77863 -0.118082,-1.617508c-0.120434,-0.280335 0.087973,-0.585124 0.462918,-0.673726c0.378238,-0.088956 0.776705,0.065919 0.895257,0.348735c0.177828,0.415364 0.690613,1.832987 -0.118082,2.610554c-0.139722,0.136446 -0.352834,0.205201 -0.565475,0.205201l0.003293,-0.003898zm-9.218373,-115.044394c-0.41164,-0.146015 -0.855269,-0.410048 -1.301722,-0.680105l1.301722,0.680105zm-0.001411,0.808045c-0.152895,0 -0.305789,-0.025517 -0.45492,-0.076552c-0.506669,-0.178975 -0.987935,-0.458247 -1.519067,-0.778984c-0.462918,-0.280335 -0.532544,-0.787844 -0.165597,-1.136934c0.370711,-0.348735 1.044388,-0.401542 1.505895,-0.122624c0.343425,0.209808 0.770119,0.466044 1.085317,0.577682c0.532544,0.189253 0.766826,0.671954 0.514197,1.073141c-0.182062,0.291322 -0.567357,0.463208 -0.969587,0.463208l0.003764,0.001063zm-8.664659,-67.002199c0.041399,-0.352279 0.193823,-0.705622 0.34907,-1.056129l-0.34907,1.056129zm0,0.620565c-0.023052,0 -0.049867,-0.000709 -0.07386,-0.001063c-0.451627,-0.030833 -0.785173,-0.331015 -0.746126,-0.672662c0.049397,-0.407212 0.205114,-0.785009 0.390469,-1.198601c0.145838,-0.324281 0.608286,-0.500067 1.042036,-0.390201c0.429987,0.11022 0.661916,0.459664 0.51749,0.785009c-0.156658,0.351571 -0.279444,0.642538 -0.310023,0.914013c-0.037636,0.321092 -0.397056,0.564923 -0.815752,0.564923l-0.004234,-0.001418zm0.348129,-2.734241c-0.372122,-0.705622 -0.245102,-1.4077 0,-2.112968l0,2.112968zm0,0.600364c-0.31708,0 -0.614872,-0.143534 -0.743774,-0.380277c-0.473268,-0.896292 -0.282738,-1.757853 -0.03199,-2.485448c0.110555,-0.321092 0.546187,-0.514243 0.970999,-0.429894c0.426223,0.083285 0.683086,0.412174 0.568298,0.732911c-0.193823,0.562796 -0.333075,1.166704 -0.03199,1.740133c0.160892,0.309042 -0.037636,0.657777 -0.446923,0.77863c-0.09503,0.030833 -0.195235,0.04501 -0.296851,0.04501l0.012232,-0.001063zm131.62773,-57.664314c0.207937,-0.705622 0.202762,-1.4077 0.2324,-2.115094l-0.2324,2.115094zm0,0.817969c-0.078564,0 -0.15901,-0.00319 -0.237575,-0.019492c-0.584763,-0.098525 -0.95124,-0.538342 -0.819045,-0.976388c0.156188,-0.516724 0.177358,-1.054357 0.193823,-1.62247l0.015054,-0.338812c0.020229,-0.452576 0.52831,-0.794932 1.122012,-0.787844c0.600288,0.015239 1.06697,0.392682 1.0458,0.844549l-0.013643,0.329597c-0.020229,0.621982 -0.046104,1.268419 -0.246043,1.937891c-0.113848,0.378505 -0.563123,0.638994 -1.059442,0.638994l-0.000941,-0.006025zm26.883118,-2.754442c1.368525,-0.284942 2.808087,-0.133611 4.207661,-0.177203l-4.207661,0.177203zm-0.00047,0.812298c-0.473268,0 -0.907018,-0.238161 -1.042036,-0.598946c-0.15901,-0.433084 0.178769,-0.882116 0.752242,-1.002614c1.094726,-0.228592 2.165929,-0.214416 3.20232,-0.201303c0.416814,0.001772 0.835511,0.011341 1.249032,-0.001063c0.600758,-0.015239 1.09896,0.330306 1.124364,0.77863c0.024463,0.448323 -0.438455,0.82931 -1.033568,0.84703c-0.455861,0.013822 -0.915016,0.010278 -1.3737,0.001418c-0.924425,-0.011341 -1.799453,-0.02091 -2.592153,0.143534c-0.096912,0.02091 -0.195235,0.030833 -0.287442,0.030833l0.000941,0.002481zm97.023196,2.71085c-0.156188,0.351925 -0.310023,0.704204 -0.467152,1.056129l0.467152,-1.056129zm-0.467622,1.89111c-0.115259,0 -0.2324,-0.013822 -0.34907,-0.042883c-0.581,-0.146015 -0.894316,-0.617021 -0.702845,-1.056129l0.467622,-1.056129c0.193353,-0.438046 0.817634,-0.673726 1.401927,-0.529482c0.581,0.146015 0.893375,0.617021 0.702845,1.056129l-0.467622,1.056129c-0.152895,0.351925 -0.588056,0.574137 -1.051915,0.574137l-0.000941,-0.001772zm12.854443,-2.772517c-1.364761,-0.238515 -2.843841,-0.267576 -4.207661,0l4.207661,0zm-4.207191,0.814779c-0.481736,0 -0.922072,-0.244186 -1.04674,-0.611705c-0.149602,-0.437691 0.197587,-0.882471 0.776705,-0.995172c1.460262,-0.285297 3.094118,-0.28955 4.723269,-0.001772c0.584763,0.103132 0.948417,0.53976 0.812459,0.980287c-0.1369,0.438754 -0.709902,0.716609 -1.301251,0.612059c-1.288079,-0.224693 -2.563926,-0.227174 -3.692994,-0.001772c-0.089385,0.019492 -0.182062,0.02658 -0.269565,0.02658l-0.001882,-0.008506zm-210.408004,2.001684c-0.467622,0.097107 -0.936656,0.136446 -1.401927,0.175076l1.401927,-0.175076zm-1.404279,0.998361c-0.548069,0 -1.021807,-0.310105 -1.082494,-0.730785c-0.064921,-0.452222 0.366477,-0.856245 0.964883,-0.905507c0.468563,-0.039339 0.859974,-0.075134 1.233037,-0.152395c0.581,-0.118372 1.181758,0.137155 1.339828,0.575555c0.157129,0.437691 -0.182533,0.888141 -0.764003,1.007576c-0.568298,0.117663 -1.124364,0.162672 -1.570816,0.199885c-0.040929,0.001063 -0.078564,0.001772 -0.120434,0.001772l0,0.003898zm69.436292,108.020779c0.2324,-0.121207 0.467622,-0.243831 0.700022,-0.365038c0.700022,0.08045 1.401927,0.28317 2.104301,0.365038l-2.804324,0zm2.805735,0.312232c-0.019288,0 -0.040929,-0.000709 -0.06351,-0.001418c-0.372122,-0.042883 -0.743774,-0.118017 -1.098019,-0.189253c-0.290265,-0.058477 -0.57065,-0.116954 -0.849624,-0.154167l-0.565946,0.294157c-0.184885,0.097107 -0.439396,0.061312 -0.568298,-0.078324c-0.128902,-0.142471 -0.081857,-0.333142 0.103968,-0.428122l0.835511,-0.434147l0.160892,0.017366c0.372122,0.042883 0.738128,0.118017 1.096137,0.188898c0.3486,0.070881 0.682616,0.137509 1.010046,0.176849c0.22205,0.025872 0.378238,0.184645 0.342955,0.351925c-0.028227,0.152749 -0.203232,0.262615 -0.40129,0.262615l-0.002823,-0.006379zm132.556859,23.993276c-0.397526,0.309396 -0.704256,0.643955 -0.941831,1.000488c0.604992,1.484252 2.957218,2.733178 5.152786,2.699155l-4.210955,-3.699643zm4.122981,4.099413c-2.369632,0 -4.906743,-1.353476 -5.571952,-2.985515l-0.06351,-0.154521l0.096912,-0.145661c0.278504,-0.412174 0.614401,-0.771896 1.033568,-1.096886c0.202762,-0.156293 0.543364,-0.163027 0.752242,-0.009215c0.207937,0.154521 0.216875,0.409339 0.012232,0.566695c-0.290265,0.227174 -0.536307,0.476676 -0.745656,0.753112c0.632749,1.251761 2.713998,2.290879 4.558143,2.262881c0.001411,0 0.003764,0 0.013643,0c0.286972,0 0.52831,0.173659 0.532073,0.392682c0.002352,0.22363 -0.229107,0.404023 -0.521253,0.410048c-0.033872,0.000354 -0.06351,0.000709 -0.099734,0.000709l0.003293,0.00567zm-160.525293,-81.2401c-0.48644,-0.159128 -0.825631,-0.428122 -1.239623,-0.646436c-0.100205,-0.607452 -0.115259,-1.000488 -0.160892,-1.466531l1.400515,2.112968zm-0.000941,0.284942c-0.049867,0 -0.100205,-0.009215 -0.149602,-0.0241c-0.375886,-0.122624 -0.661446,-0.295929 -0.939949,-0.461791c-0.120904,-0.073008 -0.239457,-0.145661 -0.367888,-0.212998l-0.13784,-0.073008l-0.020229,-0.125814c-0.076683,-0.452576 -0.103968,-0.787844 -0.130784,-1.122049l-0.03199,-0.359722c-0.016466,-0.156293 0.139722,-0.294157 0.34907,-0.305852c0.210759,-0.010278 0.39094,0.105259 0.405994,0.262615l0.033872,0.365038c0.023052,0.291322 0.049397,0.585478 0.106791,0.963984c0.089385,0.051034 0.178769,0.104195 0.267213,0.156293c0.247925,0.15204 0.485499,0.291322 0.766826,0.385948c0.19053,0.061667 0.279915,0.229301 0.195235,0.37567c-0.060217,0.107739 -0.202291,0.172596 -0.346718,0.172596l0,0.00319zm152.19371,24.019857c0.384354,-0.351925 0.548069,-0.705622 0.700022,-1.056129l-0.700022,1.056129zm0,0.339521c-0.100205,0 -0.202762,-0.025517 -0.28509,-0.078324c-0.193353,-0.118372 -0.220639,-0.334914 -0.06351,-0.482346c0.321784,-0.295929 0.467152,-0.59044 0.621458,-0.944846c0.077153,-0.178975 0.335427,-0.277145 0.568298,-0.216188c0.237575,0.058477 0.367888,0.250919 0.286972,0.429894c-0.13784,0.315776 -0.325078,0.748505 -0.783762,1.166704c-0.087973,0.08045 -0.217816,0.125105 -0.3486,0.125105l0.004234,0zm-179.546331,123.296734c-0.103968,-0.534798 0.118082,-1.347451 0.700022,-2.115094l-0.700022,2.115094zm0,0.295929c-0.19053,0 -0.359891,-0.105259 -0.386235,-0.252337c-0.125609,-0.649272 0.160892,-1.530679 0.747067,-2.300094c0.106791,-0.142471 0.344836,-0.189253 0.532073,-0.11022s0.251218,0.260488 0.146308,0.401187c-0.604992,0.792451 -0.72919,1.530679 -0.653919,1.923361c0.03199,0.161963 -0.118082,0.310105 -0.32743,0.334559c-0.018347,0.000354 -0.037636,0.000709 -0.055983,0.000709l-0.001882,0.002835zm-29.457393,29.291644c1.551528,0.365038 3.363212,0.417136 4.910506,0l-4.910506,0zm2.535699,0.85908c-0.911723,0 -1.854495,-0.105259 -2.755868,-0.318965c-0.392822,-0.091791 -0.61299,-0.407212 -0.490204,-0.705622s0.544775,-0.461791 0.936656,-0.369291c1.519067,0.355115 3.133165,0.360431 4.434416,0.00319c0.390469,-0.103841 0.814811,0.047845 0.953592,0.34023c0.138311,0.290967 -0.061158,0.613831 -0.449746,0.718381c-0.803991,0.216188 -1.702071,0.327117 -2.626966,0.327117l-0.001882,0.004962zm83.030746,0.991628c0.764003,-0.378505 2.139114,0.028352 2.453371,-0.792451l-2.453371,0.792451zm0,0.400833c-0.170301,0 -0.340132,-0.061667 -0.442218,-0.178975c-0.160892,-0.184645 -0.094089,-0.430958 0.149602,-0.553228c0.405994,-0.201303 0.888671,-0.238515 1.312072,-0.269348c0.692025,-0.048908 0.849624,-0.103132 0.926306,-0.302308c0.081387,-0.213352 0.375886,-0.334914 0.656271,-0.271829c0.282738,0.059186 0.444571,0.280335 0.362243,0.494396c-0.290265,0.76339 -1.226921,0.82931 -1.844145,0.875382c-0.32743,0.0241 -0.642628,0.047845 -0.828454,0.139282c-0.089385,0.045364 -0.19053,0.066274 -0.290265,0.066274l-0.001411,0.000354zm47.69514,6.909497c1.886955,-0.458247 5.503738,0.510344 5.61147,-1.763524l-5.61147,1.763524zm0,0.802375c-0.449746,0 -0.868442,-0.215479 -1.013809,-0.556063c-0.181121,-0.423869 0.128902,-0.875382 0.68685,-1.009348c0.732013,-0.178621 1.570816,-0.185354 2.385627,-0.192442c2.210151,-0.018429 2.457605,-0.186417 2.489125,-0.832499c0.020229,-0.433084 0.494438,-0.774731 1.065088,-0.774731c0.015054,0 0.026345,0 0.038106,0.000354c0.589468,0.015239 1.047681,0.387366 1.027923,0.830727c-0.110555,2.339433 -2.918171,2.366013 -4.594367,2.381253c-0.653919,0.002835 -1.330889,0.012404 -1.75429,0.116954c-0.110555,0.02658 -0.220168,0.039339 -0.32743,0.039339l-0.002823,-0.003544zm-177.448617,-218.137513c0,-0.352279 0,-0.705622 0,-1.056129l0,1.056129zm0,0.334914c-0.245102,0 -0.4441,-0.14885 -0.4441,-0.334559l0,-1.056129c0,-0.185 0.201821,-0.334559 0.4441,-0.334559s0.4441,0.14885 0.4441,0.334559l0,1.056129c0,0.185 -0.197587,0.334559 -0.4441,0.334559zm0.352363,12.345728c0.035283,-3.351971 0.001882,-6.686221 0,-10.039609l0,10.039609zm0,0.562796c-0.000941,0 -0.001411,0 -0.002352,0c-0.410699,-0.000709 -0.744244,-0.255881 -0.740481,-0.565632c0.023993,-2.434768 0.016466,-4.901079 0.003764,-7.290483l-0.003764,-2.744873c0,-0.310105 0.333075,-0.562442 0.746126,-0.562796l0.00047,0c0.410699,0 0.746126,0.252691 0.746126,0.562088l0.003764,2.741684c0.003764,2.390468 0.017406,4.86174 -0.003764,7.300761c-0.000941,0.309396 -0.33778,0.560316 -0.746126,0.560316l-0.003764,-0.001063zm-0.352363,81.8635c0.250747,-0.527356 0.547128,-1.056129 0.700022,-1.585257l-0.700022,1.585257zm0,0.293094c-0.043751,0 -0.087973,-0.002835 -0.130784,-0.015948c-0.202762,-0.054579 -0.30626,-0.223985 -0.235223,-0.37567c0.060217,-0.129358 0.128432,-0.259779 0.19053,-0.389846c0.201821,-0.400479 0.386235,-0.77863 0.498672,-1.158907c0.046104,-0.156293 0.251218,-0.256235 0.466682,-0.224339c0.207937,0.034732 0.343425,0.19067 0.297792,0.351571c-0.121845,0.419262 -0.32743,0.834626 -0.52831,1.238294c-0.06351,0.126523 -0.128432,0.254463 -0.184885,0.381695c-0.056924,0.118372 -0.207466,0.196695 -0.367888,0.196695l-0.006586,-0.003544zm251.791652,15.028226c0.531603,0.30408 1.251384,0.463208 2.104301,0.527356l-2.104301,-0.527356zm2.10336,0.844195c-0.015995,0 -0.025874,0 -0.041399,-0.000709c-0.99358,-0.075134 -1.753349,-0.268994 -2.317413,-0.590795c-0.183003,-0.105259 -0.220168,-0.30408 -0.078564,-0.444425c0.138311,-0.137864 0.403642,-0.165862 0.588997,-0.059186c0.437984,0.249147 1.055208,0.401187 1.892601,0.466044c0.230518,0.016303 0.397526,0.173304 0.375886,0.346255c-0.020229,0.162672 -0.204644,0.28317 -0.416814,0.28317l-0.003293,-0.000354z" fill="black" id="svg_1"/>
 </g>
</svg>