<svg enable-background="new 0 0 24 24" height="512" viewBox="0 0 24 24" width="512" xmlns="http://www.w3.org/2000/svg"><path d="m3.243 12.309c.098-.32-.081-.66-.402-.759-.162-.05-.334-.075-.511-.075-1.117 0-2.025.908-2.025 2.025s.908 2.025 2.025 2.025c.177 0 .348-.025.511-.075.321-.098.501-.438.402-.759-.08-.262-.321-.42-.581-.42v-1.542c.26 0 .501-.158.581-.42z" fill="#ffb74d"/><path d="m21.116 11.531c-.327.076-.53.403-.454.729.065.28.316.459.592.458v1.562c-.276-.001-.527.179-.592.459-.076.327.127.653.454.729.16.037.318.056.469.056 1.117 0 2.025-.908 2.025-2.025 0-1.267-1.155-2.277-2.494-1.968z" fill="#ffb74d"/><path d="m20.958 13.5c0 4.959-4.041 9-9 9s-9-4.041-9-9c0-3.6 2.124-6.705 5.184-8.145.432-.216.891-.387 1.368-.513.774-.225 1.602-.342 2.448-.342s1.674.117 2.448.342c.018.108.027.216.027.333 0 1.368 1.251 2.205 1.341.18 3.06 1.44 5.184 4.545 5.184 8.145z" fill="#ffd54f"/><path d="m12.004 20.571c-1.675 0-3.038-1.363-3.038-3.038 0-.335.272-.608.608-.608h4.86c.335 0 .608.272.608.608-.001 1.675-1.364 3.038-3.038 3.038z" fill="#6d4c41"/><path d="m2.903 21.382c-.585 0-1.171-.223-1.616-.668-.891-.891-.891-2.34 0-3.231.732-.732 3.155-1.222 3.879-1.354.195-.038.398.027.539.168s.204.343.168.539c-.132.725-.622 3.147-1.354 3.879-.446.444-1.032.667-1.616.667zm-1.187-3.471h.008z" fill="#00bcd4"/><path d="m21.062 21.118c-.526 0-1.053-.201-1.454-.602-.659-.659-1.1-2.838-1.219-3.491-.033-.177.024-.358.151-.485s.308-.185.485-.151c.652.119 2.832.56 3.491 1.219.802.802.802 2.107 0 2.908-.4.402-.927.602-1.454.602z" fill="#00bcd4"/><path d="m20.64 17.56c-.092 0-.185-.017-.274-.052-.386-.151-.575-.587-.424-.973.37-.943.558-1.965.558-3.035 0-4.687-3.813-8.5-8.5-8.5s-8.5 3.813-8.5 8.5c0 1.07.188 2.092.559 3.035.151.386-.038.821-.424.973-.383.15-.82-.038-.973-.424-.439-1.119-.662-2.325-.662-3.584 0-5.514 4.486-10 10-10s10 4.486 10 10c0 1.259-.223 2.465-.662 3.584-.116.295-.4.476-.698.476z"/><path d="m12 23.5c-2.956 0-5.745-1.3-7.654-3.566-.267-.317-.226-.79.091-1.058.316-.265.79-.226 1.058.091 1.621 1.928 3.992 3.033 6.505 3.033s4.884-1.105 6.506-3.033c.267-.317.741-.356 1.058-.091.316.268.357.74.091 1.058-1.91 2.266-4.699 3.566-7.655 3.566z"/><path d="m2.5 16c-1.379 0-2.5-1.121-2.5-2.5s1.121-2.5 2.5-2.5c.219 0 .432.031.631.093.396.122.618.542.496.938s-.543.619-.938.496c-.055-.018-.121-.027-.189-.027-.552 0-1 .448-1 1s.448 1 1 1c.068 0 .134-.009.189-.026.395-.12.815.101.938.496s-.1.815-.496.938c-.199.061-.412.092-.631.092z"/><path d="m12 8.5c-.671 0-1.332-.156-1.911-.452-.369-.189-.516-.64-.327-1.009.188-.368.638-.517 1.009-.327.369.188.794.288 1.229.288 1.517 0 2.75-1.233 2.75-2.75s-1.233-2.75-2.75-2.75-2.75 1.233-2.75 2.75c0 .188.017.347.049.483.098.403-.149.809-.552.905-.404.096-.808-.149-.905-.551-.062-.255-.092-.528-.092-.837 0-2.344 1.906-4.25 4.25-4.25s4.25 1.906 4.25 4.25-1.906 4.25-4.25 4.25z"/><path d="m12.002 20.998c-2.067 0-3.75-1.683-3.75-3.75 0-.414.336-.75.75-.75h6c.414 0 .75.336.75.75 0 2.067-1.683 3.75-3.75 3.75zm-2.121-3c.31.873 1.144 1.5 2.121 1.5s1.812-.627 2.121-1.5z"/><path d="m2.821 21.999c-.723 0-1.445-.275-1.995-.825-1.1-1.1-1.1-2.889 0-3.989.904-.904 3.895-1.509 4.789-1.672.243-.047.491.033.665.207s.252.423.207.665c-.163.896-.768 3.886-1.672 4.789-.549.55-1.272.825-1.994.825zm1.96-4.78c-1.311.306-2.585.717-2.895 1.026-.515.515-.515 1.354 0 1.868s1.352.517 1.868 0c.31-.309.722-1.584 1.027-2.894zm-3.425.496h.01z"/><path d="m21.179 21.999c-.722 0-1.444-.275-1.994-.825-.904-.903-1.509-3.894-1.672-4.789-.045-.242.033-.491.207-.665s.422-.254.665-.207c.895.163 3.885.768 4.789 1.672 1.1 1.101 1.1 2.89 0 3.989-.55.55-1.273.825-1.995.825zm-1.96-4.78c.306 1.311.717 2.585 1.026 2.895.515.515 1.352.517 1.868 0 .515-.515.515-1.354 0-1.868-.309-.31-1.584-.722-2.894-1.027z"/><path d="m6.751 15c-.236 0-.47-.111-.615-.32-.237-.339-.155-.807.185-1.044l1.621-1.136-1.622-1.136c-.34-.237-.422-.705-.185-1.044.237-.341.705-.423 1.045-.184l2.5 1.75c.201.14.32.369.32.614s-.119.474-.32.614l-2.5 1.75c-.131.092-.281.136-.429.136z"/><path d="m17.249 15c-.148 0-.298-.044-.429-.136l-2.5-1.75c-.201-.14-.32-.369-.32-.614s.119-.474.32-.614l2.5-1.75c.34-.237.808-.155 1.044.185.237.339.155.807-.185 1.044l-1.621 1.135 1.622 1.136c.34.237.422.705.185 1.044-.146.209-.38.32-.616.32z"/><path d="m21.5 16c-.188 0-.383-.023-.58-.069-.403-.094-.654-.497-.561-.9.094-.404.502-.658.9-.561.085.02.168.03.24.03.552 0 1-.448 1-1s-.448-1-1-1c-.072 0-.155.011-.24.03-.398.094-.807-.156-.9-.561-.094-.403.157-.807.561-.9 1.646-.385 3.08.865 3.08 2.431 0 1.379-1.121 2.5-2.5 2.5z"/></svg>