<svg enable-background="new 0 0 24 24" height="512" viewBox="0 0 24 24" width="512" xmlns="http://www.w3.org/2000/svg"><path d="m20.048.926c-.179-.161-.435-.201-.653-.103-.219.098-.36.315-.36.555 0 1.017-.457 1.958-1.254 2.581-.264.207-.31.589-.104.853s.589.31.853.104c.02-.015.035-.034.055-.05l1.215 1.217c-.02.031-.035.064-.057.094-.192.275-.125.654.151.846.106.074.227.11.348.11.192 0 .38-.091.499-.26 1.301-1.865 1.003-4.422-.693-5.947z" fill="#e53935"/><path d="m4.937 1.378c0-.24-.141-.457-.36-.555-.218-.098-.475-.058-.654.103-1.696 1.525-1.994 4.082-.692 5.947.118.169.307.26.499.26.12 0 .241-.036.347-.109.275-.192.343-.571.151-.846-.021-.03-.036-.063-.057-.094l1.216-1.216c.019.016.035.034.055.05.264.206.647.16.853-.104s.16-.646-.104-.853c-.797-.625-1.254-1.566-1.254-2.583z" fill="#e53935"/><circle cx="12" cy="12.976" fill="#ef5350" r="9.9"/><path d="m17.712 17.152c-.057.105-.121.219-.186.324-1.183 1.936-3.248 3.102-5.524 3.102s-4.342-1.166-5.524-3.11c-.065-.105-.121-.211-.178-.316z" fill="#4e342e"/><path d="m18.278 15.006c-.122.51-.308 1.012-.567 1.482h-11.413c-.259-.47-.454-.964-.575-1.482-.04-.178 0-.373.113-.518.113-.146.292-.227.478-.227h11.372c.186 0 .364.081.478.227s.154.34.114.518z" fill="#fff"/><path d="m2.902 16.631c-.585 0-1.17-.222-1.616-.668-.891-.891-.891-2.341 0-3.231.732-.732 3.154-1.222 3.879-1.354.196-.039.398.027.539.168s.204.343.168.539c-.132.725-.622 3.147-1.354 3.879-.445.444-1.03.667-1.616.667zm-1.186-3.47h.008z" fill="#00bcd4"/><path d="m21.097 16.631c-.585 0-1.17-.222-1.616-.668-.732-.732-1.222-3.154-1.354-3.879-.036-.196.027-.398.168-.539s.343-.206.539-.168c.725.132 3.147.622 3.879 1.354.891.891.891 2.341 0 3.231-.445.446-1.031.669-1.616.669z" fill="#00bcd4"/><path d="m12 24c-4.637 0-8.803-2.937-10.366-7.307-.03-.081-.044-.167-.044-.253 0-.414.336-.756.75-.756.351 0 .646.237.728.562 1.366 3.743 4.948 6.254 8.932 6.254 3.998 0 7.59-2.527 8.946-6.291.098-.303.38-.524.714-.524.414 0 .75.331.75.745 0 .086-.015.183-.044.264-1.563 4.369-5.729 7.306-10.366 7.306z"/><path d="m22.24 13.43c-.404 0-.737-.321-.749-.729-.151-5.159-4.319-9.201-9.491-9.201s-9.34 4.042-9.491 9.201c-.012.415-.314.716-.771.729-.414-.013-.74-.357-.728-.771.174-5.977 5.001-10.659 10.99-10.659s10.816 4.682 10.99 10.658c.012.414-.313.759-.728.771-.008.001-.015.001-.022.001z"/><path d="m20.39 7.875c-.414 0-.75-.331-.75-.745 0-.155.048-.315.137-.442.874-1.239.958-2.823.325-4.126-.352 1.012-.994 1.916-1.857 2.575-.328.25-.8.188-1.051-.142-.251-.329-.188-.8.141-1.052 1.001-.763 1.575-1.927 1.575-3.193 0-.296.174-.564.445-.686.27-.119.586-.07.807.129 2.092 1.888 2.459 5.031.862 7.328-.132.212-.367.354-.634.354z"/><path d="m3.59 7.89c-.234 0-.465-.109-.612-.315-1.642-2.311-1.284-5.485.831-7.384.221-.197.537-.247.807-.126s.444.389.444.685c0 1.271.578 2.442 1.585 3.214.329.252.392.723.14 1.052s-.724.39-1.051.14c-.882-.676-1.524-1.575-1.873-2.59-.634 1.306-.545 2.894.34 4.139.24.338.161.806-.177 1.046-.131.094-.283.139-.434.139z"/><path d="m12 20.98c-2.81 0-5.359-1.436-6.821-3.841-.432-.694-.746-1.442-.929-2.218-.095-.402.154-.807.558-.901.402-.096.807.153.902.558.146.616.396 1.213.747 1.775 1.191 1.961 3.262 3.127 5.543 3.127s4.352-1.166 5.539-3.12c.354-.569.605-1.166.751-1.782.095-.404.498-.653.902-.558.403.095.653.499.558.901-.183.775-.497 1.523-.933 2.225-1.458 2.399-4.007 3.834-6.817 3.834z"/><path d="m18.18 17.5h-12.36c-.414 0-.75-.336-.75-.75s.336-.75.75-.75h12.36c.414 0 .75.336.75.75s-.336.75-.75.75z"/><path d="m19.02 15.5h-14.04c-.414 0-.75-.336-.75-.75s.336-.75.75-.75h14.04c.414 0 .75.336.75.75s-.336.75-.75.75z"/><path d="m6.75 12c-.236 0-.469-.111-.615-.32-.238-.339-.155-.807.184-1.044l1.623-1.136-1.622-1.136c-.34-.237-.422-.705-.184-1.044.237-.341.706-.422 1.044-.184l2.5 1.75c.2.14.32.369.32.614s-.12.474-.32.614l-2.5 1.75c-.131.092-.281.136-.43.136z"/><path d="m17.25 12c-.149 0-.299-.044-.43-.136l-2.5-1.75c-.2-.14-.32-.369-.32-.614s.12-.474.32-.614l2.5-1.75c.339-.237.808-.155 1.044.185.238.339.155.807-.184 1.044l-1.622 1.135 1.623 1.136c.339.237.422.705.184 1.044-.146.209-.379.32-.615.32z"/><path d="m2.821 17.248c-.722 0-1.444-.274-1.995-.824-1.1-1.1-1.1-2.89 0-3.989.904-.904 3.894-1.509 4.789-1.672.242-.048.491.033.665.207s.252.423.208.665c-.164.896-.768 3.886-1.672 4.789-.55.55-1.273.824-1.995.824zm1.961-4.779c-1.311.306-2.585.717-2.895 1.026-.515.515-.515 1.354 0 1.868.516.514 1.354.514 1.869 0 .308-.308.719-1.584 1.026-2.894zm-3.426.496h.01z"/><path d="m21.179 17.248c-.722 0-1.444-.274-1.995-.824-.904-.903-1.508-3.894-1.672-4.789-.044-.242.033-.491.208-.665.174-.174.423-.255.665-.207.895.163 3.885.768 4.789 1.672 1.1 1.1 1.1 2.89 0 3.989-.55.55-1.273.824-1.995.824zm-1.961-4.78c.307 1.312.717 2.587 1.026 2.896.516.514 1.354.514 1.869 0 .515-.515.515-1.354 0-1.868-.31-.31-1.584-.722-2.895-1.028z"/></svg>