<svg enable-background="new 0 0 24 24" height="512" viewBox="0 0 24 24" width="512" xmlns="http://www.w3.org/2000/svg"><path d="m20.047.926c-.179-.161-.435-.201-.653-.103-.219.098-.36.315-.36.555 0 1.017-.457 1.958-1.254 2.581-.264.207-.31.589-.104.853s.589.31.853.104c.02-.015.035-.034.055-.05l1.216 1.217c-.02.031-.035.064-.057.094-.192.275-.125.654.151.846.106.074.227.11.348.11.192 0 .38-.091.499-.26 1.301-1.865 1.003-4.422-.694-5.947z" fill="#e53935"/><path d="m4.937 1.378c0-.24-.141-.457-.36-.555-.218-.098-.475-.058-.654.103-1.696 1.525-1.994 4.082-.693 5.947.118.169.307.26.499.26.12 0 .241-.036.347-.109.275-.192.343-.571.151-.846-.021-.031-.036-.064-.057-.095l1.216-1.216c.019.016.035.034.055.05.264.206.647.16.853-.104s.16-.646-.104-.853c-.796-.624-1.253-1.565-1.253-2.582z" fill="#e53935"/><circle cx="12" cy="12.976" fill="#ef5350" r="9.9"/><path d="m16.5 13.43c-.117 0-.235-.034-.337-.102-.417-.278-2.498-1.734-2.498-3.113 0-.907.794-1.645 1.77-1.645.392 0 .765.121 1.065.331.301-.21.674-.331 1.065-.331.976 0 1.77.738 1.77 1.645 0 1.38-2.081 2.836-2.498 3.113-.102.068-.22.102-.337.102z" fill="#fff"/><path d="m7.5 13.43c-.117 0-.235-.034-.337-.102-.417-.278-2.498-1.734-2.498-3.113 0-.907.794-1.645 1.77-1.645.392 0 .765.121 1.065.331.301-.21.674-.331 1.065-.331.976 0 1.77.738 1.77 1.645 0 1.38-2.081 2.836-2.498 3.113-.102.068-.22.102-.337.102z" fill="#fff"/><path d="m12 20.43c-2.634 0-4.988-1.578-5.997-4.021-.077-.187-.056-.401.057-.57.113-.168.302-.27.505-.27h10.87c.203 0 .392.101.505.27.113.168.134.382.057.57-1.009 2.443-3.363 4.021-5.997 4.021z" fill="#4e342e"/><path d="m12 24c-6.065 0-11-4.935-11-11s4.935-11 11-11 11 4.935 11 11-4.935 11-11 11zm0-20.5c-5.238 0-9.5 4.262-9.5 9.5s4.262 9.5 9.5 9.5 9.5-4.262 9.5-9.5-4.262-9.5-9.5-9.5z"/><path d="m20.39 7.875c-.414 0-.75-.331-.75-.745 0-.155.048-.315.137-.442.874-1.239.958-2.823.325-4.126-.352 1.012-.994 1.916-1.857 2.575-.329.251-.8.188-1.051-.142-.251-.329-.188-.8.141-1.052 1.001-.763 1.575-1.927 1.575-3.193 0-.296.174-.564.445-.686.269-.12.587-.071.807.129 2.092 1.888 2.459 5.031.862 7.328-.132.212-.367.354-.634.354z"/><path d="m3.59 7.89c-.234 0-.465-.109-.612-.315-1.642-2.311-1.284-5.485.831-7.384.221-.198.538-.247.807-.126.27.121.444.389.444.685 0 1.271.578 2.442 1.585 3.214.329.252.392.723.14 1.052-.253.328-.723.39-1.051.14-.882-.676-1.524-1.575-1.873-2.59-.634 1.306-.545 2.894.34 4.139.24.338.161.806-.177 1.046-.131.094-.283.139-.434.139z"/><path d="m16.5 14c-.145 0-.29-.042-.416-.126-.515-.343-3.084-2.141-3.084-3.844 0-1.119.98-2.03 2.185-2.03.484 0 .944.149 1.315.409.372-.26.832-.409 1.315-.409 1.205 0 2.185.911 2.185 2.03 0 1.703-2.569 3.501-3.084 3.844-.126.084-.271.126-.416.126zm-1.315-4.5c-.371 0-.685.243-.685.53 0 .518.971 1.534 2 2.302 1.029-.768 2-1.784 2-2.302 0-.287-.313-.53-.685-.53-.327 0-.557.174-.641.347-.251.516-1.098.516-1.349 0-.083-.173-.314-.347-.64-.347z"/><path d="m7.5 14c-.145 0-.29-.042-.416-.126-.515-.343-3.084-2.141-3.084-3.844 0-1.119.98-2.03 2.185-2.03.483 0 .943.149 1.315.409.372-.26.832-.409 1.315-.409 1.205 0 2.185.911 2.185 2.03 0 1.703-2.569 3.501-3.084 3.844-.126.084-.271.126-.416.126zm-1.315-4.5c-.372 0-.685.243-.685.53 0 .518.971 1.534 2 2.302 1.029-.768 2-1.784 2-2.302 0-.287-.313-.53-.685-.53-.327 0-.557.174-.641.347-.251.516-1.098.516-1.349 0-.083-.173-.314-.347-.64-.347z"/><path d="m12 21c-3.252 0-6.158-1.948-7.403-4.964-.095-.231-.069-.495.07-.703s.373-.333.623-.333h13.42c.25 0 .484.125.624.333s.165.472.07.703c-1.246 3.016-4.152 4.964-7.404 4.964zm-5.478-4.5c1.184 1.853 3.229 3 5.478 3s4.294-1.147 5.478-3z"/></svg>