<svg enable-background="new 0 0 24 24" height="512" viewBox="0 0 24 24" width="512" xmlns="http://www.w3.org/2000/svg"><circle cx="12" cy="12" fill="#ffd54f" r="10.8"/><circle cx="7" cy="9" fill="#6d4c41" r="1.8"/><circle cx="17" cy="9" fill="#6d4c41" r="1.8"/><path d="m21.133 16.958c-.422 0-.82.142-1.133.387-.313-.245-.711-.387-1.133-.387-.983 0-1.783.764-1.783 1.703 0 1.463 2.168 3.051 2.603 3.354.095.065.204.098.313.098s.219-.033.313-.098c.434-.304 2.603-1.891 2.603-3.354 0-.939-.799-1.703-1.783-1.703z" fill="#e53935"/><path d="m10.751 20c-.275 0-.54-.152-.672-.415-.186-.371-.035-.821.336-1.006l1.277-.639-1.328-.797c-.225-.135-.364-.379-.364-.643s.139-.508.364-.643l1.328-.797-1.277-.639c-.371-.186-.521-.636-.336-1.006.186-.37.636-.521 1.006-.335l2.5 1.25c.245.123.404.369.414.642.011.273-.129.531-.363.672l-1.428.856 1.428.857c.234.141.374.398.363.672-.01.273-.169.52-.414.642l-2.5 1.25c-.107.054-.222.079-.334.079z"/><path d="m12 24c-6.617 0-12-5.383-12-12s5.383-12 12-12 12 5.383 12 12c0 1.796-.395 3.537-1.172 5.172-.178.374-.621.534-1 .355-.374-.178-.533-.625-.355-1 .681-1.432 1.027-2.955 1.027-4.527 0-5.79-4.71-10.5-10.5-10.5s-10.5 4.71-10.5 10.5 4.71 10.5 10.5 10.5c2.214 0 4.331-.681 6.122-1.969.335-.241.804-.164 1.047.171.241.336.165.805-.172 1.047-2.048 1.473-4.467 2.251-6.997 2.251z"/><path d="m7 11c-1.103 0-2-.897-2-2s.897-2 2-2 2 .897 2 2-.897 2-2 2zm0-2.5c-.275 0-.5.224-.5.5s.225.5.5.5.5-.224.5-.5-.225-.5-.5-.5z"/><path d="m17 11c-1.103 0-2-.897-2-2s.897-2 2-2 2 .897 2 2-.897 2-2 2zm0-2.5c-.275 0-.5.224-.5.5s.225.5.5.5.5-.224.5-.5-.225-.5-.5-.5z"/><path d="m20 23.071c-.15 0-.3-.045-.43-.135-.595-.416-3.57-2.593-3.57-4.601 0-1.287 1.097-2.335 2.445-2.335.579 0 1.125.195 1.555.531.43-.336.976-.531 1.555-.531 1.348 0 2.445 1.048 2.445 2.335 0 2.007-2.975 4.185-3.57 4.601-.13.09-.28.135-.43.135zm-1.555-5.571c-.521 0-.945.375-.945.835 0 .8 1.367 2.177 2.5 3.055 1.153-.89 2.5-2.246 2.5-3.055 0-.46-.424-.835-.945-.835-.386 0-.729.203-.874.517-.246.53-1.115.53-1.361 0-.146-.314-.489-.517-.875-.517z"/></svg>