<?xml version="1.0"?>
<svg xmlns:rdf="http://www.w3.org/1999/02/22-rdf-syntax-ns#" xmlns="http://www.w3.org/2000/svg" xmlns:cc="http://creativecommons.org/ns#" xmlns:dc="http://purl.org/dc/elements/1.1/" xmlns:svg="http://www.w3.org/2000/svg" id="svg2" viewBox="0 0 221.33 135.64" version="1.0">
  <g id="layer1" transform="translate(-302.55 -452.37)">
    <path id="path1368" d="m399.89 586.95c-1.14-0.68-1.76-2.33-1.8-4.74l-0.05-3.7-1.56 3.75c-2.78 6.7-8.68 3.93-8.2-3.86 0.14-2.38-0.05-4.64-0.44-5.03-0.38-0.38-0.7 1.29-0.71 3.72s-0.41 5.04-0.9 5.8c-1.12 1.78-5.43 0.77-8.11-1.91-1.09-1.09-2.9-1.97-4.03-1.97-3.17 0-7.08-2.41-11.24-6.9-2.08-2.26-4.64-4.1-5.67-4.1-2.46 0-6.01-4.55-6.15-7.89-0.08-1.69-0.28-2-0.58-0.86-0.87 3.35-4.15 2.03-5.27-2.13-0.87-3.21-1.48-3.87-3.59-3.87-2.61 0-3.74-1.06-7.93-7.4-1.32-2-3.78-4.62-5.46-5.82-2.04-1.44-3.06-3.02-3.06-4.71 0-1.84-0.41-2.38-1.5-1.96-0.9 0.34-2.1-0.35-3.01-1.74-0.83-1.28-2.69-2.85-4.12-3.5-3.52-1.61-11.29-8.34-11.33-9.82-0.02-0.65 0.9-1.85 2.04-2.65 1.79-1.25 2.45-1.26 4.75-0.06 1.47 0.77 3.24 1.4 3.92 1.4 0.69 0 1.25 0.46 1.25 1.01s0.9 1 2 1 2.86 0.85 3.9 1.9c1.37 1.37 2.21 1.59 2.99 0.81 0.79-0.79 2.1-0.61 4.72 0.64 3.53 1.68 3.62 1.85 2.98 5.94l-0.66 4.21 2.57-3.75c2.26-3.3 3.07-3.75 6.63-3.75 2.24 0 6.54-0.72 9.57-1.6 6.62-1.93 9.11-0.72 5.21 2.52-2 1.67-2.11 2.01-0.66 2.04 0.97 0.02 1.75-0.37 1.75-0.87 0-1.27 5.68-3.09 9.65-3.09 2.45 0 3.35 0.44 3.35 1.65 0 1.54 0.13 1.54 1.83 0 2.03-1.84 7.81-2.25 8.36-0.6 0.19 0.59 2.37 1.09 4.83 1.13 5.58 0.07 8.98 1.31 8.98 3.26 0 0.82-0.9 3.1-2 5.06-2.09 3.72-2.58 6.5-1.16 6.5 0.46 0 1.43-1.8 2.16-3.99 1.52-4.61 4.96-7.27 8.81-6.83 2.12 0.25 2.67 0.82 2.6 2.71-0.09 2.25-0.01 2.29 1.25 0.56 0.74-1.01 1.96-1.93 2.72-2.04s2.26-0.48 3.33-0.82c2.73-0.87 4.29 2.97 4.29 10.54 0 4.39 0.34 5.91 1.25 5.59 0.69-0.24 1.15-1.29 1.03-2.33-0.13-1.04-0.53-4.26-0.89-7.14l-0.66-5.25h4.06c4.28 0 4.4 0.15 6.61 8.5 0.48 1.78 0.13-2.69-0.62-7.99-0.4-2.85 6.38-4.58 8.95-2.28 1.58 1.4 1.93 1.41 3.15 0.07 0.9-0.98 2.37-1.31 4.2-0.94 2.2 0.44 2.95 0.14 3.43-1.4 0.73-2.28 1.57-2.46 3.42-0.71 1.06 1 1.41 1 1.78 0 0.5-1.37 3.29-1.75 3.29-0.45 0 0.45 0.7 1.69 1.55 2.75 1.4 1.76 1.4 1.64 0.01-1.24-2.18-4.51-1.21-6.06 4.07-6.48 3.35-0.27 4.9 0.09 6.09 1.4 2.04 2.25 3.45 2.26 3.08 0.02-0.37-2.18 5-2.97 8.26-1.22 1.56 0.83 2.46 0.85 3.25 0.06 1.42-1.42 5.98-1.41 7.41 0.02 0.65 0.65 1.66 0.76 2.45 0.27 2.2-1.39 7.15-1.27 10.08 0.24 2.16 1.12 2.76 1.15 2.77 0.15 0.01-1.5 11.26-6.06 13.77-5.58 3.34 0.64 2.58 4.61-1.64 8.57-7.75 7.25-10.41 8.64-11.48 5.99-0.28-0.69-0.55-0.13-0.6 1.25-0.06 1.37-0.43 2.97-0.83 3.55-1.4 2-7.93 6.45-9.47 6.45-0.85 0-1.83 1.11-2.17 2.48-0.35 1.37-1.86 3.28-3.36 4.25-1.51 0.97-5.61 4.6-9.11 8.05-3.51 3.46-6.62 6.06-6.91 5.77-0.29-0.3-0.86-2.23-1.26-4.29l-0.73-3.76-0.11 4.53c-0.11 4.13-0.63 5.03-5.9 10.25-3.17 3.14-6.1 5.72-6.5 5.72-0.39 0-0.76-1.24-0.82-2.75-0.08-2.31-0.28-2.08-1.25 1.41-1.89 6.86-7.15 10.95-8.32 6.48-0.43-1.64-0.9-1.47-4.09 1.54-5.36 5.05-6.63 4.24-7.31-4.69l-0.57-7.49-0.18 6.52c-0.23 8.47-1.89 10.98-7.27 10.98-3.11 0-4.14-0.46-4.74-2.09-0.7-1.88-0.91-1.93-2.09-0.5-0.78 0.94-2.87 1.59-5.12 1.59-5.82 0-6.94-0.78-7.06-4.86l-0.1-3.64-0.79 3.34c-0.44 1.84-1.18 3.72-1.65 4.18-1.51 1.47-5.8 1.99-7.61 0.92zm25.25-12.44c0-4.34-0.42-7.5-1-7.5-1.08 0-1.39 10.8-0.39 13.41 1.11 2.88 1.39 1.66 1.39-5.91zm-52.54-13.57c-0.86-1.39-1.46-1.13-1.46 0.62 0 0.86 0.46 1.28 1.02 0.93 0.56-0.34 0.76-1.04 0.44-1.55zm69.37-23.58c-3.02-6.04-3.58-3.29-0.66 3.19 1.47 3.26 2.36 4.36 2.6 3.21 0.21-0.96-0.67-3.84-1.94-6.4zm-34.18-24.79c-1.36-1.47-3.47-2.56-4.94-2.56-4.15 0-6.68-4.2-6.87-11.39-0.09-3.52-0.31-4.63-0.52-2.61-0.86 8.38-2.65 10.22-5.7 5.86-1.34-1.91-1.65-1.98-3.02-0.6-1.36 1.36-2 1.36-5.81 0.05-3.34-1.15-5.09-1.24-7.9-0.4-5.7 1.71-6.63 1.39-7.93-2.66-1.92-6.01-2.89-5.99-2.27 0.05 0.56 5.41 0.5 5.61-2.07 6.25-3.18 0.8-5.62-0.92-5.62-3.99 0-1.2-0.57-2.97-1.28-3.94-1.11-1.51-1.23-1.21-0.91 2.2 0.63 6.51-3.1 10.48-6.57 7.01-0.89-0.89-1.32-0.77-1.81 0.5-1.02 2.66-2.91 1.95-5.52-2.08-2.85-4.41-4.41-4.14-4.41 0.75v3.5l-5.21 0.3c-4.33 0.25-5.42-0.04-6.46-1.71-1.16-1.86-1.4-1.89-3.02-0.42-1.31 1.19-2.11 1.32-3.09 0.51-0.98-0.82-2.82-0.55-7.1 1.03-4.91 1.81-5.92 1.91-6.69 0.71-1.08-1.69-0.57-3.31 2.38-7.67 1.69-2.49 2.92-3.24 5.32-3.25 3.23-0.01 10.37-5.41 10.37-7.85 0-1.61 4.56-3.37 9.5-3.68 3.2-0.2 4.07-0.67 4.32-2.34 0.39-2.55 4.92-5.93 9.07-6.76 1.75-0.35 3.31-1.42 3.65-2.49 0.33-1.04 1.24-1.88 2.03-1.88s1.43-0.45 1.43-1c0-2.45 3.83-0.74 5.57 2.5 1.9 3.52 3.46 4.56 3.4 2.25-0.02-0.69-0.68-2.38-1.47-3.75-2.16-3.78-1.89-4.42 3.25-7.7 7.11-4.55 8.95-5.36 10.68-4.69 0.87 0.33 1.57 0.1 1.57-0.51 0-1.88 1.64-1.22 2.85 1.15 1.05 2.05 1.11 1.96 0.59-0.94-0.45-2.5-0.14-3.4 1.43-4.24 4.89-2.62 6.86-2.93 9.61-1.5 3.41 1.77 3.52 1.77 3.52-0.07 0-1.71 2.55-2.04 3.53-0.46 0.45 0.73 1.05 0.72 1.96-0.03 4.21-3.5 9.74-1.21 11.3 4.69 0.88 3.33 1.02 3.46 1.11 1.05 0.12-3.24 2.65-3.76 3.6-0.75 0.35 1.1 1.51 2 2.57 2 1.17 0 1.94 0.69 1.96 1.75 0.01 1.42 0.39 1.28 2.04-0.75 1.11-1.38 2.46-3.56 2.99-4.86 0.77-1.85 1.49-2.23 3.38-1.75 1.32 0.33 2.55 0.16 2.73-0.37 0.18-0.54 1.8-1.27 3.58-1.63 2.83-0.56 3.25-0.38 3.25 1.42 0 1.14-0.45 2.35-1 2.69-1.24 0.77-1.31 2.5-0.09 2.5 0.49 0 1.37-1.35 1.94-3 1.27-3.64 4.8-4.13 6.02-0.83 0.48 1.28 1.07 1.73 1.47 1.09 0.86-1.4 10.64 1.75 10.65 3.43 0.01 0.65-0.93 2.79-2.09 4.75-1.15 1.95-1.63 3.56-1.06 3.56 0.56 0 1.29-0.85 1.62-1.87 0.33-1.03 1.48-2.67 2.55-3.64 1.87-1.69 2.18-1.69 6.48-0.05 3.26 1.24 4.51 2.27 4.51 3.71 0 1.55 0.45 1.84 2.09 1.32 1.38-0.44 2.81 0 4.25 1.29 1.19 1.07 4.79 3.21 8.01 4.76 3.21 1.54 6.36 3.63 6.99 4.64s1.85 1.84 2.7 1.84c2.04 0 3.96 1.97 3.96 4.06 0 1.24 0.65 1.53 2.56 1.17 2-0.38 2.69-0.02 3.12 1.64 0.31 1.17 1.22 2.13 2.03 2.13 0.82 0 1.72 0.9 2.01 2.01 0.29 1.12 1.69 2.28 3.15 2.62 1.45 0.34 3.76 1.61 5.13 2.81 1.38 1.21 3.73 2.95 5.23 3.88 3.13 1.94 6.17 7.19 5.38 9.27-0.81 2.1-9.53 1.89-11.11-0.27-1-1.36-2.75-1.64-9.36-1.48-6.57 0.17-8.14-0.08-8.14-1.26 0-0.81 0.45-1.75 1-2.08 0.55-0.34 1-1.16 1-1.81 0-0.66-1.56 0.49-3.45 2.56-3.59 3.91-6.17 4.57-9.86 2.55-1.2-0.66-3.2-1.08-4.44-0.93-1.74 0.21-2.25-0.24-2.25-1.96 0-2.09-0.11-2.13-1.83-0.57-2.12 1.92-5.56 2.11-10.02 0.56-3.78-1.32-4.06-3.68-1.15-9.4 2.59-5.08 2.52-5.36-0.5-2.1-1.37 1.48-2.5 3.3-2.5 4.04 0 2.94-3.53 5.57-8.34 6.21l-4.84 0.64 0.34-6.65c0.19-3.66 0.1-6.65-0.21-6.65-0.3 0-1.09 2.66-1.76 5.9-1.41 6.82-2.29 7.78-7.95 8.68l-4.16 0.67 0.43-8.87c0.33-6.86 0.22-7.97-0.48-4.87-0.5 2.2-0.94 6.49-0.97 9.55-0.06 6.26-1.37 8.38-4.21 6.86-1.16-0.62-1.88-2.17-1.95-4.2l-0.1-3.21-0.77 3.22c-1.21 5.1-3.83 8.44-6.34 8.09-2.01-0.29-2.2-0.92-2.35-7.81-0.23-10.86-0.24-11-1.3-11-0.53 0-1.09 4.35-1.25 9.75-0.27 9.22-0.41 9.76-2.52 10.06-1.41 0.2-3.12-0.63-4.62-2.25zm-1.99-15.83c-0.28-0.68-0.48 0.12-0.46 1.77s0.24 2.2 0.5 1.23c0.25-0.98 0.23-2.33-0.04-3zm-55.12-5.67c-0.36-0.58-1.13-1.06-1.72-1.06-0.66 0-0.59 0.57 0.2 1.52 1.37 1.65 2.6 1.28 1.52-0.46zm44.07-29.79c-0.34-0.34-0.57 0.25-0.53 1.31 0.05 1.16 0.29 1.4 0.61 0.6 0.28-0.72 0.25-1.58-0.08-1.91z"/>
  </g>
  <metadata>
    <rdf:RDF>
      <cc:Work>
        <dc:format>image/svg+xml</dc:format>
        <dc:type rdf:resource="http://purl.org/dc/dcmitype/StillImage"/>
        <cc:license rdf:resource="http://creativecommons.org/licenses/publicdomain/"/>
        <dc:publisher>
          <cc:Agent rdf:about="http://openclipart.org/">
            <dc:title>Openclipart</dc:title>
          </cc:Agent>
        </dc:publisher>
        <dc:title>lips</dc:title>
        <dc:date>2006-10-19T07:26:14</dc:date>
        <dc:description>lips</dc:description>
        <dc:source>http://openclipart.org/detail/743/lips-by-molumen</dc:source>
        <dc:creator>
          <cc:Agent>
            <dc:title>molumen</dc:title>
          </cc:Agent>
        </dc:creator>
        <dc:subject>
          <rdf:Bag>
            <rdf:li>clip art</rdf:li>
            <rdf:li>clipart</rdf:li>
            <rdf:li>face</rdf:li>
            <rdf:li>image</rdf:li>
            <rdf:li>kiss</rdf:li>
            <rdf:li>lips</rdf:li>
            <rdf:li>lipstick</rdf:li>
            <rdf:li>media</rdf:li>
            <rdf:li>mouth</rdf:li>
            <rdf:li>people</rdf:li>
            <rdf:li>png</rdf:li>
            <rdf:li>public domain</rdf:li>
            <rdf:li>speak</rdf:li>
            <rdf:li>svg</rdf:li>
            <rdf:li>teeth</rdf:li>
          </rdf:Bag>
        </dc:subject>
      </cc:Work>
      <cc:License rdf:about="http://creativecommons.org/licenses/publicdomain/">
        <cc:permits rdf:resource="http://creativecommons.org/ns#Reproduction"/>
        <cc:permits rdf:resource="http://creativecommons.org/ns#Distribution"/>
        <cc:permits rdf:resource="http://creativecommons.org/ns#DerivativeWorks"/>
      </cc:License>
    </rdf:RDF>
  </metadata>
</svg>
