<?xml version="1.0"?>
<svg width="768" height="768" xmlns="http://www.w3.org/2000/svg" xmlns:svg="http://www.w3.org/2000/svg">
 <defs>
  <clipPath clipPathUnits="userSpaceOnUse" id="clipPathFlag">
   <rect fill="#000000" fill-opacity="0.67" height="511" id="rect3918" ry="57" width="511" x="-5.5" y="-91.5"/>
  </clipPath>
  <clipPath clipPathUnits="userSpaceOnUse" id="clipPath5796">
   <rect fill="none" height="512" id="rect5798" ry="57" stroke="#00fa00" stroke-width="20" width="512" x="-6" y="-92"/>
  </clipPath>
 </defs>
 <metadata>image/svg+xmlOpenclipartad2011-08-21T12:00:49country flag buttons (with ISO-3166-1 naming convention)https://openclipart.org/detail/155971/ad-by-koppikoppiISO3166-1buttoncountryflagflagssquared</metadata>
 <g class="layer">
  <title>Layer 1</title>
  <path d="m46.5,25.500001c0,2.033577 -0.008808,3.292492 0.008999,4.035603c0.021591,0.900976 0.094391,1.969301 0.161667,2.566777c0.234184,2.079827 0.39732,2.859395 0.539169,3.692507c0.150074,0.881401 0.313763,1.809087 0.475498,2.786049c0.169399,1.023261 0.352962,2.091518 0.647999,4.381478c0.156113,1.21168 0.286373,2.469286 0.405003,3.764736c0.121529,1.327111 0.225544,2.683921 0.314999,4.064775c0.090622,1.398872 0.17474,2.812205 0.279999,5.66417c0.052719,1.428376 0.084667,2.857424 0.114002,4.286227c0.029331,1.428694 0.051666,2.857515 0.077999,4.286227c0.026333,1.428775 0.045338,2.858078 0.141335,5.714975c0.048,1.428485 0.115063,2.852882 0.185997,4.270157c0.070415,1.406875 0.147755,2.799106 0.222,4.173716c0.073082,1.353108 0.153111,2.680546 0.258667,5.248245c0.050655,1.232177 0.084785,2.430326 0.105,3.595075c0.019653,1.132374 0.025208,2.234055 0.015003,3.30575c-0.009933,1.043263 -0.023266,2.060047 -0.120003,4.01318c-0.046608,0.941008 -0.114204,1.856136 -0.185997,2.744977c-0.069637,0.862161 -0.146881,1.69511 -0.222,2.498509c-0.072235,0.772569 -0.150894,1.511773 -0.258667,2.892414c-0.049747,0.637313 -0.084141,1.244485 -0.114002,1.825215c-0.028751,0.559102 -0.051483,1.101808 -0.077999,1.632341c-0.026165,0.523557 -0.046902,1.04597 -0.141335,2.098662c-0.048618,0.541961 -0.115452,1.090944 -0.185997,1.64484c-0.070786,0.555768 -0.147678,1.108402 -0.222,1.655559c-0.073009,0.537501 -0.151432,1.060413 -0.258667,2.057386c-0.049873,0.463659 -0.084179,0.904619 -0.109501,1.321588c-0.023849,0.392688 -0.038105,0.761932 -0.046501,1.107276c-0.007813,0.321418 -0.009331,0.619127 -0.010666,1.369613l0,0.992976" fill="none" id="svg_14" stroke="#000000" stroke-dasharray="null" stroke-linecap="null" stroke-linejoin="null" stroke-width="5"/>
  <path d="m81.5,72.5c-0.057167,-1.699997 -0.52211,-2.477066 -1.300003,-2.951836c-0.801483,-0.489174 -1.216164,-1.113411 -1.585327,-1.736168c-0.593857,-1.001801 -0.946999,-1.558243 -1.361336,-2.122665c-0.889786,-1.212105 -1.431152,-1.79372 -1.978668,-2.378666c-0.543266,-0.580406 -1.092064,-1.12394 -1.853165,-1.889332c-0.465187,-0.467815 -1.136551,-1.125118 -1.921501,-2.088001c-0.413864,-0.507675 -0.806198,-1.065083 -1.400002,-1.937832c-0.606361,-0.891205 -1.001328,-1.492413 -1.389328,-2.084835c-0.557343,-0.850998 -1.041595,-1.645409 -1.458,-2.3535c-0.502434,-0.854382 -1.059784,-1.669456 -1.578003,-2.246498c-0.508354,-0.566059 -1.313942,-1.307106 -1.799999,-1.872002c-0.732533,-0.851345 -1.005806,-1.364086 -1.585335,-2.087997c-0.756317,-0.94474 -1.400757,-1.420303 -1.953335,-1.865334c-0.839828,-0.676373 -1.274086,-1.412464 -1.835999,-2.218666c-0.46703,-0.670067 -1.137291,-1.234322 -1.599998,-1.80267c-0.655849,-0.805584 -0.959732,-1.565151 -1.5,-2.342667c-0.466442,-0.671272 -1.089138,-1.511738 -1.5,-2.195999c-0.48724,-0.811466 -1.097473,-1.224167 -1.879169,-1.825333c-0.649433,-0.499451 -0.977234,-1.381729 -1.436832,-2.198666c-0.395306,-0.702658 -0.897919,-1.225203 -1.369331,-2.001335c-0.41082,-0.676374 -1.275749,-1.257391 -1.662003,-2.099998c-0.352398,-0.768755 -0.757164,-1.400002 -1.441998,-2.1l-0.526669,-0.798668" fill="none" id="svg_15" stroke="#000000" stroke-dasharray="null" stroke-linecap="null" stroke-linejoin="null" stroke-width="5"/>
  <path d="m115.5,30.5c0,1.799999 -0.001381,2.681507 -0.569336,3.485332c-0.40419,0.572052 -0.983574,1.090546 -1.545334,1.913334c-0.507805,0.743759 -1.001328,1.567944 -1.485329,2.226665c-0.620895,0.845036 -1.000053,1.585308 -1.400002,2.374668c-0.410728,0.810635 -0.741615,1.466438 -1.321663,2.421665c-0.331207,0.545437 -0.712585,1.125111 -1.365005,2.065002c-0.474625,0.683758 -0.996635,1.397839 -1.538666,2.138664c-0.54863,0.749851 -0.827728,1.117878 -1.608002,2.208c-0.484901,0.677456 -0.917313,1.329681 -1.562164,2.205002c-0.592369,0.804077 -1.193092,1.506413 -1.583664,1.919998c-0.839561,0.88903 -1.394165,1.396473 -2.020836,2.041668c-0.609192,0.627197 -1.094063,1.324871 -1.5,2c-0.591393,0.983559 -1.077339,1.599503 -1.900002,1.974667c-0.779709,0.355576 -1.338913,1.061298 -1.683998,1.825333c-0.346947,0.76815 -1.030968,1.513145 -1.416,2.220833c-0.312286,0.573986 -0.768906,1.592159 -1.199997,2.322002c-0.467133,0.790863 -1.134254,1.290771 -2,1.709831c-0.818192,0.396042 -1.136421,1.294395 -1.521339,2.047333c-0.39016,0.763199 -0.96904,1.385368 -1.494667,1.984001c-0.673569,0.767113 -0.858665,1.515999 -1.283997,2.395164l-0.574669,0.51017" fill="none" id="svg_16" stroke="#000000" stroke-dasharray="null" stroke-linecap="null" stroke-linejoin="null" stroke-width="5"/>
  <path d="m117.5,121.5c-0.647331,-1.057167 -0.970428,-1.762268 -1.004501,-2.661667c-0.030357,-0.801163 -0.218948,-1.759659 -0.42083,-2.595665c-0.150917,-0.624954 -0.415474,-2.075249 -0.453171,-2.485832c-0.080269,-0.874352 -0.103508,-1.819283 -0.110832,-2.314171c-0.015259,-1.030594 -0.010666,-2.109329 -0.010666,-3.227997c0,-0.571838 0,-1.735504 0,-2.325333c0,-0.593834 0,-2.389336 0,-2.989502c0,-0.601166 0,-1.810501 0,-2.42067c0,-0.615166 0,-1.864494 0,-3.145828c0,-0.654671 0,-1.317337 0,-1.986c0,-1.347336 0,-2.022003 0,-2.694672c0,-0.668663 0,-1.986 0,-3.265999c0,-0.625 0,-1.239998 0,-2.440002c0,-0.584999 0,-1.159996 0,-2.824997c0,-0.534996 0,-1.574997 0,-2.080002c0,-0.979996 0,-2.375 0,-3.253662c0,-0.830666 0,-1.605339 0,-2.316002c0,-1.204002 0,-1.972 0,-2.739998c0,-1.200005 0,-1.882668 0,-2.581337c0,-1.317329 0,-2.140831 0,-2.865334c0,-0.951996 -0.03019,-1.740067 0.036003,-2.559998c0.085831,-1.06324 0.414101,-1.981163 0.611328,-2.620834c0.306267,-0.993324 0.347336,-1.804459 0.352669,-2.804333c0.004158,-0.779324 0,-1.778999 0,-2.610001c0,-0.958168 0,-1.690166 0,-2.422165c0,-1.106667 0,-2.0895 0,-2.788834c0,-0.979168 -0.028275,-1.958805 0,-2.8125c0.028603,-0.863586 0.686188,-1.589039 0.942833,-2.466667c0.253113,-0.865566 0.057167,-1.799999 0.057167,-2.700001c0,-0.799999 0,-1.700001 0,-2.599998c0,-0.900002 0,-1.800003 0,-2.700001c0,-0.900002 0.000168,-1.799835 0.221336,-2.578667l0.721497,-0.4785l0.057167,-0.842834l0,-0.899998" fill="none" id="svg_17" stroke="#000000" stroke-dasharray="null" stroke-linecap="null" stroke-linejoin="null" stroke-width="5"/>
  <path d="m152.5,37.5c-0.878494,1.221668 -1,2.166668 -1,2.835999c0,0.765335 0,1.764 0,2.564003c0,1.001331 0,1.835999 0,3.021332c0,0.804001 0,1.353333 0,2.657166c0,0.685501 0,1.520168 0,2.526001c0,0.852665 0,1.817001 0,2.6315c0,0.8685 0,1.764 0,2.6595c0,0.8685 0,1.937832 0,2.642834c0,0.799999 0,1.836334 0,2.783165c0,0.699333 0,1.678501 0,2.48917c0,0.874664 0,1.873329 0,2.689331c0,0.816002 0,1.814667 0,2.689331c0,1.010834 0,1.831505 0,2.496002c0,0.998665 0,1.814667 0,2.630669c0,1.231331 0,1.909332 0,3.105331c0,0.804001 0,1.353333 0,2.657333c0,0.695999 0,1.605331 0,2.605331c0,0.816002 0.019119,1.63221 -0.001328,2.630669c-0.017914,0.875168 -0.151077,1.690086 -0.424011,2.485336c-0.276306,0.805069 -0.542007,1.798759 -0.57016,2.599998c-0.03511,0.999397 -0.004501,1.799995 -0.004501,2.799995c0,0.800003 0,1.800003 0,2.589333c0,0.725334 0.013855,1.852005 -0.283997,2.694672c-0.249725,0.706505 -0.672073,1.628593 -0.714676,2.400002c-0.05249,0.950546 -0.001328,1.717331 -0.001328,2.711494c0,0.919167 0.000061,1.883667 0,2.709c-0.000092,1.01667 0.191299,1.783081 -0.352661,2.58567c-0.459793,0.678421 -0.647339,1.509834 -0.647339,2.409836l0,0.899994l0,0.900002" fill="none" id="svg_18" stroke="#000000" stroke-dasharray="null" stroke-linecap="null" stroke-linejoin="null" stroke-width="5"/>
  <path d="m134.5,36.5c-0.995499,-1.700001 -1,-2.599998 -1,-3.5c0,-0.900002 -0.000092,-1.799999 0,-2.700001c0.000092,-0.9 0.126541,-1.831888 0.610672,-2.4c0.635178,-0.74535 0.921341,-1.598686 1.556,-2.233334c0.634644,-0.634642 1.494217,-0.827789 2.166656,-1.333332c0.665802,-0.500549 1.447083,-1.015818 1.984009,-1.349335c0.987137,-0.613167 1.863678,-1.031086 2.661331,-1.584c0.671799,-0.465681 1.333542,-1.016699 2.04216,-1.4c0.967041,-0.523083 1.594101,-0.765659 2.322006,-1.200001c0.926727,-0.552977 1.66185,-1.117744 2.414337,-1.352667c0.901489,-0.281445 1.577896,-0.634338 2.490158,-0.894665c0.908859,-0.259356 1.781967,-0.52581 2.585999,-1.052668c0.672638,-0.440763 1.365814,-0.944886 2.333344,-1c0.811447,-0.046223 1.487503,-0.476785 2.194992,-0.947333c0.831146,-0.552787 1.636826,-0.627444 2.638336,-0.886c0.776428,-0.200447 1.526886,-0.221363 2.374664,-0.592c0.961655,-0.420422 1.625168,-0.56425 2.604004,-0.574667c0.905289,-0.009634 1.687851,0.069945 2.622665,-0.085333c0.811874,-0.134857 1.576508,-0.575224 2.598663,-0.793167c0.788589,-0.16814 1.800003,-0.1215 2.58934,-0.1215c1.043991,0 1.800003,0 2.710663,0c0.899994,0 1.800003,-0.000084 2.699997,0c0.899841,0.000084 1.470276,0.546772 2.157166,0.942833c0.818527,0.471967 1.687393,0.368207 2.442841,0.773167c0.755966,0.405236 1.536514,0.832587 2.401337,1.200001c0.917938,0.38998 1.648804,0.476512 2.314667,0.885333c0.884598,0.543122 1.483032,1.199633 2.084,1.798667c0.698883,0.696625 1.392151,1.277288 2.199997,1.398666c0.908554,0.136509 1.469345,0.696751 2.115997,1.285334c0.634644,0.577646 0.791855,1.290722 1.094666,2.105333c0.272659,0.733498 0.803986,1.244987 1.010162,2.110666c0.22963,0.964178 1.052109,1.441395 1.579178,2.172001c0.587448,0.814297 0.823013,1.579308 1.042831,2.379833c0.278915,1.015768 0.337936,1.711637 0.355835,2.546833c0.021439,1.001104 -0.020615,1.801603 0.002655,2.799999c0.017853,0.765911 0.375946,1.665321 0.714676,2.400002c0.395111,0.856976 0.283997,1.801331 0.283997,2.722164c0,0.963169 0,1.653835 0,2.722c0,0.857166 0.017212,1.757355 0,2.557167c-0.018005,0.836582 -0.314346,1.673897 -0.574661,2.410667c-0.344788,0.975868 -0.352081,1.80434 -0.59201,2.789333c-0.19899,0.816891 -0.583008,1.592735 -0.780655,2.591c-0.164978,0.833225 -0.732956,1.456787 -0.970001,2.263668c-0.268417,0.913673 -0.368408,2.00618 -0.797012,2.692665c-0.295837,0.473846 -0.903107,1.124931 -1.485657,1.874001c-0.615875,0.791912 -0.97673,1.371326 -1.800003,2.411999c-0.386597,0.488689 -1.063553,1.049404 -1.666672,2c-0.428421,0.675247 -0.944092,1.149616 -1.933334,1.166668c-0.879288,0.015156 -1.386398,0.684662 -1.970657,1.201332c-0.586182,0.518364 -1.633728,1.114815 -2.22934,1.624001c-0.604492,0.516777 -1.391159,1.16758 -2.010666,1.549332c-0.637573,0.392876 -1.612305,0.944077 -2.414658,1.450668c-0.550476,0.347557 -1.607483,1.008888 -2.08934,1.290665c-0.873734,0.510941 -1.693985,1.040184 -2.285339,1.536667c-0.609085,0.51136 -1.379181,1.213463 -2.199997,1.711334c-0.58609,0.355499 -1.589233,0.85508 -2.179169,1.115166c-0.984619,0.434097 -1.568405,0.96698 -2.306168,1.435501c-0.691467,0.439125 -1.71553,0.048134 -2.514664,0.085335c-0.917633,0.042717 -1.416367,0.931305 -2.366669,1c-0.646393,0.04673 -2.452209,0.150009 -2.181488,0.942833c0.075592,0.221367 1.187576,-0.059036 1.827332,0.578003c0.641388,0.638664 0.937347,1.463654 1.520828,1.979164c0.637878,0.56356 1.109497,1.170059 1.801331,1.584c0.795349,0.475868 1.060684,1.429001 1.719498,1.916c0.685974,0.50708 1.190155,1.172173 1.645844,2c0.40419,0.734253 1.537811,0.867676 1.822662,1.610664c0.311111,0.811478 0.485855,1.589432 1.177338,2.222672c0.598038,0.547668 1.026398,1.290695 1.537827,1.866661c0.650208,0.732269 1.031357,1.458961 1.462173,2.300003c0.340302,0.66433 1.299088,1.197411 1.666656,2c0.340149,0.742722 0.38266,1.548035 1,2.166664c0.617661,0.61895 1.137375,1.189232 1.166672,2.133339c0.027863,0.898232 0.441956,1.485573 1.198669,1.985329c0.608917,0.402145 0.436066,1.512421 0.837326,2.278671c0.397125,0.758354 1.083298,1.21669 1.538666,2.035995c0.434525,0.781799 0.878281,1.50721 1.258667,2.400002c0.320206,0.751541 0.355377,1.487473 1,2.166664c0.601959,0.634239 1.112793,1.187042 1.666672,1.833336c0.524185,0.611649 0.955795,1.382072 1.416,2.198669c0.396118,0.702896 1.183838,1.022827 1.79866,1.602661l0.274673,0.798668l0.046661,0.964005" fill="none" id="svg_19" stroke="#000000" stroke-dasharray="null" stroke-linecap="null" stroke-linejoin="null" stroke-width="5"/>
  <path d="m43.5,151.5c0,1 0,1.800003 0,2.707993c0,1.056168 0,1.65451 0,2.652008c0,0.67334 0,1.869339 0,2.598328c0,1.041672 0,1.852341 0,2.727005c0,0.998672 0,1.814667 0,2.630661c0,0.998672 0,1.873337 0,2.884003c0,0.800003 -0.031876,1.801071 0.010666,2.600006c0.042725,0.802338 0.294846,1.592499 0.563999,2.399994c0.33049,0.991516 0.414917,1.799835 0.425335,2.800003c0.008331,0.799957 0,1.600006 0,2.604507c0,0.852661 -0.017296,1.817245 0.010666,2.620819c0.028633,0.822815 0.195004,1.858032 0.414669,2.538681c0.27145,0.841095 0.541752,1.83934 0.570164,2.693161c0.032066,0.963654 -0.026417,1.771576 0.061668,2.590164c0.111713,1.038162 0.41325,1.702316 0.658833,2.551331c0.284348,0.983032 0.236057,1.784225 0.636665,2.644165c0.424709,0.911682 0.646667,1.642502 0.647335,2.603836c0.000427,0.615005 0,1.837341 0,2.653336c0,0.547333 0,1.814667 0,2.479172c0,1.020828 -0.056255,1.829926 0.085335,2.620834c0.182407,1.018921 0.648827,1.780762 0.82933,2.801331c0.145947,0.82518 0.085335,1.765335 0.085335,2.551331c0,0.822006 0,1.880661 0,2.590164c0,0.852661 -0.000069,1.857162 0,2.657166c0.000084,0.999832 -0.144444,1.827148 0.221333,2.778503c0.299297,0.778442 0.76825,1.521317 0.778667,2.432159c0.010418,0.910782 0,1.800003 0,2.789169c0,0.779343 0,1.778839 0,2.552841c0,0.904495 0,1.651825 0,2.648666c0,0.834656 0,1.765335 0,2.555832c0,0.8535 0,2.042831 0,2.642838c0,0.899994 0,1.799988 0,2.699997c0,0.899994 0.002262,1.800003 0,2.699997c-0.002251,0.895508 0.034897,1.775085 -0.166668,2.833328c-0.138054,0.724808 -0.542576,1.606628 -0.711834,2.587845c-0.135666,0.786469 -0.119247,1.569 -0.121498,2.609497c-0.001842,0.85199 0.001724,1.805328 0,2.570663c-0.002251,0.998672 0.003616,1.814423 -0.284,2.79866c-0.178871,0.612106 -0.600712,1.593201 -0.68,2.389343c-0.103519,1.039474 0.067528,1.808105 -0.056831,2.731506c-0.110161,0.817993 -0.621304,1.670807 -0.8125,2.479156c-0.227871,0.963379 -0.166668,1.833344 -0.166668,2.625336l0,1.027344l0,0.694641l0,1.006012" fill="none" id="svg_20" stroke="#000000" stroke-dasharray="null" stroke-linecap="null" stroke-linejoin="null" stroke-width="5"/>
  <path d="m117.5,149.5c-1.833336,0.166672 -2.215225,0.939102 -3.100166,1c-0.78331,0.053909 -1.759476,-0.137192 -2.73317,0.166672c-0.729355,0.227615 -1.494972,0.710083 -2.438667,0.797333c-0.547577,0.050629 -1.727997,0.035995 -2.636993,0.035995c-0.632668,0 -1.661667,0 -2.833839,0c-0.426498,0 -1.318497,0 -2.2425,0c-0.931999,0 -1.848015,-0.004181 -2.729332,0.001328c-0.849373,0.00531 -1.676216,0.013702 -2.484001,0.084c-1.204453,0.104813 -2.001328,0.267334 -2.801331,0.414673c-0.800003,0.147339 -1.998558,0.348999 -2.798668,0.414673c-0.789543,0.064819 -1.565285,0.07933 -2.316002,0.084c-1.398636,0.008698 -2.042282,0.036606 -2.92366,-0.055832c-1.047462,-0.109863 -1.721497,-0.419525 -2.645668,-0.658844c-0.987236,-0.255646 -1.818726,-0.260849 -2.363335,-0.33667c-1.274666,-0.17746 -1.877609,-0.553818 -2.931335,-0.825821c-0.75795,-0.195663 -1.673996,-0.121506 -2.537331,-0.121506c-0.963165,0 -1.788498,0 -2.805336,0c-0.678665,0 -1.657166,0 -2.477333,0c-0.901329,0 -1.801331,0.000626 -2.722168,0c-0.965828,-0.000671 -1.732529,0.004669 -2.645828,-0.166672c-0.802467,-0.150558 -1.675953,-0.427765 -2.320004,-0.549332c-1.029335,-0.19429 -2.149113,-0.256088 -2.924,-0.273331c-0.790524,-0.017593 -1.989388,-0.016495 -2.789333,-0.006165c-0.800098,0.01033 -1.603436,0.019943 -2.799999,0.16217c-0.802906,0.095444 -1.599285,0.262527 -2.400002,0.40799c-0.799309,0.145203 -1.598331,0.2771 -2.397331,0.340012c-1.159203,0.091278 -1.888325,0.083069 -2.869335,0.085327c-0.823494,0.001892 -1.781498,0 -2.754665,0c-0.804001,0 -1.625999,0 -2.657001,0l-0.879997,0" fill="none" id="svg_21" stroke="#000000" stroke-dasharray="null" stroke-linecap="null" stroke-linejoin="null" stroke-width="5"/>
  <path d="m111.5,261.5c-1.757164,-0.057159 -2.641106,-0.381531 -3.347336,-0.647339c-0.882561,-0.332153 -1.852661,-0.352661 -2.752663,-0.352661c-0.900002,0 -1.700005,0 -2.599998,0c-0.936005,0 -1.785339,0 -2.510674,0c-0.989326,0 -1.789352,0.006683 -2.78933,0c-0.800056,-0.005341 -1.610367,-0.049042 -2.6045,-0.352661c-0.862808,-0.263519 -1.81456,-0.553711 -2.6315,-0.611328c-0.86692,-0.061157 -1.764,-0.036011 -2.6595,-0.036011c-0.8685,0 -1.937836,0 -2.64283,0c-0.800003,0 -1.836334,0 -2.783173,0c-0.699333,0 -1.678497,0 -2.657661,0c-0.854172,0 -1.646172,0 -2.6735,0c-0.694672,0 -1.722229,0.02066 -2.668503,-0.000153c-0.818085,-0.018005 -1.515503,-0.619965 -2.249496,-0.91452c-0.781631,-0.31366 -1.832001,-0.085327 -2.70134,-0.085327c-1.061333,0 -1.699997,0 -2.41066,0c-0.774673,0 -1.605339,0.003021 -2.938667,-0.000153c-0.931343,-0.002228 -1.404404,0.001648 -2.353336,-0.035858c-0.941891,-0.037231 -1.860691,-0.116333 -2.740002,-0.247986c-0.851517,-0.127502 -1.672108,-0.306183 -2.483997,-0.432007c-1.197834,-0.185608 -1.99688,-0.230621 -2.780502,-0.283997c-0.76371,-0.052002 -1.858639,-0.143829 -2.863667,-0.352661c-0.639507,-0.132874 -1.549889,-0.400696 -2.457001,-0.525848c-0.885212,-0.122131 -1.743,-0.117004 -2.7785,-0.12149l-0.879997,0l-1.020168,0l-0.716999,0" fill="none" id="svg_22" stroke="#000000" stroke-dasharray="null" stroke-linecap="null" stroke-linejoin="null" stroke-width="5"/>
  <path d="m105.5,203.5c0.166664,1.833328 0.93911,2.215225 1,3.100006c0.06179,0.897873 0.124298,1.677429 0.574669,2.5c0.427277,0.78038 0.30867,1.743164 0.646667,2.500168c0.319237,0.714981 0.746117,1.555664 0.774162,2.304321c0.037216,0.993484 0.004501,1.938339 0.004501,2.842834c0,0.919342 -0.050514,1.753983 0.000168,2.731171c0.042709,0.823456 0.631203,1.492554 0.878334,2.343002c0.250038,0.860443 0.121498,1.878494 0.121498,2.678497c0,1 0,1.800003 0,2.600006c0,0.995499 0,1.742828 0,2.774658c0,0.946838 0,1.646164 0,2.625336c0,0.800003 0,1.600006 0,2.595505c0,0.919159 0,1.904495 0,2.726166c0,0.925003 0,1.845001 0,2.630997c0,0.822006 0,1.880661 0,2.800659c0,0.76001 0.036057,1.76268 -0.221336,2.568176c-0.229141,0.717087 -0.663376,1.671692 -0.742661,2.467834c-0.103516,1.039474 -0.036003,1.800003 -0.036003,2.710663c0,0.899994 0,1.800003 0,2.699997c0,0.900009 0,1.800003 0,2.599991l0,0.900024l0,0.899994l0,0.963989" fill="none" id="svg_23" stroke="#000000" stroke-dasharray="null" stroke-linecap="null" stroke-linejoin="null" stroke-width="5"/>
  <path d="m76.5,199.5c1.800003,0 2.646828,0.001495 3.486664,0.283997c0.771225,0.259415 1.677559,0.567535 2.461502,0.66333c0.788475,0.096359 1.898064,0.298477 2.666504,0.627335c0.859314,0.367752 1.596115,0.406982 2.585167,0.425507c0.779465,0.014603 1.742371,0.295441 2.552834,0.647171c0.872887,0.37883 1.651825,0.350403 2.645996,0.352661c0.765335,0.00174 1.778885,-0.188995 2.701332,0.221329c0.67234,0.299072 1.5,0.768005 2.400002,0.778671l0.900002,0l0.900002,0l0.899994,0" fill="none" id="svg_24" stroke="#000000" stroke-dasharray="null" stroke-linecap="null" stroke-linejoin="null" stroke-width="5"/>
  <path d="m166.5,156.5c-0.166672,1 -0.678391,1.60141 -0.916,2.486664c-0.199051,0.741577 -0.288086,1.940308 -0.450165,2.484009c-0.285522,0.957779 -0.596512,1.69072 -0.967163,2.529327c-0.424057,0.959427 -0.676697,1.464859 -1.166672,2.541672c-0.25174,0.553238 -0.505692,1.110123 -0.731995,1.677002c-0.657669,1.647446 -0.80632,2.19545 -1.11734,3.255997c-0.153793,0.524429 -0.448486,1.580353 -0.618668,2.109329c-0.34996,1.087738 -0.798096,2.203308 -1.046326,2.773163c-0.253036,0.580887 -0.805176,1.754395 -1.094666,2.347336c-0.291824,0.597733 -0.891006,1.795502 -1.19101,2.395508c-0.599991,1.199997 -0.899994,1.799988 -1.199997,2.399994c-0.300003,0.600006 -0.600006,1.199997 -0.899994,1.800003c-0.899826,1.799683 -1.198669,2.397324 -1.495499,2.990997c-0.293839,0.587662 -0.868515,1.737 -1.147339,2.294662c-0.271835,0.543671 -1.037018,2.070587 -1.270508,2.543671c-0.442856,0.897263 -0.846848,1.746323 -1.024994,2.161667c-0.514954,1.200638 -0.782898,2.004272 -1.025665,2.787659c-0.231613,0.747421 -0.399536,1.462982 -0.835999,2.652008c-0.277878,0.757004 -0.607788,1.448914 -1.001343,2.454666c-0.325958,0.832993 -0.518097,1.437729 -1.119995,2.61467c-0.312073,0.610229 -0.699524,1.188354 -1.194672,2.099991c-0.482925,0.88913 -0.771103,1.48439 -1.037323,2.400009c-0.344025,1.183228 -0.360428,1.798874 -0.446671,2.679169c-0.081879,0.835709 -0.265564,1.843964 -0.520828,2.520828c-0.445053,1.180099 -0.686005,1.682907 -0.979172,2.520828c-0.30719,0.878021 -0.612427,1.775223 -0.889328,2.679169c-0.183029,0.597504 -0.451385,1.799057 -0.5625,2.699997c-0.073929,0.599426 -0.155121,1.521378 -0.491013,2.400009c-0.354416,0.927094 -0.755768,1.492844 -1.074493,2.099991c-0.622208,1.185272 -0.876526,1.776855 -1.121002,2.642838c-0.288864,1.023209 -0.291306,1.950348 -0.528336,2.957169c-0.143951,0.61145 -0.544479,1.384995 -0.749329,2.399994c-0.159729,0.791489 -0.301193,1.801453 -0.584,2.600006c-0.212891,0.60112 -0.425873,1.607437 -0.552673,2.457169c-0.14447,0.968124 -0.36264,1.775208 -0.651825,2.590164c-0.369324,1.040833 -0.690048,1.719284 -0.995499,2.34816c-0.489975,1.008774 -0.935715,1.783844 -1.133331,2.604507c-0.231766,0.962463 0.01886,1.866211 -0.223831,2.695496c-0.257935,0.881363 -0.885681,1.604507 -0.944168,2.504501l-0.165344,0.800003l-0.480667,0.699997" fill="none" id="svg_25" stroke="#000000" stroke-dasharray="null" stroke-linecap="null" stroke-linejoin="null" stroke-width="5"/>
  <path d="m201.5,256.5c-0.166672,-1 -0.64003,-1.572571 -1.309006,-2.317993c-0.529419,-0.589905 -1.032028,-1.343765 -1.462997,-2.027344c-0.52002,-0.824829 -0.793564,-1.298706 -1.085327,-1.805328c-0.637405,-1.106827 -1.311371,-2.348251 -1.664169,-3.01384c-0.365936,-0.690384 -0.736938,-1.406357 -1.114502,-2.143494c-0.386124,-0.753845 -0.775269,-1.523697 -1.168503,-2.305496c-0.397461,-0.790207 -1.196304,-2.386108 -1.595169,-3.186508c-0.398468,-0.799606 -0.794571,-1.598419 -1.178986,-2.399994c-0.382919,-0.798447 -0.755219,-1.597397 -1.10701,-2.400009c-0.349518,-0.79744 -0.989197,-2.397064 -1.2715,-3.200653c-0.281693,-0.801834 -0.538788,-1.615616 -0.781494,-2.442001c-0.246399,-0.838959 -0.478912,-1.700577 -0.709503,-2.585999c-0.237488,-0.911896 -0.718628,-2.837982 -0.973007,-3.856171c-0.261612,-1.047134 -0.527466,-2.112213 -0.793488,-3.184509c-0.264969,-1.068039 -0.524963,-2.121094 -0.775513,-3.148499c-0.241409,-0.989929 -0.677521,-2.815247 -0.867157,-3.632156c-0.175613,-0.756454 -0.335876,-1.463669 -0.492004,-2.130005c-0.149261,-0.637009 -0.297592,-1.254303 -0.455994,-1.860001c-0.15892,-0.607666 -0.52417,-1.861221 -0.737335,-2.523834c-0.221375,-0.688126 -0.461212,-1.390167 -0.708008,-2.101501c-0.247849,-0.714355 -0.499252,-1.422455 -0.743988,-2.119492c-0.237915,-0.677643 -0.675156,-1.947479 -0.862335,-2.529343c-0.175278,-0.544891 -0.33168,-1.060806 -0.471008,-1.55249c-0.133194,-0.470032 -0.252914,-0.926102 -0.362991,-1.372513c-0.108566,-0.440277 -0.308731,-1.32756 -0.510345,-2.244827c-0.103027,-0.468704 -0.308884,-1.418716 -0.555832,-2.363327c-0.122894,-0.470078 -0.55423,-1.835052 -0.895493,-2.695511c-0.167801,-0.423111 -0.534836,-1.241196 -0.863342,-2.055832c-0.48143,-1.193863 -0.736099,-1.998642 -0.963165,-2.801331c-0.225571,-0.79744 -0.519882,-2.000244 -0.720825,-2.79866c-0.199051,-0.790924 -0.394623,-1.566803 -0.600006,-2.31601c-0.292175,-1.065796 -0.514328,-1.718353 -0.763992,-2.638657c-0.291428,-1.074249 -0.402695,-1.788361 -0.431503,-2.642166c-0.033936,-1.005295 0.003159,-1.847687 -0.171173,-2.771179c-0.149002,-0.789383 -0.440384,-1.563568 -0.666656,-2.5c-0.194809,-0.806213 -0.450668,-1.817322 -0.741333,-2.507996l-0.340012,-0.940002l-0.085327,-0.88533l-0.166672,-0.833328" fill="none" id="svg_26" stroke="#000000" stroke-dasharray="null" stroke-linecap="null" stroke-linejoin="null" stroke-width="5"/>
  <path d="m142.5,223.5c1.800003,0 2.699997,0 3.600006,0c0.899994,0 1.728027,-0.085785 2.721329,0.221329c0.700912,0.216705 1.501007,0.685486 2.304001,0.768005c1.026474,0.105499 1.77916,0.010666 2.774658,0.010666c0.800003,0 1.799835,0 2.579178,0c0.999329,0 1.853973,-0.196289 2.720825,0.057159c0.877655,0.256607 1.603516,0.903458 2.466675,0.942841c0.832718,0.037994 1.791504,0.261749 2.458664,0.574661c0.836136,0.392151 1.721985,0.42308 2.617493,0.425339c0.957169,0.002411 1.857178,0 2.757172,0c0.800003,0 1.699997,0 2.600006,0c0.899994,0 1.799988,0 2.699997,0c0.899994,0 1.800003,0 2.699997,0c0.800003,0 1.699997,0 2.600006,0l0.899994,0" fill="none" id="svg_27" stroke="#000000" stroke-dasharray="null" stroke-linecap="null" stroke-linejoin="null" stroke-width="5"/>
  <path d="m225.5,155.5c0,1.800003 0,2.699997 0,3.541672c0,1.001495 0,1.740997 0,2.624496c0,1.000504 0.006271,1.719299 -0.010666,2.469833c-0.017487,0.774872 -0.045395,1.569016 -0.210663,2.76416c-0.111633,0.807312 -0.292618,1.618332 -0.42601,2.457001c-0.207764,1.306229 -0.271423,2.227997 -0.299988,2.699997c-0.058304,0.963348 -0.098297,1.94783 -0.136673,2.444168c-0.116028,1.500305 -0.194901,1.998093 -0.341339,2.988007c-0.144302,0.975433 -0.249557,1.450104 -0.40799,2.843994c-0.100128,0.880859 -0.140869,1.741364 -0.166672,2.166672c-0.051727,0.852722 -0.156662,2.168015 -0.283997,3.084c-0.131058,0.94281 -0.225906,1.414505 -0.363342,2.363327c-0.20047,1.383987 -0.244522,1.830292 -0.295502,2.695511c-0.04924,0.835678 -0.053909,1.652664 -0.057159,2.857162c-0.002151,0.797333 0.013123,1.579834 -0.035995,2.328003c-0.088104,1.342148 -0.328293,2.158707 -0.538666,2.886658c-0.27388,0.947739 -0.387589,1.741669 -0.414673,2.596008c-0.037689,1.188782 -0.010666,1.786667 -0.010666,2.647659c0,0.771011 0,1.891006 0,2.875c0,0.676498 0.009674,1.452042 -0.000168,2.745331c-0.005295,0.696075 -0.01207,1.383133 -0.283829,2.605347c-0.121429,0.546127 -0.421249,1.352036 -0.594498,2.394653c-0.151932,0.914291 -0.120834,1.605347 -0.121506,2.606674c-0.000549,0.835495 0.008667,1.716049 -0.001328,2.914673c-0.005005,0.600037 -0.008255,1.507477 -0.220001,2.699997c-0.107376,0.604736 -0.373535,1.49559 -0.494675,2.099991c-0.23877,1.19133 -0.272369,2.07901 -0.282669,2.914673c-0.012329,0.999924 -0.001328,1.874664 -0.001328,2.88533c0,0.800003 0,1.800003 0,2.600006c0,0.800003 0.050003,1.805466 -0.057159,2.599991c-0.109161,0.809341 -0.522629,1.576859 -0.776169,2.600006c-0.192444,0.776596 -0.166672,1.833328 -0.166672,2.625336c0,0.858658 0.076218,1.725616 -0.004501,2.621994c-0.083725,0.929779 -0.474548,1.570374 -0.711502,2.354004c-0.295151,0.976074 -0.282669,1.91333 -0.283997,2.877838l0,0.825333l0,1.01683l0,0.678665" fill="none" id="svg_28" stroke="#000000" stroke-dasharray="null" stroke-linecap="null" stroke-linejoin="null" stroke-width="5"/>
  <path d="m204.5,182.5c1,-1 1,-1.814331 1,-2.77066c0,-0.771011 -0.005142,-1.632019 0.000168,-2.529343c0.005341,-0.90004 0.01944,-1.805374 0.166504,-2.699997c0.148361,-0.902496 0.426346,-1.759613 0.549332,-2.314667c0.272263,-1.228806 0.280579,-1.950851 0.450668,-3.018661c0.101578,-0.637634 0.341461,-1.670151 0.537827,-2.361343c0.277634,-0.977249 0.615707,-1.781937 0.859497,-2.483994c0.350632,-1.00972 0.390045,-1.849792 0.602676,-2.988007c0.097702,-0.52301 0.348679,-1.355927 0.634659,-2.234665c0.293076,-0.900513 0.598663,-1.79866 0.798676,-2.398666c0.400009,-1.199997 0.592804,-1.801147 0.899994,-2.679169c0.293167,-0.837921 0.720581,-1.82666 0.979172,-2.5c0.38739,-1.008682 0.478317,-1.833801 0.573502,-2.477997c0.143082,-0.968323 0.362625,-1.775208 0.651825,-2.590164c0.369308,-1.04068 0.649185,-1.732224 1.095505,-2.466003c0.545486,-0.896835 1.206863,-1.649216 1.599991,-2.311996c0.407166,-0.686478 1.009872,-1.529495 1.600006,-2.174667c0.57373,-0.627243 0.819443,-1.511902 1.06134,-2.174667c0.366119,-1.003128 1.139954,-1.363907 1.828827,-2.120834c0.582001,-0.639496 0.989578,-1.430267 1.7565,-1.693832c0.794479,-0.273041 1.609711,0.006836 2.774826,-0.232162c0.541321,-0.111038 1.389709,-0.387543 2.578506,-0.778503c0.601608,-0.197845 1.515823,-0.500015 2.157166,-0.642838c1.002762,-0.223312 2.095093,-0.309998 2.842834,-0.336334c0.74704,-0.026321 1.833328,-0.020828 2.513336,-0.020828c0.944992,0 1.800003,0 2.801331,0c0.874664,0 1.88533,0 2.685333,0c1,0 1.789337,0 2.833328,0c0.792007,0 1.653336,0 2.413345,0c1.17482,0 1.710495,0 2.563995,0c1.189331,0 2.089828,-0.008789 2.689331,0.020828c0.901199,0.044525 2.100754,0.260025 2.699997,0.40451c0.901154,0.217285 1.797928,0.425797 2.699997,0.521988c0.898285,0.095779 1.510895,0.080032 2.698669,0.338013c0.890686,0.193451 1.452759,0.397354 2.479675,0.814499c0.887817,0.360641 1.745178,0.79274 2.510986,0.889496c0.968079,0.122299 1.262054,0.741837 1.84668,1.399994c0.616241,0.693771 1.691986,0.799316 2.264008,1.31517c0.727203,0.655792 0.836914,1.691299 1.585327,2.210175c0.673035,0.466614 1.505127,0.429535 1.936157,1.185333c0.381561,0.669083 1.375946,1.197037 1.693176,2.099991c0.299683,0.852951 0.097046,1.653503 0.695984,2.400009c0.614838,0.766342 1.210419,1.263382 1.353333,2.225327c0.148224,0.997681 0.022156,1.815994 0.320007,2.658661c0.249725,0.706512 0.672058,1.628601 0.714661,2.400009c0.05249,0.950546 0.001343,1.717331 0.001343,2.711502c0,0.919159 0.03067,1.879837 0.348175,2.709c0.328674,0.858322 0.151642,1.519577 -0.065521,2.296829c-0.275482,0.986053 -0.280396,1.79866 -0.282654,2.79866c-0.001801,0.800003 0.041382,1.802277 -0.020844,2.620834c-0.087585,1.151764 -0.233765,1.674973 -0.520813,2.5c-0.31076,0.893173 -0.77951,1.779175 -1.106506,2.379166c-0.490509,0.900009 -0.866455,1.475159 -1.182495,2.697342c-0.148041,0.572449 -0.129913,1.675247 -0.522003,2.588333c-0.280701,0.653717 -0.634918,1.514404 -0.647339,2.414337c-0.012726,0.920975 -0.249023,1.902298 -0.610657,2.574661c-0.445831,0.828918 -1.021301,1.428787 -1.489349,2.146667c-0.430237,0.659897 -1.07785,1.607925 -1.463989,2.304001c-0.450409,0.811951 -0.32663,1.66391 -1.005341,2.490662c-0.507172,0.617783 -1.317017,1.011871 -1.794678,1.720001c-0.492188,0.729675 -0.750732,1.614975 -1.235992,2.292007c-0.602844,0.84108 -1.566193,1.028137 -2.100006,1.633667c-0.582672,0.66095 -0.915344,1.500137 -1.633331,2.238327c-0.626038,0.643646 -1.171387,0.972778 -1.898651,1.514664c-0.959991,0.715271 -1.580688,1.161713 -2.368011,1.510666c-0.817719,0.362411 -1.617294,0.835739 -2.566666,1.141342c-0.68306,0.219864 -1.4254,0.593567 -2.428833,0.780655c-0.741928,0.138321 -1.557205,0.593704 -2.504501,0.931168c-0.855499,0.304764 -1.810745,-0.242859 -2.542831,0.178665c-0.811493,0.467239 -1.395416,0.769287 -2.157166,1.028168c-0.887909,0.301758 -1.640045,0.651245 -2.495499,0.919174c-0.75383,0.236099 -0.824326,1.404663 -0.420502,2.195496c0.336227,0.658478 1.046066,1.250763 1.549332,1.966675c0.488724,0.695236 0.484299,1.57991 1.082672,2.117325c0.638458,0.573425 1.168076,1.130524 1.731339,1.768677c0.525528,0.595398 1.090485,1.309219 1.377991,2.096664c0.303482,0.831223 0.914795,1.401459 1.327332,2.150665c0.461807,0.838699 0.764236,1.480728 1.222,2.300003c0.443253,0.793304 0.860748,1.727631 1.286667,2.235992c0.482208,0.575562 1.145432,1.346985 1.617844,2.164001c0.340256,0.58847 0.790466,1.612564 1.220825,2.342834c0.466537,0.791672 0.947617,1.483902 1.352676,2.357162c0.385681,0.831482 0.645935,1.680374 1.304504,2.24733c0.687622,0.59198 1.411011,0.926132 1.617493,1.878006c0.148254,0.68338 0.580566,1.651245 1.02533,2.341339c0.520752,0.807983 0.566132,1.793869 1.052673,2.471664c0.466034,0.649185 0.901489,1.249969 0.958008,2.186996c0.041809,0.693436 0.514832,1.649536 1.089142,2.274673c0.547455,0.595917 0.792603,1.508453 0.921021,2.420822c0.115021,0.817184 0.653503,1.62294 0.857666,2.457672c0.244415,0.999237 0.539124,1.575912 1,2.242996c0.504028,0.729538 0.669891,1.44783 1.064331,2.135666c0.469879,0.819412 -0.067017,1.851471 0.057312,2.742676c0.111908,0.802109 0.886505,1.069489 1.64801,1.610001l0.641998,0.641998l0.540497,0.76149l0.453339,0.802658" fill="none" id="svg_29" stroke="#000000" stroke-dasharray="null" stroke-linecap="null" stroke-linejoin="null" stroke-width="5"/>
  <path d="m311.5,147.5c0,1.800003 0.006042,2.672012 -0.000153,3.543335c-0.005341,0.750061 -0.033325,1.682587 -0.166504,2.789993c-0.1008,0.838348 -0.18277,1.277924 -0.354187,2.1875c-0.17572,0.932526 -0.478912,2.312546 -0.578979,2.757843c-0.195221,0.868774 -0.398834,1.717819 -0.542999,2.57399c-0.220459,1.309326 -0.244232,1.768097 -0.304504,2.700012c-0.061218,0.946808 -0.059937,1.423294 -0.136688,2.363327c-0.11145,1.364899 -0.256287,2.23172 -0.457642,3.063171c-0.199005,0.821701 -0.319977,1.228851 -0.779663,2.421158c-0.314392,0.815414 -0.689484,1.637115 -1.026001,2.514008c-0.174286,0.454208 -0.639771,1.926865 -0.767334,2.459c-0.267487,1.115814 -0.368073,1.709351 -0.47467,2.319992c-0.109863,0.629379 -0.410889,2.639969 -0.511017,3.349503c-0.102539,0.726471 -0.205353,1.467499 -0.320984,2.218506c-0.117004,0.76001 -0.243835,1.525299 -0.393005,2.290497c-0.149506,0.766861 -0.510071,2.284058 -0.728516,3.026825c-0.217621,0.740005 -0.463104,1.470032 -0.718475,2.196014c-0.255646,0.7267 -0.525085,1.450256 -0.790497,2.177994c-0.266571,0.730942 -0.786774,2.212311 -1.02652,2.96817c-0.240265,0.757507 -0.463348,1.51738 -0.674988,2.272491c-0.208313,0.743256 -0.404633,1.472153 -0.76001,2.866669c-0.324219,1.272263 -0.46109,1.855087 -0.734009,2.911331c-0.125366,0.485168 -0.357849,1.392502 -0.636658,2.223343c-0.407928,1.21553 -0.769287,2.00322 -1.095154,2.805328c-0.162079,0.398956 -0.511383,1.185287 -0.778015,2.399673c-0.172058,0.783752 -0.194092,1.561722 -0.3255,2.629654c-0.114594,0.931152 -0.346313,1.712082 -0.718658,2.653336c-0.293152,0.741043 -0.602722,1.551941 -0.898682,2.421844c-0.304169,0.894073 -0.60849,1.78244 -0.863983,2.623489c-0.283844,0.934387 -0.399414,1.780167 -0.602661,2.605331c-0.228638,0.928329 -0.486847,1.686584 -0.933167,2.523834c-0.417908,0.783966 -0.79953,1.630875 -0.925507,2.3535c-0.173218,0.993576 -0.54776,1.767868 -0.808014,2.789337c-0.197968,0.777069 -0.208984,1.532394 -0.59198,2.374664c-0.368774,0.81102 -0.557709,1.646088 -0.574677,2.625336c-0.013855,0.799957 -0.002533,1.626404 -0.357178,2.595505c-0.283203,0.773895 -0.937744,1.463196 -1.285645,2.157166c-0.427063,0.851898 -0.334045,1.652115 -0.358521,2.647324c-0.019684,0.800507 -0.184937,1.814072 -0.519501,2.600006c-0.434296,1.020279 -0.838196,1.581314 -1.121979,2.457169c-0.306,0.944412 -0.315765,1.780411 -0.409851,2.647339c-0.097382,0.897446 -0.299561,1.791092 -0.522003,2.6595c-0.141052,0.55072 -0.38797,1.77771 -0.414642,2.425323c-0.041595,1.009888 -0.010681,1.810669 -0.010681,2.810669l0,0.979156l0,0.854187l-0.085327,0.880005" fill="none" id="svg_30" stroke="#000000" stroke-dasharray="null" stroke-linecap="null" stroke-linejoin="null" stroke-width="5"/>
  <path d="m352.5,261.5c-1.169342,-0.886658 -1.717224,-1.667572 -2.0625,-2.0625c-0.622559,-0.712067 -1.369659,-1.572266 -1.890167,-2.256348c-0.559113,-0.734833 -0.841003,-1.126404 -1.363342,-1.969147c-0.53717,-0.866699 -1.004639,-1.794479 -1.226837,-2.269165c-0.448456,-0.958069 -0.651306,-1.451538 -1.055817,-2.444168c-0.406189,-0.996719 -0.803833,-2.001694 -1.001343,-2.512177c-0.405121,-1.047028 -0.606781,-1.592148 -0.799988,-2.15799c-0.621857,-1.821182 -0.803833,-2.491867 -0.998688,-3.184509c-0.200958,-0.71434 -0.394714,-1.450989 -0.580475,-2.206497c-0.188965,-0.768494 -0.370392,-1.549561 -0.535522,-2.341507c-0.332214,-1.593231 -0.467529,-2.395203 -0.599976,-3.194656c-0.131897,-0.796219 -0.251465,-1.590363 -0.364502,-2.380508c-0.112244,-0.784546 -0.216766,-1.563599 -0.319519,-2.335495c-0.202148,-1.518555 -0.300659,-2.263763 -0.401337,-2.998672c-0.099335,-0.725082 -0.197845,-1.440292 -0.399994,-2.839996c-0.098969,-0.68515 -0.197723,-1.360352 -0.399994,-2.679993c-0.098907,-0.645172 -0.299194,-1.905136 -0.399994,-2.520004c-0.099213,-0.605133 -0.298706,-1.785233 -0.399994,-2.360001c-0.197449,-1.120453 -0.398438,-2.203232 -0.504517,-2.733994c-0.210602,-1.053833 -0.319397,-1.580933 -0.580841,-2.636673c-0.26889,-1.085815 -0.596985,-2.199173 -0.767334,-2.76416c-0.17099,-0.567032 -0.522217,-1.69043 -0.694641,-2.242004c-0.168915,-0.540421 -0.635773,-2.065536 -0.895508,-2.995499c-0.123383,-0.441727 -0.34845,-1.292496 -0.555847,-2.111664c-0.304352,-1.202118 -0.499176,-2.008972 -0.722168,-2.823502c-0.229492,-0.838242 -0.642639,-2.146927 -0.800476,-2.60051c-0.32486,-0.933624 -0.506256,-1.403168 -0.853333,-2.353333c-0.343536,-0.940521 -0.667877,-1.855774 -0.940002,-2.738663c-0.258087,-0.837357 -0.472046,-1.640732 -0.684021,-2.399994c-0.297638,-1.06604 -0.484039,-1.73085 -0.801331,-2.639999c-0.379486,-1.087372 -0.705017,-1.791809 -1,-2.472c-0.406952,-0.938354 -0.704926,-1.730118 -1,-2.585342c-0.2034,-0.589508 -0.600006,-1.789337 -0.799988,-2.389328c-0.299988,-0.900009 -0.600006,-1.800003 -0.899994,-2.699997c-0.200012,-0.600006 -0.504669,-1.498459 -0.799835,-2.400009c-0.294159,-0.898483 -0.579773,-1.792999 -0.733521,-2.699997c-0.150146,-0.885635 -0.080688,-1.751648 -0.333313,-2.666672c-0.233734,-0.846542 -0.682678,-1.660233 -0.858673,-2.507996c-0.168182,-0.81012 -0.670685,-1.501694 -0.97467,-2.346161c-0.341095,-0.947571 -0.629486,-1.718109 -1,-2.645844c-0.311462,-0.779816 -0.517578,-1.323212 -0.714661,-2.149323c-0.289764,-1.214615 -0.231476,-1.891983 -0.506836,-2.884171c-0.233612,-0.841736 -0.600128,-1.477325 -0.977173,-2.482498c-0.29657,-0.790665 -0.517456,-1.547653 -0.776001,-2.656006c-0.193085,-0.827744 -0.600311,-1.635117 -0.858673,-2.494659c-0.222198,-0.739258 -0.144287,-1.68779 -0.167999,-2.652008c-0.017853,-0.725937 -0.225372,-1.712814 -0.498657,-2.514664c-0.340057,-0.997742 -0.47467,-1.789337 -0.584015,-2.514664l-0.341309,-0.849335l-0.490662,-0.834671" fill="none" id="svg_31" stroke="#000000" stroke-dasharray="null" stroke-linecap="null" stroke-linejoin="null" stroke-width="5"/>
  <path d="m294.5,219.5c1,0 1.815247,-0.122467 2.757172,0.057159c0.930481,0.17746 1.631622,0.653519 2.442841,0.821335c0.789581,0.163345 1.801056,0.08963 2.599976,0.132172c0.802368,0.042725 1.791199,0.383804 2.657166,0.636673c0.951782,0.277924 1.771301,0.299637 2.590179,0.405334c1.036255,0.133759 1.70166,0.419983 2.551331,0.66333c0.98703,0.2827 1.801331,0.281738 2.801331,0.283997c0.800018,0.001801 1.799835,-0.000061 2.579163,0c0.999512,0.000092 1.786682,0.019638 2.673523,0.352661c0.70639,0.265259 1.593323,0.618744 2.513977,0.647339c0.832947,0.025864 1.811829,0 2.632019,0c0.901337,0 1.801331,0 2.701324,0c0.899994,0 1.799988,0 2.700012,0c0.899994,0 1.799988,0 2.599976,0l0.900024,0" fill="none" id="svg_32" stroke="#000000" stroke-dasharray="null" stroke-linecap="null" stroke-linejoin="null" stroke-width="5"/>
  <path d="m372.5,147.5c0.057159,1.699997 0.686157,2.422379 0.942841,3.300003c0.252777,0.864273 0.057159,1.866669 0.057159,2.699997c0,0.814331 0,1.77066 0,2.541672c0,0.860992 0,1.758667 0,2.679657c0,0.650665 0,2.112 0,2.5215c0,0.867004 0,1.778 0,2.709c0,0.4655 0,1.826675 0,2.69101c0,0.836334 0,1.652664 0,2.857162c0,0.797333 0,1.578659 0,2.328003c0,1.338669 0,2.166656 0,2.922668c0,1.082657 0,1.718658 0,2.41066c0,1.0905 0,2.171997 0,2.853333c0,0.964508 0,1.580841 0,2.785339c0,0.899994 0,1.5 0,2.699997c0,0.899994 0,1.5 0,2.399994c0,1.200012 0,1.800003 0,2.700012c0,1.200165 0,1.804489 0,2.735992c0,0.649338 0,2.049332 0,2.800003c0,0.774658 0,1.565338 0,2.763992c0,0.800003 0,1.600006 0,2.400009c0,1.199997 0,1.998657 0,2.789337c0,0.774658 0,1.52533 0,2.589325c0,0.996002 0.001251,1.646667 0,2.988007c-0.000671,0.718658 0.000793,1.469788 -0.036011,2.243988c-0.037598,0.791321 -0.177551,1.990646 -0.31665,2.789337c-0.139557,0.801392 -0.325348,1.595657 -0.480682,2.800003c-0.103058,0.798965 -0.138153,1.61087 -0.191986,2.436005c-0.05542,0.849548 -0.131897,1.731918 -0.258667,2.649323c-0.131561,0.952072 -0.228271,1.433746 -0.363342,2.419174c-0.204651,1.493057 -0.242157,1.994858 -0.295502,2.995499c-0.026642,0.499741 -0.050476,1.499969 -0.055817,2.5c-0.005341,0.999985 -0.000092,1.99736 -0.005829,2.490997c-0.011261,0.967407 -0.009735,1.899063 -0.16217,3.175674c-0.091644,0.767502 -0.26828,1.46994 -0.40802,2.147995c-0.277832,1.34819 -0.345581,2.069016 -0.399994,2.810669c-0.054962,0.749023 -0.056976,1.499161 -0.309326,2.888c-0.117188,0.644852 -0.411804,1.515396 -0.594513,2.565002c-0.116669,0.670303 -0.12149,1.75499 -0.12149,2.582993c0,0.8815 0,1.600006 0,2.390503c0,1.261505 0,1.906494 0,2.926666c0,1.0215 0,1.821487 0,2.721512l0,0.899994l0,0.899994l0,0.889343" fill="none" id="svg_33" stroke="#000000" stroke-dasharray="null" stroke-linecap="null" stroke-linejoin="null" stroke-width="5"/>
  <path d="m349.5,146.5c1,-1 0.605927,-1.931046 1.085327,-2.714661c0.442627,-0.723511 1.297424,-1.157501 1.714661,-1.802673c0.480499,-0.742981 0.998474,-1.367645 1.600006,-2.297333c0.398987,-0.616653 1.221619,-1.16037 2,-1.610672c0.721893,-0.417618 1.564484,-0.802917 2.235992,-1.149323c0.813507,-0.419647 1.782349,-0.422516 2.564178,-0.646835c0.839691,-0.240921 1.478424,-0.597214 2.485168,-0.9785c0.8302,-0.314423 1.417267,-0.505737 2.614838,-0.899841c0.603394,-0.198563 1.529999,-0.491898 2.18515,-0.614822c1.388855,-0.260605 2.14032,-0.255707 2.889343,-0.310669c0.741669,-0.054413 1.807678,-0.177689 2.778656,-0.400009c0.602722,-0.138 1.674744,-0.45372 2.610687,-0.538666c0.83197,-0.0755 1.835999,-0.035995 2.635986,-0.035995c0.998688,0 1.764008,0 2.714661,0c0.885345,0 1.685333,0 2.642517,0c0.899994,0 1.647339,0 2.64151,0c0.76532,0 1.868713,-0.083847 2.767975,0.166672c0.691254,0.192566 1.424652,0.597855 2.43335,0.780655c0.793976,0.143875 1.797821,0.338898 2.563995,0.627335c0.813782,0.306366 1.738129,0.462906 2.488678,0.782501c0.714569,0.30426 1.510956,1.072372 2.347321,1.476166c0.7099,0.342743 1.67276,0.486267 2.347321,0.87117c0.793335,0.452682 1.451691,1.095169 2.152679,1.795502c0.600281,0.599716 1.170868,1.230865 1.804504,1.800003c0.826202,0.742096 1.552765,1.066818 2.042816,1.457169c0.827423,0.659088 1.248383,1.450211 1.652679,2.242828c0.406433,0.796753 0.806458,1.596817 1.200012,2.401337c0.406708,0.831406 0.805603,1.763214 1.099976,2.551331c0.203918,0.545898 0.476196,1.373199 0.900024,2.362c0.378906,0.884003 0.786255,1.692444 1.199982,2.47467c0.387268,0.732208 1.057098,1.38089 1.43335,2.377335c0.240906,0.637985 0.165985,1.434662 0.166656,2.433334c0.000549,0.799988 0,1.801331 0,2.635986c0,0.930679 0,1.716675 0,2.538681c0,1.058655 0,2 0,2.677994c0,1.231339 0,2.047333 0,2.594666c0,1.267334 0,1.931839 0,2.952667c0,0.800003 0,1.600006 0,2.604507c0,0.852661 0.017273,1.817245 -0.010681,2.620819c-0.028625,0.822815 -0.176483,1.865204 -0.510162,2.774673c-0.254639,0.694046 -0.683502,1.683777 -0.87915,2.235992c-0.306854,0.866119 -0.707458,2.061584 -0.895508,2.664001c-0.279877,0.89653 -0.460754,1.493744 -0.620483,2.697342c-0.1138,0.857559 -0.030548,1.682236 -0.441193,2.592834c-0.338196,0.749954 -0.952393,1.461945 -1.342834,2.214325c-0.410126,0.790329 -0.796997,1.597 -1.299988,2.595505c-0.302704,0.600922 -0.720581,1.427109 -1.32132,2.199829c-0.476044,0.61232 -1.024872,1.144119 -1.794678,1.916168c-0.508606,0.510086 -1.215973,1.195282 -1.709351,1.720001c-0.706177,0.751022 -1.285065,1.567612 -1.674652,2.164001c-0.657288,1.00618 -1.130676,1.622559 -1.710663,2.164001c-0.7565,0.706223 -1.398193,1.069611 -1.989349,1.461334c-1.015564,0.672974 -1.617737,1.184341 -2.142822,1.77916c-0.673889,0.763367 -0.961884,1.439392 -1.541168,2.110168c-0.692047,0.801346 -1.497467,1.13237 -2.230652,1.685333c-0.611877,0.461487 -1.257843,1.233612 -2.084015,1.716003c-0.696198,0.406509 -1.236786,1.065994 -2.101318,1.084c-0.899841,0.018738 -1.800018,0 -2.700012,0c-0.799988,0 -2.666565,-0.966644 -2.666656,0c-0.000092,0.888153 1.717499,0.300842 2.366669,0.647339c0.849365,0.453354 1.799988,0.352661 2.699982,0.352661c0.899994,0 1.800018,0 2.700012,0c0.899994,0 1.699982,0 2.600006,0c0.899994,0 1.703674,0.112991 2.361328,0.574661c0.732056,0.513885 1.462708,0.49382 2.43866,0.925339c0.827209,0.365768 1.760071,0.417831 2.478668,0.942673c0.616272,0.450104 1.187988,1.223999 2.021332,1.557327c0.833344,0.333328 1.361938,1.11116 2,1.666672c0.659973,0.574585 1.499268,0.885971 2.174652,1.518661c0.674316,0.631699 1.207886,1.160614 1.925171,1.914673c0.557739,0.586319 0.776215,1.467819 1.257355,2.199997c0.521912,0.794235 1.309296,1.3004 1.558807,2.18399c0.237549,0.841202 0.519989,1.722549 0.800018,2.400009c0.376831,0.911697 0.312958,1.733871 0.636658,2.711502c0.252502,0.762604 0.618744,1.650497 0.647339,2.571167c0.02652,0.853745 0,1.833328 0,2.633331c0,0.800003 -0.057983,1.80658 0.057159,2.599991c0.147644,1.017349 0.487976,1.629807 0.658844,2.370667c0.273132,1.184143 0.255005,1.89093 0.309326,2.61467c0.054962,0.7323 0.249573,2.130081 0.399994,2.768005c0.209412,0.888062 0.484528,1.921768 0.538666,2.599991c0.085968,1.077179 0.036011,1.872009 0.036011,2.730667c0,0.863327 0,1.890671 0,2.837326c0,0.67868 0.184601,1.698181 -0.085327,2.477356c-0.279663,0.80719 -1.244385,1.51474 -1.740021,2.037323c-0.531097,0.559998 -1.156616,1.361877 -1.674652,2.164001c-0.386475,0.598419 -0.991394,1.391327 -1.479156,1.979156c-0.700195,0.843811 -1.000244,1.691467 -1.46402,2.342346c-0.542084,0.760773 -1.003723,1.10672 -1.978149,1.87851c-0.521362,0.412933 -1.361206,0.989532 -1.894684,1.399994c-1.012665,0.779114 -1.445007,1.181366 -2.197327,1.914673c-0.608948,0.593597 -1.203766,1.237885 -2.139343,1.780823c-0.671722,0.389801 -1.654816,0.499542 -2.447327,0.925995c-0.678284,0.36499 -1.243713,1.309479 -2.06665,1.611847c-0.794098,0.291779 -1.812012,0.166656 -2.585999,0.166656c-0.90451,0 -1.651855,0 -2.647339,0c-0.800018,0 -1.800171,0 -2.62085,0c-1.145813,0 -1.931824,0 -2.753815,0c-1.058685,0 -1.775146,0.06366 -2.62085,-0.057159c-1.01944,-0.14563 -1.583038,-0.51593 -2.604492,-0.776184c-0.777069,-0.197968 -1.84375,-0.313812 -2.520844,-0.6875c-0.825836,-0.45575 -1.488312,-0.780914 -2.264496,-1.079163c-1.047089,-0.402374 -1.762085,-0.690338 -2.610168,-1.100006c-0.809143,-0.390839 -1.61908,-0.814209 -2.289825,-1.099976c-0.988586,-0.421173 -1.807068,-0.668762 -2.545319,-1c-0.816071,-0.36615 -1.517517,-0.900024 -2.253357,-1.398682l-0.863312,-0.444153l-0.891022,-0.304504" fill="none" id="svg_34" stroke="#000000" stroke-dasharray="null" stroke-linecap="null" stroke-linejoin="null" stroke-width="5"/>
  <path d="m466.5,149.5c-0.574677,1.636002 -0.948029,2.482681 -0.989319,3.210663c-0.05603,0.98764 0.023468,1.769104 -0.010834,2.768173c-0.028595,0.832458 -0.294403,1.78894 -0.499847,2.562836c-0.227753,0.857956 -0.385956,1.757401 -0.47467,2.647659c-0.084991,0.852829 -0.230988,1.894043 -0.450653,2.574677c-0.271454,0.84111 -0.483582,1.841995 -0.62735,2.635986c-0.182892,1.009979 -0.521606,1.578247 -0.78067,2.600006c-0.199646,0.787476 -0.205719,1.613174 -0.519318,2.600006c-0.258209,0.8125 -0.527405,1.804657 -0.672668,2.563995c-0.15744,0.822998 -0.734924,1.559296 -0.917511,2.493164c-0.143738,0.73526 -0.002594,1.747208 -0.09317,2.542831c-0.115051,1.010696 -0.49173,1.817963 -0.76532,2.485336c-0.407684,0.994492 -0.699371,1.808685 -0.841492,2.362c-0.32254,1.255676 -0.280701,1.947311 -0.523834,2.952667c-0.197632,0.81723 -0.597778,1.590027 -0.78067,2.600006c-0.143768,0.793991 -0.279388,1.598145 -0.552673,2.399994c-0.340057,0.997742 -0.422607,1.808868 -0.584015,2.600006c-0.207214,1.015717 -0.525787,1.600403 -1.015991,2.600159c-0.299469,0.610764 -0.720612,1.477173 -1.098663,2.483841c-0.201782,0.537277 -0.492798,1.353394 -0.679993,2.394653c-0.164429,0.914627 -0.174744,1.611954 -0.405334,2.605347c-0.190857,0.822235 -0.468719,1.625336 -0.631989,2.630661c-0.141296,0.870071 -0.301208,1.88678 -0.584015,2.685333c-0.212891,0.60112 -0.460388,1.594604 -0.498657,2.514664c-0.040985,0.984741 -0.183075,1.825638 -0.522186,2.485336c-0.519867,1.011322 -1.166443,1.584793 -1.393829,2.483994c-0.170319,0.673492 -0.007111,1.762421 -0.08548,2.616013c-0.083679,0.911438 -0.800018,1.552597 -0.979004,2.399994c-0.186035,0.880798 0.086121,1.806534 -0.022186,2.699997c-0.111481,0.919769 -0.808502,1.454086 -0.987976,2.400009c-0.167755,0.884277 0.070557,1.837494 -0.294678,2.601334c-0.348969,0.729858 -0.644226,1.642746 -0.800018,2.399994c-0.20755,1.008698 -0.602509,1.729431 -0.863312,2.645996c-0.258667,0.909058 -0.482452,1.591675 -0.854004,2.354004c-0.390808,0.801865 -0.851929,1.57486 -1.077179,2.598495c-0.168884,0.767456 -0.028534,1.791397 -0.17865,2.552841c-0.184052,0.933578 -0.673248,1.633133 -0.857513,2.645996c-0.137634,0.756546 0.079987,1.764114 -0.251984,2.601334c-0.278534,0.702423 -0.785706,1.482803 -0.828857,2.404495c-0.04657,0.994431 0.031189,1.811478 -0.22583,2.795502c-0.160156,0.613159 -0.57666,1.384811 -0.721497,2.395508c-0.130646,0.911545 -0.1185,1.825943 -0.631836,2.429825c-0.555817,0.653839 -1.341583,1.128967 -1.425323,1.97467c-0.078827,0.796082 0.010406,1.700073 0,2.600006c-0.010437,0.900177 -0.543182,1.603271 -0.87851,2.5c-0.318085,0.850647 -0.571808,1.444916 -1.036163,2.185333c-0.488068,0.778259 -0.08548,1.814667 -0.170654,2.514648l-0.489349,0.800018l-0.389313,0.789337" fill="none" id="svg_35" stroke="#000000" stroke-dasharray="null" stroke-linecap="null" stroke-linejoin="null" stroke-width="5"/>
  <path d="m492.5,264.5c0,-1 0.054657,-1.759369 -0.009003,-2.661652c-0.056763,-0.804932 -0.423279,-1.765442 -0.852325,-2.585022c-0.316254,-0.604126 -0.697418,-1.222534 -1.117004,-2.274841c-0.288971,-0.724762 -0.505188,-1.493958 -0.660004,-2.28299c-0.233185,-1.188629 -0.282593,-1.997833 -0.336334,-2.816833c-0.055786,-0.850342 -0.095612,-1.75061 -0.191986,-2.71199c-0.103882,-1.036255 -0.183044,-1.573151 -0.354187,-2.666672c-0.08606,-0.549927 -0.272949,-1.633484 -0.479156,-2.666672c-0.192963,-0.966766 -0.400208,-1.882614 -0.5,-2.333328c-0.200439,-0.905243 -0.502167,-2.332901 -0.600006,-2.842834c-0.204529,-1.066132 -0.300751,-1.618362 -0.5,-2.742493c-0.100403,-0.566437 -0.193878,-1.133118 -0.500153,-2.793335c-0.099182,-0.537704 -0.306824,-1.596802 -0.420685,-2.121338c-0.228882,-1.054321 -0.34671,-1.588837 -0.800476,-3.221161c-0.156586,-0.563248 -0.328735,-1.127808 -0.67868,-2.258011c-0.17337,-0.559891 -0.356201,-1.108276 -0.833344,-2.6875c-0.147888,-0.489502 -0.413971,-1.417786 -0.645813,-2.291656c-0.220612,-0.831543 -0.520844,-2.041672 -0.720856,-2.841675c-0.199982,-0.800003 -0.399994,-1.599991 -0.5,-2c-0.299988,-1.199997 -0.498047,-1.999161 -0.699982,-2.789337c-0.19809,-0.775146 -0.388306,-1.528717 -0.800018,-2.926666c-0.194458,-0.660309 -0.412659,-1.305618 -0.799988,-2.650665c-0.206787,-0.718079 -0.40451,-1.478882 -0.600006,-2.279999c-0.204712,-0.838852 -0.403229,-1.719299 -0.600006,-2.638657c-0.203339,-0.949951 -0.300995,-1.435303 -0.5,-2.419174c-0.100464,-0.496719 -0.402924,-1.99472 -0.59549,-2.990997c-0.095398,-0.493546 -0.274963,-1.467484 -0.347321,-1.947342c-0.209259,-1.387787 -0.283447,-2.271225 -0.321167,-3.121155c-0.036591,-0.824905 -0.032135,-1.634674 -0.036163,-2.835678c-0.002655,-0.791321 0.007874,-1.560638 -0.057007,-2.285995c-0.114227,-1.277145 -0.378265,-2.063873 -0.647339,-2.819672c-0.294861,-0.828217 -0.600433,-1.797562 -0.774658,-2.494659c-0.173065,-0.692398 -0.425385,-1.954361 -0.484833,-2.717331c-0.061798,-0.793015 -0.005615,-1.797791 -0.320007,-2.769333c-0.250519,-0.77417 -0.581635,-1.676178 -0.658844,-2.466003c-0.080109,-0.819412 -0.037506,-1.881058 -0.061646,-2.590164c-0.029053,-0.85379 -0.293884,-1.852081 -0.57019,-2.657166c-0.272949,-0.795242 -0.368042,-1.615265 -0.509338,-2.485336c-0.163269,-1.005325 -0.441559,-1.808319 -0.631989,-2.630661c-0.229736,-0.991989 -0.278656,-1.873291 -0.283997,-2.684006c-0.006439,-0.979156 0.328949,-1.932266 -0.085327,-2.713333c-0.455261,-0.858292 -0.904236,-1.307327 -0.914673,-2.265167c-0.008911,-0.820114 0,-1.721497 -0.057159,-2.664337l-0.658844,-0.441162" fill="none" id="svg_36" stroke="#000000" stroke-dasharray="null" stroke-linecap="null" stroke-linejoin="null" stroke-width="5"/>
  <path d="m442.5,235.5c1.757172,0 2.663391,-0.052612 3.40451,0.057159c1.011292,0.14978 1.816925,0.577118 2.762146,0.776169c0.777191,0.163666 1.618744,0.126862 2.666687,0.333344c0.719635,0.1418 1.543365,0.565399 2.56665,0.748001c0.790985,0.141144 1.800171,0.085327 2.410675,0.085327c0.874664,0 1.873322,0 2.689331,0c0.81601,0 1.814667,0 2.689331,0c1.010681,0 1.810669,0 2.810669,0c0.799988,0 1.600006,0 2.59549,0c0.919189,0 1.809601,0.086121 2.709015,-0.352661c0.615753,-0.3004 1.520355,-0.629333 2.528839,-0.647339c0.755859,-0.013489 1.687805,0.023483 2.650665,-0.001328c0.691284,-0.017822 1.579956,-0.375946 2.314667,-0.714676c0.856995,-0.395111 1.801361,-0.278732 2.701324,-0.283997c0.910736,-0.005341 1.818481,-0.228302 2.5,-0.5c0.974548,-0.388519 1.798676,-0.498672 2.700012,-0.5l0.899994,0" fill="none" id="svg_37" stroke="#000000" stroke-dasharray="null" stroke-linecap="null" stroke-linejoin="null" stroke-width="5"/>
  <path d="m500.5,142.5c1.700012,0 2.652374,-0.014282 3.486664,0.285339c0.778046,0.279434 1.672974,0.734299 2.475006,1.010162c0.575287,0.197876 1.520264,0.452408 2.559845,0.58316c0.733093,0.092209 1.500153,0.110382 2.28299,0.174011c1.19696,0.097275 1.996765,0.219452 2.784851,0.383331c0.777466,0.161682 1.526428,0.361511 2.926636,0.762665c0.65918,0.188858 1.299255,0.421341 2.650696,0.634659c0.711975,0.112381 1.449036,0.12825 2.171997,0.192001c1.330322,0.117294 2.144714,0.334518 2.839966,0.549332c1.018127,0.314575 1.836365,0.352066 2.82135,0.59201c0.816895,0.19899 1.380493,0.56926 2.402649,0.748001c0.859497,0.150299 1.930664,0.085327 2.566711,0.085327c1.051453,0 1.782471,-0.001053 2.863953,0c0.684021,0.000671 1.688477,0.005508 2.376526,0.057159c1.12561,0.084503 1.960938,0.225891 2.862183,0.368179c0.469727,0.074173 1.434021,0.24736 2.927979,0.40799c0.498962,0.05365 1.4953,0.113678 1.989319,0.130676c0.974426,0.033539 1.925354,0.035324 2.843994,0.035995c0.88269,0.000641 1.741333,0 2.592041,0c0.858643,0 2.196655,-0.00148 2.664001,0.001328c0.978638,0.00589 1.494263,0.0112 2.58667,0.055832c0.581482,0.023758 1.824646,0.101791 3.171997,0.226837c0.696838,0.064667 1.396057,0.140533 2.089478,0.216003c0.678589,0.073868 1.953735,0.22377 3.0625,0.333328c0.886047,0.087555 1.572815,0.14743 2.506653,0.165344c1.08252,0.020767 1.893372,0.001328 2.793335,0.001328c0.900024,0 1.799988,0 2.700012,0c0.799988,0 1.700012,0 2.599976,0l0.900024,-0.020828l0.900024,-0.40451l0.699951,-0.453156" fill="none" id="svg_38" stroke="#000000" stroke-dasharray="null" stroke-linecap="null" stroke-linejoin="null" stroke-width="5"/>
  <path d="m528.5,255.5c0,-1.671997 0,-2.77066 0,-3.541672c0,-0.567322 0,-1.758667 0,-2.679657c0,-0.650665 0,-1.349335 0,-2.521332c0,-0.862671 0,-1.757339 0,-2.652008c0,-1.272003 0,-2.037338 0,-2.754669c0,-0.701324 -0.002869,-1.418655 0.000183,-2.593491c0.002258,-0.86702 0.010681,-1.778442 0.057007,-2.709c0.023193,-0.465775 0.153931,-1.828278 0.295471,-2.69101c0.137451,-0.838013 0.324951,-1.648376 0.480652,-2.857162c0.102722,-0.797684 0.13739,-1.600266 0.192017,-2.399994c0.054688,-0.800278 0.182678,-2.002411 0.331848,-2.800003c0.150085,-0.802658 0.346069,-1.600311 0.444153,-2c0.294678,-1.200943 0.503723,-1.997849 0.677856,-2.800003c0.173218,-0.797989 0.366089,-1.998856 0.436829,-2.800003c0.070557,-0.799042 0.092957,-1.601364 0.167969,-2.399994c0.112915,-1.202072 0.25177,-1.991486 0.436829,-2.737503c0.251587,-1.014114 0.662537,-2.018234 1.079163,-2.666504c0.57605,-0.896301 1.029907,-1.587189 1.233337,-2.395996c0.19519,-0.775909 0.166687,-1.833328 0.166687,-2.625336c0,-1.03183 -0.021851,-1.779434 0.001343,-2.773331c0.017883,-0.765915 0.349487,-1.683594 0.645996,-2.354004c0.386658,-0.87413 0.350403,-1.708984 0.352661,-2.668671c0.001892,-0.803986 0,-1.625992 0,-2.657166c0,-0.900665 0,-1.921494 0,-2.721497c0,-0.800003 -0.040955,-1.808533 0.05719,-2.657166c0.112366,-0.971558 0.385986,-1.76355 0.590149,-2.590164c0.253357,-1.02594 0.333435,-1.716141 0.351318,-2.551331c0.021362,-0.996613 0.001221,-1.744171 0.001343,-2.776001c0.000122,-0.946838 -0.059326,-1.661499 0.166687,-2.625336c0.191956,-0.818588 0.628601,-1.585281 0.776123,-2.600006c0.115356,-0.793381 0.05719,-1.799988 0.05719,-2.599991c0,-1 0,-1.800003 0,-2.800003c0,-0.800003 -0.030579,-1.600616 0.004517,-2.600006c0.028137,-0.801224 0.293823,-1.794922 0.570129,-2.599991c0.272949,-0.795258 0.407349,-1.588867 0.425354,-2.633331c0.014893,-0.862045 0,-1.766678 0,-2.666672c0,-0.899994 0,-1.804504 0,-2.666672c0,-0.833328 0,-1.811829 0,-2.631989l0,-0.901337l0,-0.900009" fill="none" id="svg_39" stroke="#000000" stroke-dasharray="null" stroke-linecap="null" stroke-linejoin="null" stroke-width="5"/>
  <path d="m589.5,155.5c0,1.846664 0,2.686661 0,3.685333c0,0.835495 0,1.716003 0,2.61467c0,0.899994 0,1.800003 0,2.699997c0,0.899994 0,1.800003 0,2.399994c0,1.20134 0,1.810669 0,2.757172c0,1.009506 -0.005493,2.095795 0.020813,2.842834c0.026367,0.747757 0.130249,1.836197 0.263184,2.516006c0.193359,0.988693 0.404724,1.629944 0.549316,2.650665c0.153748,1.085144 0.152527,1.85405 0.16217,2.637833c0.014709,1.195419 0.004517,1.992828 0.004517,2.774155c0,0.749344 0,1.450668 0,2.653336c0,0.768005 0.007446,1.536041 -0.001343,2.737335c-0.005066,0.692047 0.023254,1.422394 -0.165344,2.863998c-0.089844,0.686829 -0.279175,1.336914 -0.480652,2.319336c-0.207153,1.009903 -0.279419,1.730637 -0.31665,2.472672c-0.037537,0.74881 -0.029663,2.208038 -0.037354,2.888c-0.010681,0.945129 0.021729,1.540237 -0.219971,2.565002c-0.211914,0.898422 -0.685486,1.744003 -0.768005,2.546997c-0.10553,1.026474 -0.010681,1.77916 -0.010681,2.776001c0,0.834656 0,1.765335 0,2.551331c0,0.822006 0,1.880661 0,2.81134c0,0.631485 0,1.638657 0,2.507996c0,1.061325 0.01593,1.696472 -0.020813,2.727997c-0.02478,0.69519 -0.175781,1.963959 -0.404541,2.727997c-0.200562,0.669815 -0.52179,1.671066 -0.563965,2.507996c-0.046814,0.929565 -0.010681,1.721176 -0.010681,2.574677c0,1.189331 0,1.789337 0,2.689331c0,0.899994 0.017822,1.8004 -0.010681,2.699997c-0.028503,0.900757 -0.141602,1.803085 -0.34198,2.704498c-0.137512,0.618607 -0.398315,1.575958 -0.525818,2.616669c-0.088745,0.724426 -0.10968,1.457886 -0.120178,2.509506c-0.009216,0.926285 0.005676,1.927689 -0.001343,2.96933c-0.005371,0.789398 -0.055481,1.527054 -0.425354,2.374664c-0.4198,0.962082 -0.564209,1.645996 -0.574646,2.625336c-0.008484,0.799957 0,1.600006 0,2.595505c0,0.919159 0.039734,1.799515 -0.166687,2.737823c-0.149841,0.680984 -0.53772,1.648026 -0.711792,2.523834c-0.175171,0.881409 -0.121521,1.795517 -0.121521,2.658829l0,0.963165" fill="none" id="svg_40" stroke="#000000" stroke-dasharray="null" stroke-linecap="null" stroke-linejoin="null" stroke-width="5"/>
  <path d="m653.5,148.5c-1.700012,0 -2.671997,0 -3.542847,0c-0.718506,0 -1.508972,0 -2.773132,0c-0.684021,0 -1.850708,0 -2.641174,0c-0.56366,0 -1.444153,0 -2.641541,0c-0.880493,0 -1.444153,0 -2.715942,0c-0.664551,0 -1.685364,0 -2.496033,0c-0.874695,0 -1.873352,0 -2.689331,0c-0.815979,0 -1.815979,0 -2.725342,0c-0.941345,0 -1.727295,0 -2.549316,0c-1.058655,0 -1.772705,0 -2.677979,0c-0.968689,0 -1.772705,0 -2.594727,0c-1.031128,0 -1.931824,0 -2.952637,0c-0.799988,0 -1.599976,0 -2.59552,0c-0.747314,0 -1.768494,0 -2.604492,0c-0.899963,0 -2.037964,-0.273636 -2.67865,0.221329c-0.636658,0.491837 -1.288025,0.778671 -2.121338,0.778671c-0.978516,0 -1.798645,0 -2.700012,0c-0.899963,0 -1.812927,-0.141861 -2.700012,0.010666c-0.834412,0.143478 -1.464539,0.806305 -2.435974,0.953339c-0.757446,0.114655 -1.759521,0.035995 -2.506836,0.035995c-1.021179,0 -1.96167,0 -2.823853,0c-0.833313,0 -1.811829,0 -2.631958,0l-0.901367,0l-0.899963,0" fill="none" id="svg_41" stroke="#000000" stroke-dasharray="null" stroke-linecap="null" stroke-linejoin="null" stroke-width="5"/>
  <path d="m589.5,253.5c1.799988,0 2.671997,0 3.542847,0c0.718506,0 1.508972,0 2.774475,0c0.703491,0 1.452026,0 2.652039,0c0.691956,0 1.415955,0 2.147949,0c1.397339,0 2.046692,0 2.97821,0c0.90448,0 1.80896,0 2.740479,0c0.649353,0 1.685364,0 2.789307,0c0.74939,0 1.490723,0.00563 2.55304,-0.000168c0.975037,-0.005325 1.587891,0.04509 2.654968,-0.166504c0.94751,-0.187881 1.543091,-0.567322 2.567993,-0.748001c0.825317,-0.145493 1.765381,-0.085327 2.546875,-0.085327c0.790466,0 1.908813,0 2.742798,0c0.945007,0 1.794373,0.00061 2.713501,0c0.995544,-0.000671 1.812195,0.038345 2.795349,-0.221329c0.603088,-0.159302 1.622559,-0.684647 2.425476,-0.768005c0.854187,-0.088684 1.722046,-0.010666 2.617554,-0.010666c0.957153,0 1.857117,0 2.757141,0c0.799988,0 1.700073,-0.010406 2.599976,0c0.900208,0.010422 1.606323,0.535263 2.500183,0.878494c0.741516,0.284744 1.714478,0.121506 2.656982,0.121506c0.853516,0 1.742859,-0.002258 2.642883,0c0.895447,0.002258 1.406799,0.670532 2.120789,0.979172c0.807251,0.348984 1.779175,0.020828 2.677856,0.022156l0.748657,0.351334l0.573486,0.626511l0.879211,0.020828" fill="none" id="svg_42" stroke="#000000" stroke-dasharray="null" stroke-linecap="null" stroke-linejoin="null" stroke-width="5"/>
  <path d="m588.5,146.5c0.574646,1.600006 0.981323,2.399475 1,3.300003c0.018677,0.899796 0.326111,1.736649 0.716003,2.5c0.384521,0.752884 0.281738,1.699997 0.283997,2.599991c0.002258,0.900024 0.386047,1.738358 0.716003,2.400009c0.420532,0.843353 0.283997,1.800003 0.283997,2.699997c0,0.899994 -0.072998,1.850174 0.425354,2.47467c0.485168,0.607956 0.574646,1.425323 0.574646,2.325333c0,0.899994 0,1.800003 0,2.699997c0,0.800003 -0.085327,1.714661 -0.878479,2.221497l-0.121704,0.87851" fill="none" id="svg_43" stroke="#000000" stroke-dasharray="null" stroke-linecap="null" stroke-linejoin="null" stroke-width="5"/>
  <path d="m649.5,252.5c0,-1.699997 0,-2.600006 0,-3.520828c0,-0.967178 0,-1.761841 0,-2.8125c0,-0.638672 0,-1.349335 0,-2.124008c0,-0.830658 0,-2.164169 0,-3.099823c0,-0.478836 0,-1.453506 0,-2.444168c0,-0.998672 0,-1.997345 0,-2.494171c0,-0.983673 0,-1.947342 0,-3.33783c0,-0.445175 0,-1.309509 0,-2.145844c0,-0.81633 0,-2.020828 0,-2.822159c0,-0.809341 0,-1.634674 0,-2.484009c0,-1.335999 0,-1.79866 0,-2.73999c0,-0.949341 0,-1.421997 0,-2.807999c0,-0.882675 0,-1.741333 0,-2.59201c0,-0.858658 0,-1.741333 0,-2.659988c0,-0.950668 0,-1.435501 0,-2.419174c0,-1.495499 0,-1.995331 0,-2.990997c0,-0.983673 0,-1.468506 0,-2.419174c0,-1.363998 0,-1.801331 0,-2.659988c0,-0.850677 0,-1.709335 0,-3.046677c0,-0.931335 0,-1.403992 0,-2.353333c0,-0.94133 0,-1.858658 0,-2.738663c0,-0.839996 0,-1.639999 0,-2.399994c0,-1.401337 0,-2.050674 0,-2.982178c0,-0.904495 0,-1.799988 0,-2.668503c0,-1.069321 0,-1.787827 0,-2.745819c0,-0.823502 0,-1.795502 0,-2.490173c0,-1.031998 0,-1.957169 0,-2.738663c0,-0.944 0,-1.946671 0,-2.782166c0,-0.583679 0,-1.779007 0,-2.668503c0,-0.8535 -0.025146,-1.89003 0.010681,-2.574677c0.043762,-0.836838 0.379089,-1.823288 0.636658,-2.635986c0.31311,-0.987991 0.338989,-1.620728 0.352661,-2.766678c0.009399,-0.78595 -0.034302,-1.61908 0.166687,-2.666656c0.138245,-0.720337 0.565369,-1.543365 0.747986,-2.566666c0.141113,-0.790985 0.037964,-1.802643 0.10614,-2.600006c0.086121,-1.006912 0.361145,-1.58461 0.626526,-2.342834c0.356567,-1.018723 0.274353,-1.985428 0.388672,-2.831833c0.110413,-0.81749 0.611328,-1.520828 0.953308,-2.425339l0.010681,-0.899994" fill="none" id="svg_44" stroke="#000000" stroke-dasharray="null" stroke-linecap="null" stroke-linejoin="null" stroke-width="5"/>
 </g>
</svg>