<?xml version="1.0" standalone="no"?>
<!DOCTYPE svg PUBLIC "-//W3C//DTD SVG 20010904//EN"
 "http://www.w3.org/TR/2001/REC-SVG-20010904/DTD/svg10.dtd">
<svg version="1.0" xmlns="http://www.w3.org/2000/svg"
 width="400.000000pt" height="400.000000pt" viewBox="0 0 400.000000 400.000000"
 preserveAspectRatio="xMidYMid meet">
<metadata>
Created by potrace 1.15, written by Peter Selinger 2001-2017
</metadata>
<g transform="translate(0.000000,400.000000) scale(0.100000,-0.100000)"
fill="#000000" stroke="none">
<path d="M1680 3949 c-205 -27 -323 -58 -474 -126 -346 -155 -539 -349 -676
-678 -79 -193 -89 -221 -115 -340 -15 -66 -33 -145 -40 -175 -7 -30 -19 -149
-25 -265 -29 -496 46 -952 224 -1370 143 -335 285 -523 507 -670 174 -116 519
-249 719 -276 58 -8 194 -12 350 -12 213 1 271 4 355 21 251 50 335 105 541
357 200 243 404 738 579 1402 117 445 44 947 -184 1257 -107 144 -350 415
-468 519 -117 104 -242 183 -373 236 -96 38 -324 95 -461 115 -114 17 -348 19
-459 5z m550 -117 c455 -116 664 -261 1001 -695 109 -141 196 -318 273 -554
50 -155 66 -260 66 -427 0 -180 -6 -215 -84 -487 -77 -267 -90 -303 -194 -524
-44 -93 -107 -234 -141 -312 -68 -154 -126 -250 -240 -399 -114 -148 -194
-204 -372 -263 -331 -110 -572 -95 -1044 66 -233 79 -396 198 -571 413 -220
272 -330 550 -425 1075 -31 170 -33 193 -33 425 -1 286 12 393 85 725 51 235
229 518 432 690 177 150 360 224 702 285 66 12 127 23 135 25 8 2 69 2 135 0
98 -3 149 -11 275 -43z"/>
<path d="M2070 3723 c-68 -7 -186 -36 -267 -65 -86 -31 -90 -36 -77 -86 8 -27
19 -26 194 15 104 24 410 53 568 53 39 0 72 4 72 10 0 20 -88 59 -157 69 -67
10 -252 13 -333 4z"/>
<path d="M2120 3549 c-61 -7 -168 -38 -171 -49 0 -3 2 -22 6 -43 6 -33 1 -52
-35 -127 -74 -156 -58 -254 62 -385 62 -68 142 -129 205 -157 37 -16 61 -20
122 -16 65 4 88 10 157 46 96 50 202 135 235 189 20 32 24 51 24 123 0 71 -4
94 -26 140 -30 63 -92 129 -164 176 -60 38 -201 89 -271 99 -27 4 -56 8 -64 9
-8 2 -44 0 -80 -5z m230 -104 c168 -34 263 -119 301 -268 17 -70 -7 -140 -73
-208 -69 -71 -134 -115 -192 -130 -54 -13 -149 -6 -200 15 -57 24 -139 92
-174 144 -47 69 -61 116 -62 197 0 60 5 81 33 140 19 40 50 84 71 103 l37 32
97 -6 c53 -3 126 -12 162 -19z"/>
<path d="M2236 3222 c-26 -50 -17 -99 23 -129 27 -21 85 -16 108 10 18 20 43
77 43 98 0 15 -55 38 -108 45 -49 6 -51 5 -66 -24z"/>
<path d="M944 3308 c-87 -57 -227 -205 -262 -278 -17 -36 -34 -76 -37 -88 -6
-21 -5 -22 12 -14 24 13 328 315 349 347 15 23 12 65 -5 65 -4 0 -30 -14 -57
-32z"/>
<path d="M912 3014 c-36 -25 -28 -44 21 -45 23 0 62 -4 87 -8 l45 -7 -45 -8
c-151 -24 -219 -54 -274 -117 -66 -78 -105 -230 -76 -299 7 -17 35 -50 62 -75
105 -94 234 -128 408 -106 146 18 181 33 243 102 28 32 56 59 62 59 12 0 62
-85 136 -230 43 -82 45 -85 82 -88 44 -4 112 25 147 63 13 14 22 27 19 29 -2
2 -37 1 -78 -3 l-74 -7 -38 84 c-22 46 -39 86 -39 89 0 10 -143 289 -165 322
-68 99 -195 201 -298 239 -71 27 -191 30 -225 6z m347 -149 c64 -33 141 -151
141 -216 0 -49 -58 -148 -106 -181 -43 -30 -161 -58 -244 -58 -75 0 -197 28
-240 55 -94 60 -119 140 -75 240 37 83 76 120 149 144 82 27 93 28 229 30 87
1 126 -3 146 -14z"/>
<path d="M1038 2734 c-41 -22 -38 -66 6 -110 46 -46 79 -45 105 3 18 35 13 63
-18 94 -33 32 -53 35 -93 13z"/>
<path d="M2636 2780 c-122 -149 -189 -200 -264 -200 -55 0 -92 18 -206 99
-140 101 -153 91 -34 -27 139 -137 248 -180 350 -138 38 16 122 101 162 164
35 56 68 140 64 166 -2 16 -18 2 -72 -64z"/>
<path d="M2160 2481 c0 -20 89 -86 170 -124 114 -55 182 -61 268 -22 59 26
122 79 109 91 -3 3 -43 -7 -89 -22 -123 -41 -158 -38 -311 29 -131 59 -147 64
-147 48z"/>
<path d="M1214 2295 c-65 -20 -221 -45 -287 -45 -59 0 -59 0 -45 -22 48 -71
215 -56 343 32 73 50 69 60 -11 35z"/>
<path d="M3115 2226 c-72 -25 -247 -90 -389 -146 -742 -290 -1270 -451 -1806
-549 -124 -23 -231 -44 -237 -46 -18 -6 132 -295 215 -415 131 -189 281 -372
369 -449 59 -53 183 -136 283 -189 62 -33 97 -44 195 -61 178 -30 242 -34 315
-21 235 43 473 192 687 430 104 115 158 196 208 314 36 85 125 380 125 415 0
9 21 84 46 166 45 146 47 155 53 319 l6 168 53 47 c28 25 52 49 52 54 0 16
-50 5 -175 -37z m-15 -163 c0 -225 -42 -356 -147 -455 -39 -37 -74 -60 -101
-67 -23 -7 -45 -18 -49 -26 -13 -22 -201 -140 -320 -199 -170 -85 -496 -204
-698 -256 -267 -68 -527 -76 -718 -23 -73 20 -142 80 -184 160 -28 51 -93 216
-93 233 0 4 57 19 127 34 498 108 1116 286 1611 465 98 35 460 176 517 201 50
22 55 15 55 -67z m-95 -570 c-14 -81 -51 -176 -140 -358 -52 -107 -115 -219
-143 -256 -137 -179 -466 -413 -630 -448 -75 -16 -284 -13 -366 4 -79 17 -120
41 -290 173 -197 153 -305 269 -306 329 0 9 55 12 228 11 l227 -1 130 35 c171
47 563 183 694 242 57 25 170 85 250 133 124 74 317 171 344 172 4 1 5 -16 2
-36z"/>
<path d="M735 2123 c48 -76 90 -102 184 -114 83 -10 198 9 268 45 48 24 70 42
62 51 -2 2 -60 -5 -129 -16 -144 -22 -172 -19 -297 27 -51 19 -95 34 -99 34
-3 0 2 -12 11 -27z"/>
</g>
</svg>
